Amiamie-Regular Round.ufo
<glyph name="quotesingle" format="2">
	<advance width="187"/>
	<unicode hex="0027"/>
	<note>
		quotesingle
	</note>
	<outline>
		<contour>
			<point x="134" y="487"/>
			<point x="135" y="509" type="curve" smooth="yes"/>
			<point x="143" y="688" type="line" smooth="yes"/>
			<point x="144" y="715"/>
			<point x="122" y="741"/>
			<point x="93" y="741" type="curve" smooth="yes"/>
			<point x="63" y="741"/>
			<point x="41" y="715"/>
			<point x="42" y="688" type="curve" smooth="yes"/>
			<point x="50" y="509" type="line" smooth="yes"/>
			<point x="51" y="487"/>
			<point x="69" y="469"/>
			<point x="92" y="469" type="curve" smooth="yes"/>
			<point x="115" y="469"/>
		</contour>
	</outline>
</glyph>
<glyph name="H" format="2">
	<advance width="740"/>
	<unicode hex="0048"/>
	<note>
		H
	</note>
	<outline>
		<contour>
			<point x="668" y="49" type="curve" smooth="yes"/>
			<point x="668" y="641" type="line" smooth="yes"/>
			<point x="668" y="671"/>
			<point x="644" y="696"/>
			<point x="614" y="696" type="curve" smooth="yes"/>
			<point x="583" y="696"/>
			<point x="559" y="671"/>
			<point x="559" y="641" type="curve" smooth="yes"/>
			<point x="559" y="383" type="line"/>
			<point x="205" y="383" type="line"/>
			<point x="205" y="641" type="line" smooth="yes"/>
			<point x="205" y="671"/>
			<point x="180" y="696"/>
			<point x="150" y="696" type="curve" smooth="yes"/>
			<point x="120" y="696"/>
			<point x="95" y="671"/>
			<point x="95" y="641" type="curve" smooth="yes"/>
			<point x="95" y="50" type="line" smooth="yes"/>
			<point x="95" y="20"/>
			<point x="120" y="-6"/>
			<point x="150" y="-6" type="curve" smooth="yes"/>
			<point x="180" y="-6"/>
			<point x="205" y="20"/>
			<point x="205" y="50" type="curve" smooth="yes"/>
			<point x="205" y="294" type="line"/>
			<point x="559" y="294" type="line"/>
			<point x="559" y="49" type="line" smooth="yes"/>
			<point x="559" y="19"/>
			<point x="583" y="-6"/>
			<point x="614" y="-6" type="curve" smooth="yes"/>
			<point x="644" y="-6"/>
			<point x="668" y="19"/>
		</contour>
	</outline>
</glyph>
<glyph name="M" format="2">
	<advance width="880"/>
	<unicode hex="004D"/>
	<note>
		M
	</note>
	<outline>
		<contour>
			<point x="808" y="49" type="curve" smooth="yes"/>
			<point x="808" y="632" type="line" smooth="yes"/>
			<point x="808" y="669"/>
			<point x="787" y="690"/>
			<point x="750" y="690" type="curve" smooth="yes"/>
			<point x="686" y="690" type="line" smooth="yes"/>
			<point x="652" y="690"/>
			<point x="631" y="674"/>
			<point x="621" y="642" type="curve" smooth="yes"/>
			<point x="454" y="98" type="line"/>
			<point x="287" y="642" type="line" smooth="yes"/>
			<point x="277" y="674"/>
			<point x="256" y="690"/>
			<point x="222" y="690" type="curve" smooth="yes"/>
			<point x="153" y="690" type="line" smooth="yes"/>
			<point x="116" y="690"/>
			<point x="95" y="669"/>
			<point x="95" y="632" type="curve" smooth="yes"/>
			<point x="95" y="50" type="line" smooth="yes"/>
			<point x="95" y="20"/>
			<point x="120" y="-6"/>
			<point x="150" y="-6" type="curve" smooth="yes"/>
			<point x="180" y="-6"/>
			<point x="205" y="20"/>
			<point x="205" y="50" type="curve" smooth="yes"/>
			<point x="205" y="339" type="line" smooth="yes"/>
			<point x="205" y="418"/>
			<point x="205" y="511"/>
			<point x="203" y="585" type="curve"/>
			<point x="222" y="512"/>
			<point x="251" y="418"/>
			<point x="276" y="341" type="curve" smooth="yes"/>
			<point x="371" y="53" type="line" smooth="yes"/>
			<point x="382" y="19"/>
			<point x="414" y="-6"/>
			<point x="451" y="-6" type="curve" smooth="yes"/>
			<point x="489" y="-6"/>
			<point x="521" y="19"/>
			<point x="532" y="53" type="curve" smooth="yes"/>
			<point x="626" y="340" type="line" smooth="yes"/>
			<point x="652" y="418"/>
			<point x="681" y="513"/>
			<point x="701" y="586" type="curve"/>
			<point x="699" y="513"/>
			<point x="699" y="418"/>
			<point x="699" y="339" type="curve" smooth="yes"/>
			<point x="699" y="49" type="line" smooth="yes"/>
			<point x="699" y="19"/>
			<point x="723" y="-6"/>
			<point x="754" y="-6" type="curve" smooth="yes"/>
			<point x="784" y="-6"/>
			<point x="808" y="19"/>
		</contour>
	</outline>
</glyph>
<glyph name="S" format="2">
	<advance width="595"/>
	<unicode hex="0053"/>
	<note>
		S
	</note>
	<outline>
		<contour>
			<point x="316" y="704" type="curve" smooth="yes"/>
			<point x="187" y="704"/>
			<point x="78" y="629"/>
			<point x="78" y="507" type="curve" smooth="yes"/>
			<point x="78" y="387"/>
			<point x="165" y="338"/>
			<point x="296" y="307" type="curve" smooth="yes"/>
			<point x="408" y="281"/>
			<point x="450" y="244"/>
			<point x="450" y="172" type="curve" smooth="yes"/>
			<point x="450" y="109"/>
			<point x="393" y="70"/>
			<point x="321" y="70" type="curve" smooth="yes"/>
			<point x="252" y="70"/>
			<point x="198" y="103"/>
			<point x="172" y="169" type="curve" smooth="yes"/>
			<point x="164" y="191"/>
			<point x="144" y="206"/>
			<point x="119" y="206" type="curve" smooth="yes"/>
			<point x="88" y="206"/>
			<point x="63" y="180"/>
			<point x="63" y="149" type="curve" smooth="yes"/>
			<point x="63" y="141"/>
			<point x="63" y="134"/>
			<point x="66" y="128" type="curve" smooth="yes"/>
			<point x="104" y="34"/>
			<point x="194" y="-14"/>
			<point x="321" y="-14" type="curve" smooth="yes"/>
			<point x="455" y="-14"/>
			<point x="566" y="62"/>
			<point x="566" y="187" type="curve" smooth="yes"/>
			<point x="566" y="302"/>
			<point x="494" y="367"/>
			<point x="342" y="402" type="curve" smooth="yes"/>
			<point x="235" y="427"/>
			<point x="194" y="458"/>
			<point x="194" y="525" type="curve" smooth="yes"/>
			<point x="194" y="590"/>
			<point x="245" y="620"/>
			<point x="310" y="620" type="curve" smooth="yes"/>
			<point x="377" y="620"/>
			<point x="420" y="587"/>
			<point x="437" y="528" type="curve" smooth="yes"/>
			<point x="443" y="506"/>
			<point x="464" y="488"/>
			<point x="489" y="488" type="curve" smooth="yes"/>
			<point x="520" y="488"/>
			<point x="544" y="513"/>
			<point x="544" y="543" type="curve" smooth="yes"/>
			<point x="544" y="550"/>
			<point x="543" y="556"/>
			<point x="541" y="562" type="curve" smooth="yes"/>
			<point x="509" y="648"/>
			<point x="437" y="704"/>
		</contour>
	</outline>
</glyph>
<glyph name="X" format="2">
	<advance width="648"/>
	<unicode hex="0058"/>
	<note>
		X
	</note>
	<outline>
		<contour>
			<point x="331" y="279" type="line"/>
			<point x="507" y="17" type="line" smooth="yes"/>
			<point x="516" y="3"/>
			<point x="532" y="-6"/>
			<point x="550" y="-6" type="curve" smooth="yes"/>
			<point x="579" y="-6"/>
			<point x="602" y="18"/>
			<point x="602" y="47" type="curve" smooth="yes"/>
			<point x="602" y="58"/>
			<point x="599" y="68"/>
			<point x="593" y="77" type="curve" smooth="yes"/>
			<point x="399" y="351" type="line"/>
			<point x="586" y="615" type="line" smooth="yes"/>
			<point x="592" y="624"/>
			<point x="595" y="633"/>
			<point x="595" y="644" type="curve" smooth="yes"/>
			<point x="595" y="673"/>
			<point x="572" y="696"/>
			<point x="544" y="696" type="curve" smooth="yes"/>
			<point x="526" y="696"/>
			<point x="510" y="686"/>
			<point x="501" y="672" type="curve" smooth="yes"/>
			<point x="336" y="420" type="line"/>
			<point x="178" y="671" type="line" smooth="yes"/>
			<point x="169" y="685"/>
			<point x="152" y="695"/>
			<point x="134" y="695" type="curve" smooth="yes"/>
			<point x="105" y="695"/>
			<point x="82" y="672"/>
			<point x="82" y="643" type="curve" smooth="yes"/>
			<point x="82" y="633"/>
			<point x="86" y="622"/>
			<point x="91" y="614" type="curve" smooth="yes"/>
			<point x="269" y="348" type="line"/>
			<point x="72" y="70" type="line" smooth="yes"/>
			<point x="44" y="30"/>
			<point x="60" y="0"/>
			<point x="106" y="0" type="curve" smooth="yes"/>
			<point x="137" y="0"/>
			<point x="158" y="11"/>
			<point x="175" y="38" type="curve" smooth="yes"/>
		</contour>
	</outline>
</glyph>
<glyph name="asciicircum" format="2">
	<advance width="601"/>
	<unicode hex="005E"/>
	<note>
		asciicircum
	</note>
	<outline>
		<contour>
			<point x="301" y="550" type="line"/>
			<point x="428" y="232" type="line" smooth="yes"/>
			<point x="433" y="218"/>
			<point x="446" y="210"/>
			<point x="462" y="210" type="curve" smooth="yes"/>
			<point x="481" y="210"/>
			<point x="498" y="226"/>
			<point x="498" y="245" type="curve" smooth="yes"/>
			<point x="498" y="251"/>
			<point x="497" y="255"/>
			<point x="495" y="260" type="curve" smooth="yes"/>
			<point x="353" y="587" type="line" smooth="yes"/>
			<point x="344" y="608"/>
			<point x="324" y="621"/>
			<point x="300" y="621" type="curve" smooth="yes"/>
			<point x="276" y="621"/>
			<point x="256" y="608"/>
			<point x="247" y="587" type="curve" smooth="yes"/>
			<point x="106" y="260" type="line" smooth="yes"/>
			<point x="104" y="255"/>
			<point x="103" y="251"/>
			<point x="103" y="246" type="curve" smooth="yes"/>
			<point x="103" y="226"/>
			<point x="119" y="209"/>
			<point x="139" y="209" type="curve" smooth="yes"/>
			<point x="154" y="209"/>
			<point x="168" y="219"/>
			<point x="173" y="232" type="curve" smooth="yes"/>
		</contour>
	</outline>
</glyph>
<glyph name="m" format="2">
	<advance width="883"/>
	<unicode hex="006D"/>
	<note>
		m
	</note>
	<outline>
		<contour>
			<point x="813" y="415" type="curve" smooth="yes"/>
			<point x="801" y="488"/>
			<point x="745" y="545"/>
			<point x="647" y="545" type="curve" smooth="yes"/>
			<point x="616" y="545"/>
			<point x="589" y="541"/>
			<point x="566" y="532" type="curve" smooth="yes"/>
			<point x="541" y="522"/>
			<point x="528" y="506"/>
			<point x="513" y="484" type="curve" smooth="yes"/>
			<point x="485" y="444" type="line"/>
			<point x="465" y="503"/>
			<point x="412" y="545"/>
			<point x="328" y="545" type="curve" smooth="yes"/>
			<point x="297" y="545"/>
			<point x="270" y="541"/>
			<point x="247" y="532" type="curve" smooth="yes"/>
			<point x="222" y="522"/>
			<point x="209" y="505"/>
			<point x="196" y="482" type="curve" smooth="yes"/>
			<point x="179" y="452" type="line"/>
			<point x="179" y="482" type="line" smooth="yes"/>
			<point x="179" y="512"/>
			<point x="154" y="537"/>
			<point x="124" y="537" type="curve" smooth="yes"/>
			<point x="94" y="537"/>
			<point x="69" y="512"/>
			<point x="69" y="482" type="curve" smooth="yes"/>
			<point x="69" y="50" type="line" smooth="yes"/>
			<point x="69" y="20"/>
			<point x="94" y="-6"/>
			<point x="124" y="-6" type="curve" smooth="yes"/>
			<point x="154" y="-6"/>
			<point x="179" y="20"/>
			<point x="179" y="50" type="curve" smooth="yes"/>
			<point x="179" y="267" type="line" smooth="yes"/>
			<point x="179" y="411"/>
			<point x="221" y="464"/>
			<point x="286" y="464" type="curve" smooth="yes"/>
			<point x="343" y="464"/>
			<point x="377" y="434"/>
			<point x="385" y="377" type="curve" smooth="yes"/>
			<point x="388" y="350"/>
			<point x="389" y="321"/>
			<point x="389" y="281" type="curve" smooth="yes"/>
			<point x="389" y="49" type="line" smooth="yes"/>
			<point x="389" y="19"/>
			<point x="413" y="-6"/>
			<point x="444" y="-6" type="curve" smooth="yes"/>
			<point x="474" y="-6"/>
			<point x="498" y="19"/>
			<point x="498" y="49" type="curve" smooth="yes"/>
			<point x="498" y="267" type="line" smooth="yes"/>
			<point x="498" y="411"/>
			<point x="541" y="464"/>
			<point x="605" y="464" type="curve" smooth="yes"/>
			<point x="662" y="464"/>
			<point x="697" y="434"/>
			<point x="704" y="377" type="curve" smooth="yes"/>
			<point x="707" y="350"/>
			<point x="708" y="321"/>
			<point x="708" y="281" type="curve" smooth="yes"/>
			<point x="708" y="50" type="line" smooth="yes"/>
			<point x="708" y="20"/>
			<point x="733" y="-6"/>
			<point x="763" y="-6" type="curve" smooth="yes"/>
			<point x="793" y="-6"/>
			<point x="818" y="20"/>
			<point x="818" y="50" type="curve" smooth="yes"/>
			<point x="818" y="321" type="line" smooth="yes"/>
			<point x="818" y="364"/>
			<point x="817" y="388"/>
		</contour>
	</outline>
</glyph>
<glyph name="exclamdown" format="2">
	<advance width="252"/>
	<unicode hex="00A1"/>
	<note>
		exclamdown
	</note>
	<outline>
		<contour>
			<point x="79" y="327"/>
			<point x="78" y="302" type="curve" smooth="yes"/>
			<point x="68" y="-107" type="line" smooth="yes"/>
			<point x="67" y="-139"/>
			<point x="93" y="-166"/>
			<point x="126" y="-166" type="curve" smooth="yes"/>
			<point x="158" y="-166"/>
			<point x="184" y="-139"/>
			<point x="183" y="-107" type="curve" smooth="yes"/>
			<point x="173" y="302" type="line" smooth="yes"/>
			<point x="172" y="327"/>
			<point x="151" y="349"/>
			<point x="125" y="349" type="curve" smooth="yes"/>
			<point x="100" y="349"/>
		</contour>
		<contour>
			<point x="88" y="423"/>
			<point x="109" y="410" type="curve" smooth="yes"/>
			<point x="134" y="395"/>
			<point x="160" y="402"/>
			<point x="176" y="426" type="curve" smooth="yes"/>
			<point x="184" y="439"/>
			<point x="189" y="455"/>
			<point x="189" y="472" type="curve" smooth="yes"/>
			<point x="189" y="489"/>
			<point x="184" y="505"/>
			<point x="176" y="518" type="curve" smooth="yes"/>
			<point x="160" y="542"/>
			<point x="134" y="549"/>
			<point x="109" y="534" type="curve" smooth="yes"/>
			<point x="88" y="521"/>
			<point x="74" y="498"/>
			<point x="74" y="472" type="curve" smooth="yes"/>
			<point x="74" y="446"/>
		</contour>
	</outline>
</glyph>
<glyph name="copyright" format="2">
	<advance width="844"/>
	<unicode hex="00A9"/>
	<note>
		copyright
	</note>
	<outline>
		<contour>
			<point x="422" y="748" type="curve" smooth="yes"/>
			<point x="200" y="748"/>
			<point x="31" y="579"/>
			<point x="31" y="355" type="curve" smooth="yes"/>
			<point x="31" y="131"/>
			<point x="200" y="-38"/>
			<point x="422" y="-38" type="curve" smooth="yes"/>
			<point x="644" y="-38"/>
			<point x="813" y="131"/>
			<point x="813" y="355" type="curve" smooth="yes"/>
			<point x="813" y="579"/>
			<point x="644" y="748"/>
		</contour>
		<contour>
			<point x="422" y="680" type="curve" smooth="yes"/>
			<point x="602" y="680"/>
			<point x="739" y="540"/>
			<point x="739" y="355" type="curve" smooth="yes"/>
			<point x="739" y="169"/>
			<point x="602" y="30"/>
			<point x="422" y="30" type="curve" smooth="yes"/>
			<point x="241" y="30"/>
			<point x="105" y="169"/>
			<point x="105" y="355" type="curve" smooth="yes"/>
			<point x="105" y="540"/>
			<point x="241" y="680"/>
		</contour>
		<contour>
			<point x="429" y="585" type="curve" smooth="yes"/>
			<point x="297" y="585"/>
			<point x="209" y="496"/>
			<point x="209" y="354" type="curve" smooth="yes"/>
			<point x="209" y="214"/>
			<point x="296" y="125"/>
			<point x="420" y="125" type="curve" smooth="yes"/>
			<point x="512" y="125"/>
			<point x="572" y="163"/>
			<point x="605" y="227" type="curve" smooth="yes"/>
			<point x="608" y="233"/>
			<point x="610" y="241"/>
			<point x="610" y="249" type="curve" smooth="yes"/>
			<point x="610" y="276"/>
			<point x="589" y="298"/>
			<point x="562" y="298" type="curve" smooth="yes"/>
			<point x="540" y="298"/>
			<point x="523" y="284"/>
			<point x="516" y="265" type="curve" smooth="yes"/>
			<point x="501" y="225"/>
			<point x="470" y="201"/>
			<point x="428" y="201" type="curve" smooth="yes"/>
			<point x="362" y="201"/>
			<point x="320" y="259"/>
			<point x="320" y="356" type="curve" smooth="yes"/>
			<point x="320" y="449"/>
			<point x="356" y="509"/>
			<point x="427" y="509" type="curve" smooth="yes"/>
			<point x="476" y="509"/>
			<point x="503" y="484"/>
			<point x="516" y="445" type="curve" smooth="yes"/>
			<point x="522" y="426"/>
			<point x="541" y="411"/>
			<point x="563" y="411" type="curve" smooth="yes"/>
			<point x="590" y="411"/>
			<point x="612" y="433"/>
			<point x="612" y="461" type="curve" smooth="yes"/>
			<point x="612" y="469"/>
			<point x="611" y="476"/>
			<point x="608" y="483" type="curve" smooth="yes"/>
			<point x="575" y="547"/>
			<point x="515" y="585"/>
		</contour>
	</outline>
</glyph>
<glyph name="logicalnot" format="2">
	<advance width="601"/>
	<unicode hex="00AC"/>
	<note>
		logicalnot
	</note>
	<outline>
		<contour>
			<point x="485" y="211"/>
			<point x="485" y="230" type="curve" smooth="yes"/>
			<point x="485" y="330" type="line" smooth="yes"/>
			<point x="485" y="367"/>
			<point x="464" y="388"/>
			<point x="427" y="388" type="curve" smooth="yes"/>
			<point x="133" y="388" type="line" smooth="yes"/>
			<point x="115" y="388"/>
			<point x="100" y="373"/>
			<point x="100" y="355" type="curve" smooth="yes"/>
			<point x="100" y="337"/>
			<point x="115" y="322"/>
			<point x="133" y="322" type="curve" smooth="yes"/>
			<point x="416" y="322" type="line"/>
			<point x="416" y="230" type="line" smooth="yes"/>
			<point x="416" y="211"/>
			<point x="431" y="196"/>
			<point x="451" y="196" type="curve" smooth="yes"/>
			<point x="470" y="196"/>
		</contour>
	</outline>
</glyph>
<glyph name="paragraph" format="2">
	<advance width="579"/>
	<unicode hex="00B6"/>
	<note>
		paragraph
	</note>
	<outline>
		<contour>
			<point x="507" y="-81" type="curve" smooth="yes"/>
			<point x="507" y="632" type="line" smooth="yes"/>
			<point x="507" y="669"/>
			<point x="486" y="690"/>
			<point x="449" y="690" type="curve" smooth="yes"/>
			<point x="256" y="690" type="line" smooth="yes"/>
			<point x="238" y="690"/>
			<point x="217" y="690"/>
			<point x="200" y="689" type="curve" smooth="yes"/>
			<point x="98" y="683"/>
			<point x="43" y="600"/>
			<point x="43" y="505" type="curve" smooth="yes"/>
			<point x="43" y="410"/>
			<point x="98" y="327"/>
			<point x="200" y="321" type="curve" smooth="yes"/>
			<point x="217" y="320"/>
			<point x="238" y="320"/>
			<point x="256" y="320" type="curve" smooth="yes"/>
			<point x="273" y="320" type="line"/>
			<point x="273" y="-81" type="line" smooth="yes"/>
			<point x="273" y="-99"/>
			<point x="288" y="-116"/>
			<point x="307" y="-116" type="curve" smooth="yes"/>
			<point x="326" y="-116"/>
			<point x="341" y="-99"/>
			<point x="341" y="-81" type="curve" smooth="yes"/>
			<point x="341" y="624" type="line"/>
			<point x="439" y="624" type="line"/>
			<point x="439" y="-81" type="line" smooth="yes"/>
			<point x="439" y="-99"/>
			<point x="454" y="-116"/>
			<point x="473" y="-116" type="curve" smooth="yes"/>
			<point x="492" y="-116"/>
			<point x="507" y="-99"/>
		</contour>
	</outline>
</glyph>
<glyph name="guillemotright" format="2">
	<advance width="584"/>
	<unicode hex="00BB"/>
	<note>
		guillemotright
	</note>
	<outline>
		<contour>
			<point x="147" y="89" type="curve" smooth="yes"/>
			<point x="244" y="207" type="line" smooth="yes"/>
			<point x="266" y="234"/>
			<point x="266" y="262"/>
			<point x="244" y="289" type="curve" smooth="yes"/>
			<point x="147" y="407" type="line" smooth="yes"/>
			<point x="141" y="415"/>
			<point x="131" y="420"/>
			<point x="121" y="420" type="curve" smooth="yes"/>
			<point x="102" y="420"/>
			<point x="87" y="404"/>
			<point x="87" y="386" type="curve" smooth="yes"/>
			<point x="87" y="378"/>
			<point x="90" y="370"/>
			<point x="95" y="365" type="curve" smooth="yes"/>
			<point x="191" y="248" type="line"/>
			<point x="95" y="131" type="line" smooth="yes"/>
			<point x="90" y="126"/>
			<point x="87" y="118"/>
			<point x="87" y="110" type="curve" smooth="yes"/>
			<point x="87" y="92"/>
			<point x="102" y="76"/>
			<point x="121" y="76" type="curve" smooth="yes"/>
			<point x="131" y="76"/>
			<point x="141" y="81"/>
		</contour>
		<contour>
			<point x="334" y="89" type="curve" smooth="yes"/>
			<point x="431" y="207" type="line" smooth="yes"/>
			<point x="453" y="234"/>
			<point x="453" y="262"/>
			<point x="431" y="289" type="curve" smooth="yes"/>
			<point x="334" y="407" type="line" smooth="yes"/>
			<point x="328" y="415"/>
			<point x="318" y="420"/>
			<point x="308" y="420" type="curve" smooth="yes"/>
			<point x="289" y="420"/>
			<point x="274" y="404"/>
			<point x="274" y="386" type="curve" smooth="yes"/>
			<point x="274" y="378"/>
			<point x="277" y="370"/>
			<point x="282" y="365" type="curve" smooth="yes"/>
			<point x="378" y="248" type="line"/>
			<point x="282" y="131" type="line" smooth="yes"/>
			<point x="277" y="126"/>
			<point x="274" y="118"/>
			<point x="274" y="110" type="curve" smooth="yes"/>
			<point x="274" y="92"/>
			<point x="289" y="76"/>
			<point x="308" y="76" type="curve" smooth="yes"/>
			<point x="318" y="76"/>
			<point x="328" y="81"/>
		</contour>
	</outline>
</glyph>
<glyph name="questiondown" format="2">
	<advance width="508"/>
	<unicode hex="00BF"/>
	<note>
		questiondown
	</note>
	<outline>
		<contour>
			<point x="279" y="-173" type="curve" smooth="yes"/>
			<point x="391" y="-173"/>
			<point x="474" y="-118"/>
			<point x="503" y="-24" type="curve" smooth="yes"/>
			<point x="504" y="-19"/>
			<point x="505" y="-13"/>
			<point x="505" y="-7" type="curve" smooth="yes"/>
			<point x="505" y="23"/>
			<point x="480" y="48"/>
			<point x="450" y="48" type="curve" smooth="yes"/>
			<point x="423" y="48"/>
			<point x="402" y="30"/>
			<point x="396" y="5" type="curve" smooth="yes"/>
			<point x="381" y="-58"/>
			<point x="341" y="-89"/>
			<point x="284" y="-89" type="curve" smooth="yes"/>
			<point x="218" y="-89"/>
			<point x="181" y="-48"/>
			<point x="181" y="16" type="curve" smooth="yes"/>
			<point x="181" y="70"/>
			<point x="203" y="108"/>
			<point x="270" y="183" type="curve" smooth="yes"/>
			<point x="304" y="221"/>
			<point x="324" y="250"/>
			<point x="335" y="285" type="curve" smooth="yes"/>
			<point x="336" y="289"/>
			<point x="337" y="295"/>
			<point x="337" y="300" type="curve" smooth="yes"/>
			<point x="337" y="328"/>
			<point x="315" y="350"/>
			<point x="287" y="350" type="curve" smooth="yes"/>
			<point x="264" y="350"/>
			<point x="244" y="334"/>
			<point x="239" y="313" type="curve" smooth="yes"/>
			<point x="231" y="279"/>
			<point x="211" y="253"/>
			<point x="167" y="211" type="curve" smooth="yes"/>
			<point x="96" y="144"/>
			<point x="62" y="85"/>
			<point x="62" y="13" type="curve" smooth="yes"/>
			<point x="62" y="-96"/>
			<point x="140" y="-173"/>
		</contour>
		<contour>
			<point x="254" y="421"/>
			<point x="275" y="408" type="curve" smooth="yes"/>
			<point x="299" y="394"/>
			<point x="325" y="400"/>
			<point x="342" y="422" type="curve" smooth="yes"/>
			<point x="353" y="435"/>
			<point x="359" y="452"/>
			<point x="359" y="471" type="curve" smooth="yes"/>
			<point x="359" y="490"/>
			<point x="353" y="507"/>
			<point x="342" y="520" type="curve" smooth="yes"/>
			<point x="325" y="542"/>
			<point x="299" y="548"/>
			<point x="275" y="534" type="curve" smooth="yes"/>
			<point x="254" y="521"/>
			<point x="239" y="498"/>
			<point x="239" y="471" type="curve" smooth="yes"/>
			<point x="239" y="444"/>
		</contour>
	</outline>
</glyph>
<glyph name="Aacute" format="2">
	<advance width="656"/>
	<unicode hex="00C1"/>
	<note>
		Aacute
	</note>
	<outline>
		<contour>
			<point x="368" y="733"/>
			<point x="373" y="739" type="curve" smooth="yes"/>
			<point x="428" y="797" type="line" smooth="yes"/>
			<point x="432" y="802"/>
			<point x="436" y="808"/>
			<point x="436" y="816" type="curve" smooth="yes"/>
			<point x="436" y="833"/>
			<point x="420" y="845"/>
			<point x="404" y="843" type="curve" smooth="yes"/>
			<point x="361" y="837"/>
			<point x="326" y="802"/>
			<point x="324" y="759" type="curve" smooth="yes"/>
			<point x="324" y="743"/>
			<point x="336" y="731"/>
			<point x="352" y="731" type="curve" smooth="yes"/>
			<point x="361" y="731"/>
		</contour>
		<contour>
			<point x="215" y="228" type="line"/>
			<point x="460" y="228" type="line"/>
			<point x="524" y="33" type="line" smooth="yes"/>
			<point x="531" y="10"/>
			<point x="552" y="-6"/>
			<point x="577" y="-6" type="curve" smooth="yes"/>
			<point x="608" y="-6"/>
			<point x="633" y="20"/>
			<point x="633" y="50" type="curve" smooth="yes"/>
			<point x="633" y="57"/>
			<point x="632" y="64"/>
			<point x="630" y="69" type="curve" smooth="yes"/>
			<point x="429" y="643" type="line" smooth="yes"/>
			<point x="418" y="674"/>
			<point x="396" y="690"/>
			<point x="363" y="690" type="curve" smooth="yes"/>
			<point x="320" y="690" type="line" smooth="yes"/>
			<point x="287" y="690"/>
			<point x="265" y="676"/>
			<point x="254" y="644" type="curve" smooth="yes"/>
			<point x="47" y="68" type="line" smooth="yes"/>
			<point x="45" y="63"/>
			<point x="44" y="56"/>
			<point x="44" y="49" type="curve" smooth="yes"/>
			<point x="44" y="19"/>
			<point x="69" y="-6"/>
			<point x="99" y="-6" type="curve" smooth="yes"/>
			<point x="123" y="-6"/>
			<point x="144" y="11"/>
			<point x="151" y="32" type="curve" smooth="yes"/>
		</contour>
		<contour>
			<point x="431" y="315" type="line"/>
			<point x="244" y="315" type="line"/>
			<point x="340" y="599" type="line"/>
		</contour>
	</outline>
</glyph>
<glyph name="Ecircumflex" format="2">
	<advance width="600"/>
	<unicode hex="00CA"/>
	<note>
		Ecircumflex
	</note>
	<outline>
		<contour>
			<point x="307" y="737"/>
			<point x="312" y="747" type="curve" smooth="yes"/>
			<point x="337" y="796" type="line"/>
			<point x="353" y="766" type="line" smooth="yes"/>
			<point x="363" y="747"/>
			<point x="403" y="741"/>
			<point x="408" y="780" type="curve" smooth="yes"/>
			<point x="409" y="782"/>
			<point x="409" y="785"/>
			<point x="409" y="787" type="curve" smooth="yes"/>
			<point x="409" y="816"/>
			<point x="386" y="839"/>
			<point x="357" y="839" type="curve" smooth="yes"/>
			<point x="328" y="839"/>
			<point x="305" y="816"/>
			<point x="305" y="787" type="curve" smooth="yes"/>
			<point x="305" y="766"/>
			<point x="313" y="787"/>
			<point x="326" y="808" type="curve" smooth="yes"/>
			<point x="338" y="827"/>
			<point x="345" y="838"/>
			<point x="334" y="838" type="curve" smooth="yes"/>
			<point x="291" y="838"/>
			<point x="255" y="803"/>
			<point x="253" y="761" type="curve" smooth="yes"/>
			<point x="253" y="744"/>
			<point x="267" y="730"/>
			<point x="284" y="730" type="curve" smooth="yes"/>
			<point x="296" y="730"/>
		</contour>
		<contour>
			<point x="558" y="88"/>
			<point x="534" y="88" type="curve" smooth="yes"/>
			<point x="205" y="88" type="line"/>
			<point x="205" y="302" type="line"/>
			<point x="496" y="302" type="line" smooth="yes"/>
			<point x="520" y="302"/>
			<point x="540" y="321"/>
			<point x="540" y="346" type="curve" smooth="yes"/>
			<point x="540" y="370"/>
			<point x="520" y="389"/>
			<point x="496" y="389" type="curve" smooth="yes"/>
			<point x="205" y="389" type="line"/>
			<point x="205" y="603" type="line"/>
			<point x="524" y="603" type="line" smooth="yes"/>
			<point x="548" y="603"/>
			<point x="568" y="622"/>
			<point x="568" y="647" type="curve" smooth="yes"/>
			<point x="568" y="671"/>
			<point x="548" y="690"/>
			<point x="524" y="690" type="curve" smooth="yes"/>
			<point x="153" y="690" type="line" smooth="yes"/>
			<point x="116" y="690"/>
			<point x="95" y="669"/>
			<point x="95" y="632" type="curve" smooth="yes"/>
			<point x="95" y="58" type="line" smooth="yes"/>
			<point x="95" y="21"/>
			<point x="116" y="0"/>
			<point x="153" y="0" type="curve" smooth="yes"/>
			<point x="534" y="0" type="line" smooth="yes"/>
			<point x="558" y="0"/>
			<point x="578" y="20"/>
			<point x="578" y="44" type="curve" smooth="yes"/>
			<point x="578" y="68"/>
		</contour>
	</outline>
</glyph>
<glyph name="Edieresis" format="2">
	<advance width="600"/>
	<unicode hex="00CB"/>
	<note>
		Edieresis
	</note>
	<outline>
		<contour>
			<point x="558" y="88"/>
			<point x="534" y="88" type="curve" smooth="yes"/>
			<point x="205" y="88" type="line"/>
			<point x="205" y="302" type="line"/>
			<point x="496" y="302" type="line" smooth="yes"/>
			<point x="520" y="302"/>
			<point x="540" y="321"/>
			<point x="540" y="346" type="curve" smooth="yes"/>
			<point x="540" y="370"/>
			<point x="520" y="389"/>
			<point x="496" y="389" type="curve" smooth="yes"/>
			<point x="205" y="389" type="line"/>
			<point x="205" y="603" type="line"/>
			<point x="524" y="603" type="line" smooth="yes"/>
			<point x="548" y="603"/>
			<point x="568" y="622"/>
			<point x="568" y="647" type="curve" smooth="yes"/>
			<point x="568" y="671"/>
			<point x="548" y="690"/>
			<point x="524" y="690" type="curve" smooth="yes"/>
			<point x="153" y="690" type="line" smooth="yes"/>
			<point x="116" y="690"/>
			<point x="95" y="669"/>
			<point x="95" y="632" type="curve" smooth="yes"/>
			<point x="95" y="58" type="line" smooth="yes"/>
			<point x="95" y="21"/>
			<point x="116" y="0"/>
			<point x="153" y="0" type="curve" smooth="yes"/>
			<point x="534" y="0" type="line" smooth="yes"/>
			<point x="558" y="0"/>
			<point x="578" y="20"/>
			<point x="578" y="44" type="curve" smooth="yes"/>
			<point x="578" y="68"/>
		</contour>
		<contour>
			<point x="223" y="730"/>
			<point x="252" y="730" type="curve" smooth="yes"/>
			<point x="266" y="730" type="line" smooth="yes"/>
			<point x="294" y="730"/>
			<point x="318" y="753"/>
			<point x="318" y="781" type="curve" smooth="yes"/>
			<point x="318" y="788"/>
			<point x="316" y="795"/>
			<point x="314" y="800" type="curve" smooth="yes"/>
			<point x="305" y="823"/>
			<point x="284" y="841"/>
			<point x="258" y="841" type="curve" smooth="yes"/>
			<point x="248" y="841"/>
			<point x="239" y="838"/>
			<point x="232" y="834" type="curve" smooth="yes"/>
			<point x="213" y="824"/>
			<point x="199" y="805"/>
			<point x="199" y="783" type="curve" smooth="yes"/>
			<point x="199" y="754"/>
		</contour>
		<contour>
			<point x="378" y="730"/>
			<point x="407" y="730" type="curve" smooth="yes"/>
			<point x="421" y="730" type="line" smooth="yes"/>
			<point x="449" y="730"/>
			<point x="473" y="753"/>
			<point x="473" y="781" type="curve" smooth="yes"/>
			<point x="473" y="788"/>
			<point x="471" y="795"/>
			<point x="469" y="800" type="curve" smooth="yes"/>
			<point x="460" y="823"/>
			<point x="439" y="841"/>
			<point x="413" y="841" type="curve" smooth="yes"/>
			<point x="403" y="841"/>
			<point x="394" y="838"/>
			<point x="387" y="834" type="curve" smooth="yes"/>
			<point x="368" y="824"/>
			<point x="354" y="805"/>
			<point x="354" y="783" type="curve" smooth="yes"/>
			<point x="354" y="754"/>
		</contour>
	</outline>
</glyph>
<glyph name="Iacute" format="2">
	<advance width="277"/>
	<unicode hex="00CD"/>
	<note>
		Iacute
	</note>
	<outline>
		<contour>
			<point x="176" y="733"/>
			<point x="181" y="739" type="curve" smooth="yes"/>
			<point x="236" y="797" type="line" smooth="yes"/>
			<point x="240" y="802"/>
			<point x="244" y="808"/>
			<point x="244" y="816" type="curve" smooth="yes"/>
			<point x="244" y="833"/>
			<point x="228" y="845"/>
			<point x="212" y="843" type="curve" smooth="yes"/>
			<point x="169" y="837"/>
			<point x="134" y="802"/>
			<point x="132" y="759" type="curve" smooth="yes"/>
			<point x="132" y="743"/>
			<point x="144" y="731"/>
			<point x="160" y="731" type="curve" smooth="yes"/>
			<point x="169" y="731"/>
		</contour>
		<contour>
			<point x="205" y="20"/>
			<point x="205" y="50" type="curve" smooth="yes"/>
			<point x="205" y="641" type="line" smooth="yes"/>
			<point x="205" y="671"/>
			<point x="180" y="696"/>
			<point x="150" y="696" type="curve" smooth="yes"/>
			<point x="120" y="696"/>
			<point x="95" y="671"/>
			<point x="95" y="641" type="curve" smooth="yes"/>
			<point x="95" y="50" type="line" smooth="yes"/>
			<point x="95" y="20"/>
			<point x="120" y="-6"/>
			<point x="150" y="-6" type="curve" smooth="yes"/>
			<point x="180" y="-6"/>
		</contour>
	</outline>
</glyph>
<glyph name="Idieresis" format="2">
	<advance width="277"/>
	<unicode hex="00CF"/>
	<note>
		Idieresis
	</note>
	<outline>
		<contour>
			<point x="205" y="20"/>
			<point x="205" y="50" type="curve" smooth="yes"/>
			<point x="205" y="641" type="line" smooth="yes"/>
			<point x="205" y="671"/>
			<point x="180" y="696"/>
			<point x="150" y="696" type="curve" smooth="yes"/>
			<point x="120" y="696"/>
			<point x="95" y="671"/>
			<point x="95" y="641" type="curve" smooth="yes"/>
			<point x="95" y="50" type="line" smooth="yes"/>
			<point x="95" y="20"/>
			<point x="120" y="-6"/>
			<point x="150" y="-6" type="curve" smooth="yes"/>
			<point x="180" y="-6"/>
		</contour>
		<contour>
			<point x="37" y="733"/>
			<point x="66" y="733" type="curve" smooth="yes"/>
			<point x="80" y="733" type="line" smooth="yes"/>
			<point x="108" y="733"/>
			<point x="132" y="756"/>
			<point x="132" y="784" type="curve" smooth="yes"/>
			<point x="132" y="791"/>
			<point x="130" y="798"/>
			<point x="128" y="803" type="curve" smooth="yes"/>
			<point x="119" y="826"/>
			<point x="98" y="844"/>
			<point x="72" y="844" type="curve" smooth="yes"/>
			<point x="62" y="844"/>
			<point x="53" y="841"/>
			<point x="46" y="837" type="curve" smooth="yes"/>
			<point x="27" y="827"/>
			<point x="13" y="808"/>
			<point x="13" y="786" type="curve" smooth="yes"/>
			<point x="13" y="757"/>
		</contour>
		<contour>
			<point x="192" y="733"/>
			<point x="221" y="733" type="curve" smooth="yes"/>
			<point x="235" y="733" type="line" smooth="yes"/>
			<point x="263" y="733"/>
			<point x="287" y="756"/>
			<point x="287" y="784" type="curve" smooth="yes"/>
			<point x="287" y="791"/>
			<point x="285" y="798"/>
			<point x="283" y="803" type="curve" smooth="yes"/>
			<point x="274" y="826"/>
			<point x="253" y="844"/>
			<point x="227" y="844" type="curve" smooth="yes"/>
			<point x="217" y="844"/>
			<point x="208" y="841"/>
			<point x="201" y="837" type="curve" smooth="yes"/>
			<point x="182" y="827"/>
			<point x="168" y="808"/>
			<point x="168" y="786" type="curve" smooth="yes"/>
			<point x="168" y="757"/>
		</contour>
	</outline>
</glyph>
<glyph name="Eth" format="2">
	<advance width="716"/>
	<unicode hex="00D0"/>
	<note>
		Eth
	</note>
	<outline>
		<contour>
			<point x="402" y="686" type="curve" smooth="yes"/>
			<point x="367" y="690"/>
			<point x="351" y="690"/>
			<point x="314" y="690" type="curve" smooth="yes"/>
			<point x="150" y="690" type="line" smooth="yes"/>
			<point x="113" y="690"/>
			<point x="92" y="669"/>
			<point x="92" y="632" type="curve" smooth="yes"/>
			<point x="92" y="368" type="line"/>
			<point x="61" y="368" type="line" smooth="yes"/>
			<point x="43" y="368"/>
			<point x="28" y="353"/>
			<point x="28" y="335" type="curve" smooth="yes"/>
			<point x="28" y="317"/>
			<point x="43" y="302"/>
			<point x="61" y="302" type="curve" smooth="yes"/>
			<point x="92" y="302" type="line"/>
			<point x="92" y="58" type="line" smooth="yes"/>
			<point x="92" y="21"/>
			<point x="113" y="0"/>
			<point x="150" y="0" type="curve" smooth="yes"/>
			<point x="311" y="0" type="line" smooth="yes"/>
			<point x="348" y="0"/>
			<point x="364" y="0"/>
			<point x="399" y="4" type="curve" smooth="yes"/>
			<point x="559" y="24"/>
			<point x="680" y="147"/>
			<point x="680" y="353" type="curve" smooth="yes"/>
			<point x="680" y="562"/>
			<point x="562" y="667"/>
		</contour>
		<contour>
			<point x="380" y="92" type="curve" smooth="yes"/>
			<point x="358" y="88"/>
			<point x="334" y="88"/>
			<point x="301" y="88" type="curve" smooth="yes"/>
			<point x="201" y="88" type="line"/>
			<point x="201" y="302" type="line"/>
			<point x="302" y="302" type="line" smooth="yes"/>
			<point x="320" y="302"/>
			<point x="335" y="317"/>
			<point x="335" y="335" type="curve" smooth="yes"/>
			<point x="335" y="353"/>
			<point x="320" y="368"/>
			<point x="302" y="368" type="curve" smooth="yes"/>
			<point x="201" y="368" type="line"/>
			<point x="201" y="603" type="line"/>
			<point x="304" y="603" type="line" smooth="yes"/>
			<point x="338" y="603"/>
			<point x="361" y="602"/>
			<point x="384" y="598" type="curve" smooth="yes"/>
			<point x="494" y="582"/>
			<point x="563" y="498"/>
			<point x="563" y="353" type="curve" smooth="yes"/>
			<point x="563" y="200"/>
			<point x="490" y="108"/>
		</contour>
	</outline>
</glyph>
<glyph name="Odieresis" format="2">
	<advance width="750"/>
	<unicode hex="00D6"/>
	<note>
		Odieresis
	</note>
	<outline>
		<contour>
			<point x="382" y="704" type="curve" smooth="yes"/>
			<point x="170" y="704"/>
			<point x="49" y="559"/>
			<point x="49" y="345" type="curve" smooth="yes"/>
			<point x="49" y="132"/>
			<point x="170" y="-14"/>
			<point x="382" y="-14" type="curve" smooth="yes"/>
			<point x="593" y="-14"/>
			<point x="714" y="132"/>
			<point x="714" y="345" type="curve" smooth="yes"/>
			<point x="714" y="559"/>
			<point x="593" y="704"/>
		</contour>
		<contour>
			<point x="382" y="70" type="curve" smooth="yes"/>
			<point x="247" y="70"/>
			<point x="167" y="174"/>
			<point x="167" y="345" type="curve" smooth="yes"/>
			<point x="167" y="517"/>
			<point x="247" y="620"/>
			<point x="382" y="620" type="curve" smooth="yes"/>
			<point x="516" y="620"/>
			<point x="596" y="517"/>
			<point x="596" y="345" type="curve" smooth="yes"/>
			<point x="596" y="174"/>
			<point x="516" y="70"/>
		</contour>
		<contour>
			<point x="273" y="733"/>
			<point x="302" y="733" type="curve" smooth="yes"/>
			<point x="316" y="733" type="line" smooth="yes"/>
			<point x="344" y="733"/>
			<point x="368" y="756"/>
			<point x="368" y="784" type="curve" smooth="yes"/>
			<point x="368" y="791"/>
			<point x="366" y="798"/>
			<point x="364" y="803" type="curve" smooth="yes"/>
			<point x="355" y="826"/>
			<point x="334" y="844"/>
			<point x="308" y="844" type="curve" smooth="yes"/>
			<point x="298" y="844"/>
			<point x="289" y="841"/>
			<point x="282" y="837" type="curve" smooth="yes"/>
			<point x="263" y="827"/>
			<point x="249" y="808"/>
			<point x="249" y="786" type="curve" smooth="yes"/>
			<point x="249" y="757"/>
		</contour>
		<contour>
			<point x="428" y="733"/>
			<point x="457" y="733" type="curve" smooth="yes"/>
			<point x="471" y="733" type="line" smooth="yes"/>
			<point x="499" y="733"/>
			<point x="522" y="756"/>
			<point x="522" y="784" type="curve" smooth="yes"/>
			<point x="522" y="790"/>
			<point x="521" y="796"/>
			<point x="519" y="802" type="curve" smooth="yes"/>
			<point x="510" y="826"/>
			<point x="489" y="845"/>
			<point x="463" y="845" type="curve" smooth="yes"/>
			<point x="453" y="845"/>
			<point x="444" y="841"/>
			<point x="437" y="837" type="curve" smooth="yes"/>
			<point x="418" y="827"/>
			<point x="404" y="808"/>
			<point x="404" y="786" type="curve" smooth="yes"/>
			<point x="404" y="757"/>
		</contour>
	</outline>
</glyph>
<glyph name="germandbls" format="2">
	<advance width="623"/>
	<unicode hex="00DF"/>
	<note>
		germandbls
	</note>
	<outline>
		<contour>
			<point x="313" y="754" type="curve" smooth="yes"/>
			<point x="180" y="754"/>
			<point x="79" y="683"/>
			<point x="71" y="542" type="curve" smooth="yes"/>
			<point x="70" y="524"/>
			<point x="69" y="498"/>
			<point x="69" y="468" type="curve" smooth="yes"/>
			<point x="69" y="50" type="line" smooth="yes"/>
			<point x="69" y="20"/>
			<point x="94" y="-6"/>
			<point x="124" y="-6" type="curve" smooth="yes"/>
			<point x="154" y="-6"/>
			<point x="179" y="20"/>
			<point x="179" y="50" type="curve" smooth="yes"/>
			<point x="179" y="476" type="line" smooth="yes"/>
			<point x="179" y="507"/>
			<point x="180" y="526"/>
			<point x="181" y="540" type="curve" smooth="yes"/>
			<point x="187" y="626"/>
			<point x="238" y="670"/>
			<point x="309" y="670" type="curve" smooth="yes"/>
			<point x="388" y="670"/>
			<point x="426" y="633"/>
			<point x="426" y="573" type="curve" smooth="yes"/>
			<point x="426" y="552"/>
			<point x="422" y="535"/>
			<point x="409" y="514" type="curve"/>
			<point x="350" y="483"/>
			<point x="325" y="446"/>
			<point x="325" y="398" type="curve" smooth="yes"/>
			<point x="325" y="341"/>
			<point x="349" y="311"/>
			<point x="408" y="257" type="curve" smooth="yes"/>
			<point x="456" y="214"/>
			<point x="467" y="187"/>
			<point x="467" y="156" type="curve" smooth="yes"/>
			<point x="467" y="109"/>
			<point x="440" y="79"/>
			<point x="381" y="79" type="curve" smooth="yes"/>
			<point x="367" y="79"/>
			<point x="351" y="80"/>
			<point x="329" y="83" type="curve" smooth="yes"/>
			<point x="304" y="87"/>
			<point x="281" y="67"/>
			<point x="281" y="42" type="curve" smooth="yes"/>
			<point x="281" y="20"/>
			<point x="298" y="3"/>
			<point x="318" y="0" type="curve" smooth="yes"/>
			<point x="343" y="-3"/>
			<point x="365" y="-4"/>
			<point x="395" y="-4" type="curve" smooth="yes"/>
			<point x="498" y="-4"/>
			<point x="586" y="49"/>
			<point x="586" y="145" type="curve" smooth="yes"/>
			<point x="586" y="218"/>
			<point x="561" y="256"/>
			<point x="504" y="305" type="curve" smooth="yes"/>
			<point x="462" y="342"/>
			<point x="444" y="364"/>
			<point x="444" y="398" type="curve" smooth="yes"/>
			<point x="444" y="418"/>
			<point x="456" y="437"/>
			<point x="482" y="455" type="curve" smooth="yes"/>
			<point x="505" y="472"/>
			<point x="522" y="484"/>
			<point x="533" y="510" type="curve" smooth="yes"/>
			<point x="541" y="532"/>
			<point x="545" y="554"/>
			<point x="545" y="574" type="curve" smooth="yes"/>
			<point x="545" y="682"/>
			<point x="458" y="754"/>
		</contour>
	</outline>
</glyph>
<glyph name="ae" format="2">
	<advance width="910"/>
	<unicode hex="00E6"/>
	<note>
		ae
	</note>
	<outline>
		<contour>
			<point x="874" y="279" type="curve" smooth="yes"/>
			<point x="874" y="429"/>
			<point x="790" y="545"/>
			<point x="639" y="545" type="curve" smooth="yes"/>
			<point x="556" y="545"/>
			<point x="492" y="511"/>
			<point x="451" y="450" type="curve"/>
			<point x="425" y="511"/>
			<point x="369" y="545"/>
			<point x="271" y="545" type="curve" smooth="yes"/>
			<point x="172" y="545"/>
			<point x="99" y="505"/>
			<point x="70" y="430" type="curve" smooth="yes"/>
			<point x="68" y="424"/>
			<point x="66" y="418"/>
			<point x="66" y="411" type="curve" smooth="yes"/>
			<point x="66" y="381"/>
			<point x="90" y="357"/>
			<point x="120" y="357" type="curve" smooth="yes"/>
			<point x="145" y="357"/>
			<point x="166" y="374"/>
			<point x="172" y="396" type="curve" smooth="yes"/>
			<point x="185" y="442"/>
			<point x="218" y="465"/>
			<point x="272" y="465" type="curve" smooth="yes"/>
			<point x="347" y="465"/>
			<point x="378" y="415"/>
			<point x="378" y="334" type="curve" smooth="yes"/>
			<point x="378" y="312" type="line"/>
			<point x="338" y="312" type="line" smooth="yes"/>
			<point x="139" y="312"/>
			<point x="35" y="261"/>
			<point x="35" y="140" type="curve" smooth="yes"/>
			<point x="35" y="40"/>
			<point x="117" y="-14"/>
			<point x="221" y="-14" type="curve" smooth="yes"/>
			<point x="268" y="-14"/>
			<point x="313" y="-5"/>
			<point x="354" y="20" type="curve" smooth="yes"/>
			<point x="377" y="34"/>
			<point x="389" y="49"/>
			<point x="403" y="72" type="curve" smooth="yes"/>
			<point x="421" y="103" type="line"/>
			<point x="463" y="19"/>
			<point x="537" y="-14"/>
			<point x="626" y="-14" type="curve" smooth="yes"/>
			<point x="717" y="-14"/>
			<point x="797" y="23"/>
			<point x="840" y="101" type="curve" smooth="yes"/>
			<point x="844" y="109"/>
			<point x="846" y="117"/>
			<point x="846" y="126" type="curve" smooth="yes"/>
			<point x="846" y="155"/>
			<point x="823" y="178"/>
			<point x="794" y="178" type="curve" smooth="yes"/>
			<point x="772" y="178"/>
			<point x="752" y="164"/>
			<point x="745" y="144" type="curve" smooth="yes"/>
			<point x="726" y="93"/>
			<point x="683" y="66"/>
			<point x="629" y="66" type="curve" smooth="yes"/>
			<point x="558" y="66"/>
			<point x="500" y="114"/>
			<point x="492" y="235" type="curve"/>
			<point x="815" y="235" type="line" smooth="yes"/>
			<point x="851" y="235"/>
			<point x="874" y="279"/>
		</contour>
		<contour>
			<point x="761" y="312" type="curve"/>
			<point x="493" y="312" type="line"/>
			<point x="505" y="413"/>
			<point x="557" y="465"/>
			<point x="633" y="465" type="curve" smooth="yes"/>
			<point x="710" y="465"/>
			<point x="752" y="410"/>
		</contour>
		<contour>
			<point x="378" y="235" type="curve"/>
			<point x="378" y="210" type="line" smooth="yes"/>
			<point x="378" y="121"/>
			<point x="322" y="66"/>
			<point x="249" y="66" type="curve" smooth="yes"/>
			<point x="188" y="66"/>
			<point x="151" y="92"/>
			<point x="151" y="149" type="curve" smooth="yes"/>
			<point x="151" y="225"/>
			<point x="233" y="241"/>
		</contour>
	</outline>
</glyph>
<glyph name="ntilde" format="2">
	<advance width="606"/>
	<unicode hex="00F1"/>
	<note>
		ntilde
	</note>
	<outline>
		<contour>
			<point x="257" y="616" type="curve" smooth="yes"/>
			<point x="266" y="616"/>
			<point x="277" y="613"/>
			<point x="301" y="604" type="curve" smooth="yes"/>
			<point x="331" y="594"/>
			<point x="347" y="590"/>
			<point x="368" y="590" type="curve" smooth="yes"/>
			<point x="402" y="590"/>
			<point x="423" y="605"/>
			<point x="428" y="652" type="curve" smooth="yes"/>
			<point x="430" y="669"/>
			<point x="418" y="683"/>
			<point x="401" y="683" type="curve" smooth="yes"/>
			<point x="389" y="683"/>
			<point x="378" y="675"/>
			<point x="375" y="664" type="curve" smooth="yes"/>
			<point x="373" y="656"/>
			<point x="368" y="654"/>
			<point x="361" y="654" type="curve" smooth="yes"/>
			<point x="353" y="654"/>
			<point x="341" y="657"/>
			<point x="317" y="666" type="curve" smooth="yes"/>
			<point x="288" y="677"/>
			<point x="272" y="680"/>
			<point x="250" y="680" type="curve" smooth="yes"/>
			<point x="217" y="680"/>
			<point x="196" y="665"/>
			<point x="191" y="619" type="curve" smooth="yes"/>
			<point x="189" y="604"/>
			<point x="201" y="588"/>
			<point x="217" y="588" type="curve" smooth="yes"/>
			<point x="229" y="588"/>
			<point x="239" y="595"/>
			<point x="243" y="606" type="curve" smooth="yes"/>
			<point x="246" y="614"/>
			<point x="251" y="616"/>
		</contour>
		<contour>
			<point x="538" y="393" type="curve" smooth="yes"/>
			<point x="528" y="486"/>
			<point x="463" y="545"/>
			<point x="349" y="545" type="curve" smooth="yes"/>
			<point x="309" y="545"/>
			<point x="278" y="540"/>
			<point x="246" y="524" type="curve" smooth="yes"/>
			<point x="222" y="511"/>
			<point x="210" y="496"/>
			<point x="196" y="472" type="curve" smooth="yes"/>
			<point x="179" y="443" type="line"/>
			<point x="179" y="482" type="line" smooth="yes"/>
			<point x="179" y="512"/>
			<point x="154" y="537"/>
			<point x="124" y="537" type="curve" smooth="yes"/>
			<point x="94" y="537"/>
			<point x="69" y="512"/>
			<point x="69" y="482" type="curve" smooth="yes"/>
			<point x="69" y="50" type="line" smooth="yes"/>
			<point x="69" y="20"/>
			<point x="94" y="-6"/>
			<point x="124" y="-6" type="curve" smooth="yes"/>
			<point x="154" y="-6"/>
			<point x="179" y="20"/>
			<point x="179" y="50" type="curve" smooth="yes"/>
			<point x="179" y="238" type="line" smooth="yes"/>
			<point x="179" y="404"/>
			<point x="241" y="464"/>
			<point x="317" y="464" type="curve" smooth="yes"/>
			<point x="392" y="464"/>
			<point x="424" y="422"/>
			<point x="429" y="362" type="curve" smooth="yes"/>
			<point x="431" y="335"/>
			<point x="431" y="312"/>
			<point x="431" y="287" type="curve" smooth="yes"/>
			<point x="431" y="50" type="line" smooth="yes"/>
			<point x="431" y="20"/>
			<point x="456" y="-6"/>
			<point x="486" y="-6" type="curve" smooth="yes"/>
			<point x="516" y="-6"/>
			<point x="541" y="20"/>
			<point x="541" y="50" type="curve" smooth="yes"/>
			<point x="541" y="299" type="line" smooth="yes"/>
			<point x="541" y="342"/>
			<point x="540" y="366"/>
		</contour>
	</outline>
</glyph>
<glyph name="oacute" format="2">
	<advance width="595"/>
	<unicode hex="00F3"/>
	<note>
		oacute
	</note>
	<outline>
		<contour>
			<point x="324" y="576"/>
			<point x="329" y="582" type="curve" smooth="yes"/>
			<point x="395" y="655" type="line" smooth="yes"/>
			<point x="399" y="659"/>
			<point x="401" y="665"/>
			<point x="401" y="672" type="curve" smooth="yes"/>
			<point x="401" y="687"/>
			<point x="387" y="699"/>
			<point x="372" y="697" type="curve" smooth="yes"/>
			<point x="325" y="691"/>
			<point x="282" y="654"/>
			<point x="278" y="608" type="curve" smooth="yes"/>
			<point x="278" y="602" type="line" smooth="yes"/>
			<point x="278" y="585"/>
			<point x="291" y="572"/>
			<point x="307" y="572" type="curve" smooth="yes"/>
			<point x="316" y="572"/>
		</contour>
		<contour>
			<point x="298" y="545" type="curve" smooth="yes"/>
			<point x="119" y="545"/>
			<point x="29" y="421"/>
			<point x="29" y="266" type="curve" smooth="yes"/>
			<point x="29" y="111"/>
			<point x="119" y="-14"/>
			<point x="298" y="-14" type="curve" smooth="yes"/>
			<point x="476" y="-14"/>
			<point x="567" y="111"/>
			<point x="567" y="266" type="curve" smooth="yes"/>
			<point x="567" y="421"/>
			<point x="476" y="545"/>
		</contour>
		<contour>
			<point x="298" y="66" type="curve" smooth="yes"/>
			<point x="201" y="66"/>
			<point x="145" y="146"/>
			<point x="145" y="266" type="curve" smooth="yes"/>
			<point x="145" y="386"/>
			<point x="201" y="465"/>
			<point x="298" y="465" type="curve" smooth="yes"/>
			<point x="394" y="465"/>
			<point x="450" y="386"/>
			<point x="450" y="266" type="curve" smooth="yes"/>
			<point x="450" y="146"/>
			<point x="394" y="66"/>
		</contour>
	</outline>
</glyph>
<glyph name="divide" format="2">
	<advance width="601"/>
	<unicode hex="00F7"/>
	<note>
		divide
	</note>
	<outline>
		<contour>
			<point x="302" y="546" type="curve" smooth="yes"/>
			<point x="267" y="546"/>
			<point x="240" y="519"/>
			<point x="240" y="484" type="curve" smooth="yes"/>
			<point x="240" y="449"/>
			<point x="267" y="422"/>
			<point x="302" y="422" type="curve" smooth="yes"/>
			<point x="337" y="422"/>
			<point x="364" y="449"/>
			<point x="364" y="484" type="curve" smooth="yes"/>
			<point x="364" y="519"/>
			<point x="337" y="546"/>
		</contour>
		<contour>
			<point x="110" y="286" type="curve" smooth="yes"/>
			<point x="492" y="286" type="line" smooth="yes"/>
			<point x="510" y="286"/>
			<point x="525" y="301"/>
			<point x="525" y="319" type="curve" smooth="yes"/>
			<point x="525" y="337"/>
			<point x="510" y="352"/>
			<point x="492" y="352" type="curve" smooth="yes"/>
			<point x="110" y="352" type="line" smooth="yes"/>
			<point x="92" y="352"/>
			<point x="77" y="337"/>
			<point x="77" y="319" type="curve" smooth="yes"/>
			<point x="77" y="301"/>
			<point x="92" y="286"/>
		</contour>
		<contour>
			<point x="302" y="212" type="curve" smooth="yes"/>
			<point x="267" y="212"/>
			<point x="240" y="185"/>
			<point x="240" y="150" type="curve" smooth="yes"/>
			<point x="240" y="115"/>
			<point x="267" y="88"/>
			<point x="302" y="88" type="curve" smooth="yes"/>
			<point x="337" y="88"/>
			<point x="364" y="115"/>
			<point x="364" y="150" type="curve" smooth="yes"/>
			<point x="364" y="185"/>
			<point x="337" y="212"/>
		</contour>
	</outline>
</glyph>
<glyph name="ugrave" format="2">
	<advance width="604"/>
	<unicode hex="00F9"/>
	<note>
		ugrave
	</note>
	<outline>
		<contour>
			<point x="218" y="637" type="curve" smooth="yes"/>
			<point x="267" y="582" type="line" smooth="yes"/>
			<point x="272" y="576"/>
			<point x="280" y="573"/>
			<point x="289" y="573" type="curve" smooth="yes"/>
			<point x="305" y="573"/>
			<point x="318" y="586"/>
			<point x="318" y="602" type="curve" smooth="yes"/>
			<point x="318" y="607"/>
			<point x="316" y="613"/>
			<point x="314" y="617" type="curve" smooth="yes"/>
			<point x="276" y="680" type="line" smooth="yes"/>
			<point x="270" y="691"/>
			<point x="258" y="698"/>
			<point x="245" y="698" type="curve" smooth="yes"/>
			<point x="225" y="698"/>
			<point x="209" y="681"/>
			<point x="209" y="661" type="curve" smooth="yes"/>
			<point x="209" y="652"/>
			<point x="213" y="643"/>
		</contour>
		<contour>
			<point x="532" y="49" type="curve" smooth="yes"/>
			<point x="532" y="482" type="line" smooth="yes"/>
			<point x="532" y="512"/>
			<point x="508" y="537"/>
			<point x="478" y="537" type="curve" smooth="yes"/>
			<point x="447" y="537"/>
			<point x="423" y="512"/>
			<point x="423" y="482" type="curve" smooth="yes"/>
			<point x="423" y="281" type="line" smooth="yes"/>
			<point x="423" y="127"/>
			<point x="365" y="68"/>
			<point x="288" y="68" type="curve" smooth="yes"/>
			<point x="220" y="68"/>
			<point x="182" y="106"/>
			<point x="174" y="164" type="curve" smooth="yes"/>
			<point x="171" y="191"/>
			<point x="170" y="220"/>
			<point x="170" y="237" type="curve" smooth="yes"/>
			<point x="170" y="482" type="line" smooth="yes"/>
			<point x="170" y="512"/>
			<point x="146" y="537"/>
			<point x="116" y="537" type="curve" smooth="yes"/>
			<point x="85" y="537"/>
			<point x="61" y="512"/>
			<point x="61" y="482" type="curve" smooth="yes"/>
			<point x="61" y="215" type="line" smooth="yes"/>
			<point x="61" y="172"/>
			<point x="62" y="148"/>
			<point x="66" y="121" type="curve" smooth="yes"/>
			<point x="78" y="48"/>
			<point x="142" y="-14"/>
			<point x="252" y="-14" type="curve" smooth="yes"/>
			<point x="291" y="-14"/>
			<point x="323" y="-9"/>
			<point x="354" y="6" type="curve" smooth="yes"/>
			<point x="378" y="18"/>
			<point x="391" y="34"/>
			<point x="404" y="58" type="curve" smooth="yes"/>
			<point x="423" y="91" type="line"/>
			<point x="423" y="49" type="line" smooth="yes"/>
			<point x="423" y="19"/>
			<point x="447" y="-6"/>
			<point x="478" y="-6" type="curve" smooth="yes"/>
			<point x="508" y="-6"/>
			<point x="532" y="19"/>
		</contour>
	</outline>
</glyph>
<glyph name="ucircumflex" format="2">
	<advance width="604"/>
	<unicode hex="00FB"/>
	<note>
		ucircumflex
	</note>
	<outline>
		<contour>
			<point x="264" y="579"/>
			<point x="269" y="590" type="curve" smooth="yes"/>
			<point x="296" y="643" type="line"/>
			<point x="323" y="590" type="line" smooth="yes"/>
			<point x="328" y="579"/>
			<point x="339" y="573"/>
			<point x="351" y="573" type="curve" smooth="yes"/>
			<point x="369" y="573"/>
			<point x="383" y="587"/>
			<point x="383" y="604" type="curve" smooth="yes"/>
			<point x="383" y="610"/>
			<point x="382" y="616"/>
			<point x="379" y="620" type="curve" smooth="yes"/>
			<point x="360" y="652" type="line" smooth="yes"/>
			<point x="344" y="679"/>
			<point x="325" y="692"/>
			<point x="300" y="692" type="curve" smooth="yes"/>
			<point x="254" y="692"/>
			<point x="214" y="657"/>
			<point x="211" y="611" type="curve"/>
			<point x="210" y="609"/>
			<point x="210" y="606"/>
			<point x="210" y="604" type="curve" smooth="yes"/>
			<point x="210" y="586"/>
			<point x="224" y="573"/>
			<point x="241" y="573" type="curve" smooth="yes"/>
			<point x="253" y="573"/>
		</contour>
		<contour>
			<point x="532" y="49" type="curve" smooth="yes"/>
			<point x="532" y="482" type="line" smooth="yes"/>
			<point x="532" y="512"/>
			<point x="508" y="537"/>
			<point x="478" y="537" type="curve" smooth="yes"/>
			<point x="447" y="537"/>
			<point x="423" y="512"/>
			<point x="423" y="482" type="curve" smooth="yes"/>
			<point x="423" y="281" type="line" smooth="yes"/>
			<point x="423" y="127"/>
			<point x="365" y="68"/>
			<point x="288" y="68" type="curve" smooth="yes"/>
			<point x="220" y="68"/>
			<point x="182" y="106"/>
			<point x="174" y="164" type="curve" smooth="yes"/>
			<point x="171" y="191"/>
			<point x="170" y="220"/>
			<point x="170" y="237" type="curve" smooth="yes"/>
			<point x="170" y="482" type="line" smooth="yes"/>
			<point x="170" y="512"/>
			<point x="146" y="537"/>
			<point x="116" y="537" type="curve" smooth="yes"/>
			<point x="85" y="537"/>
			<point x="61" y="512"/>
			<point x="61" y="482" type="curve" smooth="yes"/>
			<point x="61" y="215" type="line" smooth="yes"/>
			<point x="61" y="172"/>
			<point x="62" y="148"/>
			<point x="66" y="121" type="curve" smooth="yes"/>
			<point x="78" y="48"/>
			<point x="142" y="-14"/>
			<point x="252" y="-14" type="curve" smooth="yes"/>
			<point x="291" y="-14"/>
			<point x="323" y="-9"/>
			<point x="354" y="6" type="curve" smooth="yes"/>
			<point x="378" y="18"/>
			<point x="391" y="34"/>
			<point x="404" y="58" type="curve" smooth="yes"/>
			<point x="423" y="91" type="line"/>
			<point x="423" y="49" type="line" smooth="yes"/>
			<point x="423" y="19"/>
			<point x="447" y="-6"/>
			<point x="478" y="-6" type="curve" smooth="yes"/>
			<point x="508" y="-6"/>
			<point x="532" y="19"/>
		</contour>
	</outline>
</glyph>
<glyph name="Gbreve" format="2">
	<advance width="722"/>
	<unicode hex="011E"/>
	<note>
		Gbreve
	</note>
	<outline>
		<contour>
			<point x="369" y="724" type="curve" smooth="yes"/>
			<point x="428" y="724"/>
			<point x="465" y="750"/>
			<point x="476" y="806" type="curve" smooth="yes"/>
			<point x="480" y="826"/>
			<point x="464" y="844"/>
			<point x="445" y="844" type="curve" smooth="yes"/>
			<point x="430" y="844"/>
			<point x="418" y="833"/>
			<point x="414" y="820" type="curve" smooth="yes"/>
			<point x="408" y="796"/>
			<point x="392" y="786"/>
			<point x="369" y="786" type="curve" smooth="yes"/>
			<point x="346" y="786"/>
			<point x="330" y="796"/>
			<point x="324" y="820" type="curve" smooth="yes"/>
			<point x="320" y="833"/>
			<point x="308" y="844"/>
			<point x="293" y="844" type="curve" smooth="yes"/>
			<point x="274" y="844"/>
			<point x="259" y="825"/>
			<point x="262" y="806" type="curve" smooth="yes"/>
			<point x="273" y="750"/>
			<point x="309" y="724"/>
		</contour>
		<contour>
			<point x="605" y="342" type="curve" smooth="yes"/>
			<point x="441" y="342" type="line" smooth="yes"/>
			<point x="417" y="342"/>
			<point x="397" y="322"/>
			<point x="397" y="298" type="curve" smooth="yes"/>
			<point x="397" y="274"/>
			<point x="417" y="254"/>
			<point x="441" y="254" type="curve" smooth="yes"/>
			<point x="556" y="254" type="line"/>
			<point x="550" y="143"/>
			<point x="476" y="70"/>
			<point x="374" y="70" type="curve" smooth="yes"/>
			<point x="251" y="70"/>
			<point x="168" y="176"/>
			<point x="168" y="347" type="curve" smooth="yes"/>
			<point x="168" y="510"/>
			<point x="251" y="620"/>
			<point x="379" y="620" type="curve" smooth="yes"/>
			<point x="469" y="620"/>
			<point x="524" y="576"/>
			<point x="549" y="505" type="curve" smooth="yes"/>
			<point x="558" y="478"/>
			<point x="564" y="455"/>
			<point x="590" y="447" type="curve" smooth="yes"/>
			<point x="596" y="446"/>
			<point x="603" y="445"/>
			<point x="609" y="445" type="curve" smooth="yes"/>
			<point x="620" y="445"/>
			<point x="632" y="446"/>
			<point x="642" y="450" type="curve" smooth="yes"/>
			<point x="665" y="457"/>
			<point x="670" y="481"/>
			<point x="662" y="512" type="curve" smooth="yes"/>
			<point x="634" y="625"/>
			<point x="542" y="704"/>
			<point x="381" y="704" type="curve" smooth="yes"/>
			<point x="187" y="704"/>
			<point x="49" y="559"/>
			<point x="49" y="342" type="curve" smooth="yes"/>
			<point x="49" y="132"/>
			<point x="165" y="-14"/>
			<point x="362" y="-14" type="curve" smooth="yes"/>
			<point x="423" y="-14"/>
			<point x="472" y="0"/>
			<point x="509" y="26" type="curve" smooth="yes"/>
			<point x="530" y="42"/>
			<point x="540" y="58"/>
			<point x="551" y="83" type="curve" smooth="yes"/>
			<point x="567" y="117" type="line"/>
			<point x="570" y="40" type="line" smooth="yes"/>
			<point x="571" y="15"/>
			<point x="591" y="-6"/>
			<point x="616" y="-6" type="curve" smooth="yes"/>
			<point x="642" y="-6"/>
			<point x="663" y="16"/>
			<point x="663" y="41" type="curve" smooth="yes"/>
			<point x="663" y="284" type="line" smooth="yes"/>
			<point x="663" y="321"/>
			<point x="642" y="342"/>
		</contour>
	</outline>
</glyph>
<glyph name="gbreve" format="2">
	<advance width="629"/>
	<unicode hex="011F"/>
	<note>
		gbreve
	</note>
	<outline>
		<contour>
			<point x="310" y="567" type="curve" smooth="yes"/>
			<point x="371" y="567"/>
			<point x="408" y="595"/>
			<point x="418" y="662" type="curve" smooth="yes"/>
			<point x="420" y="680"/>
			<point x="406" y="698"/>
			<point x="387" y="698" type="curve" smooth="yes"/>
			<point x="371" y="698"/>
			<point x="359" y="686"/>
			<point x="356" y="672" type="curve" smooth="yes"/>
			<point x="350" y="640"/>
			<point x="334" y="629"/>
			<point x="310" y="629" type="curve" smooth="yes"/>
			<point x="286" y="629"/>
			<point x="270" y="640"/>
			<point x="264" y="672" type="curve" smooth="yes"/>
			<point x="261" y="686"/>
			<point x="249" y="698"/>
			<point x="233" y="698" type="curve" smooth="yes"/>
			<point x="213" y="698"/>
			<point x="200" y="680"/>
			<point x="202" y="662" type="curve" smooth="yes"/>
			<point x="211" y="595"/>
			<point x="248" y="567"/>
		</contour>
		<contour>
			<point x="557" y="132" type="curve" smooth="yes"/>
			<point x="557" y="482" type="line" smooth="yes"/>
			<point x="557" y="512"/>
			<point x="532" y="537"/>
			<point x="502" y="537" type="curve" smooth="yes"/>
			<point x="472" y="537"/>
			<point x="447" y="512"/>
			<point x="447" y="482" type="curve" smooth="yes"/>
			<point x="447" y="459" type="line"/>
			<point x="430" y="486" type="line" smooth="yes"/>
			<point x="417" y="506"/>
			<point x="405" y="519"/>
			<point x="380" y="529" type="curve" smooth="yes"/>
			<point x="352" y="539"/>
			<point x="316" y="545"/>
			<point x="286" y="545" type="curve" smooth="yes"/>
			<point x="149" y="545"/>
			<point x="29" y="453"/>
			<point x="29" y="259" type="curve" smooth="yes"/>
			<point x="29" y="103"/>
			<point x="118" y="-9"/>
			<point x="271" y="-9" type="curve" smooth="yes"/>
			<point x="309" y="-9"/>
			<point x="347" y="-1"/>
			<point x="376" y="12" type="curve" smooth="yes"/>
			<point x="400" y="24"/>
			<point x="413" y="39"/>
			<point x="428" y="61" type="curve" smooth="yes"/>
			<point x="447" y="89" type="line"/>
			<point x="447" y="78" type="line" smooth="yes"/>
			<point x="447" y="59"/>
			<point x="447" y="40"/>
			<point x="446" y="17" type="curve" smooth="yes"/>
			<point x="442" y="-78"/>
			<point x="387" y="-130"/>
			<point x="291" y="-130" type="curve" smooth="yes"/>
			<point x="228" y="-130"/>
			<point x="184" y="-107"/>
			<point x="164" y="-70" type="curve" smooth="yes"/>
			<point x="151" y="-45"/>
			<point x="148" y="-22"/>
			<point x="122" y="-13" type="curve" smooth="yes"/>
			<point x="116" y="-11"/>
			<point x="109" y="-10"/>
			<point x="103" y="-10" type="curve" smooth="yes"/>
			<point x="92" y="-10"/>
			<point x="81" y="-12"/>
			<point x="71" y="-16" type="curve" smooth="yes"/>
			<point x="49" y="-24"/>
			<point x="44" y="-48"/>
			<point x="53" y="-78" type="curve" smooth="yes"/>
			<point x="79" y="-165"/>
			<point x="157" y="-213"/>
			<point x="290" y="-213" type="curve" smooth="yes"/>
			<point x="450" y="-213"/>
			<point x="550" y="-132"/>
			<point x="556" y="29" type="curve" smooth="yes"/>
			<point x="557" y="58"/>
			<point x="557" y="99"/>
		</contour>
		<contour>
			<point x="293" y="71" type="curve" smooth="yes"/>
			<point x="198" y="71"/>
			<point x="145" y="154"/>
			<point x="145" y="269" type="curve" smooth="yes"/>
			<point x="145" y="401"/>
			<point x="211" y="465"/>
			<point x="298" y="465" type="curve" smooth="yes"/>
			<point x="369" y="465"/>
			<point x="447" y="417"/>
			<point x="447" y="288" type="curve" smooth="yes"/>
			<point x="447" y="265" type="line" smooth="yes"/>
			<point x="447" y="123"/>
			<point x="376" y="71"/>
		</contour>
	</outline>
</glyph>
<glyph name="Hbar" format="2">
	<advance width="740"/>
	<unicode hex="0126"/>
	<note>
		Hbar
	</note>
	<outline>
		<contour>
			<point x="668" y="497" type="line"/>
			<point x="681" y="497" type="line" smooth="yes"/>
			<point x="699" y="497"/>
			<point x="714" y="512"/>
			<point x="714" y="530" type="curve" smooth="yes"/>
			<point x="714" y="548"/>
			<point x="699" y="563"/>
			<point x="681" y="563" type="curve" smooth="yes"/>
			<point x="668" y="563" type="line"/>
			<point x="668" y="641" type="line" smooth="yes"/>
			<point x="668" y="671"/>
			<point x="644" y="696"/>
			<point x="614" y="696" type="curve" smooth="yes"/>
			<point x="583" y="696"/>
			<point x="559" y="671"/>
			<point x="559" y="641" type="curve" smooth="yes"/>
			<point x="559" y="563" type="line"/>
			<point x="205" y="563" type="line"/>
			<point x="205" y="641" type="line" smooth="yes"/>
			<point x="205" y="671"/>
			<point x="180" y="696"/>
			<point x="150" y="696" type="curve" smooth="yes"/>
			<point x="120" y="696"/>
			<point x="95" y="671"/>
			<point x="95" y="641" type="curve" smooth="yes"/>
			<point x="95" y="563" type="line"/>
			<point x="83" y="563" type="line" smooth="yes"/>
			<point x="65" y="563"/>
			<point x="50" y="548"/>
			<point x="50" y="530" type="curve" smooth="yes"/>
			<point x="50" y="512"/>
			<point x="65" y="497"/>
			<point x="83" y="497" type="curve" smooth="yes"/>
			<point x="95" y="497" type="line"/>
			<point x="95" y="50" type="line" smooth="yes"/>
			<point x="95" y="20"/>
			<point x="120" y="-6"/>
			<point x="150" y="-6" type="curve" smooth="yes"/>
			<point x="180" y="-6"/>
			<point x="205" y="20"/>
			<point x="205" y="50" type="curve" smooth="yes"/>
			<point x="205" y="294" type="line"/>
			<point x="559" y="294" type="line"/>
			<point x="559" y="49" type="line" smooth="yes"/>
			<point x="559" y="19"/>
			<point x="583" y="-6"/>
			<point x="614" y="-6" type="curve" smooth="yes"/>
			<point x="644" y="-6"/>
			<point x="668" y="19"/>
			<point x="668" y="49" type="curve" smooth="yes"/>
		</contour>
		<contour>
			<point x="205" y="497" type="line"/>
			<point x="559" y="497" type="line"/>
			<point x="559" y="383" type="line"/>
			<point x="205" y="383" type="line"/>
		</contour>
	</outline>
</glyph>
<glyph name="hbar" format="2">
	<advance width="621"/>
	<unicode hex="0127"/>
	<note>
		hbar
	</note>
	<outline>
		<contour>
			<point x="553" y="393" type="curve" smooth="yes"/>
			<point x="543" y="486"/>
			<point x="478" y="545"/>
			<point x="364" y="545" type="curve" smooth="yes"/>
			<point x="324" y="545"/>
			<point x="293" y="540"/>
			<point x="261" y="524" type="curve" smooth="yes"/>
			<point x="237" y="511"/>
			<point x="225" y="496"/>
			<point x="211" y="472" type="curve" smooth="yes"/>
			<point x="194" y="443" type="line"/>
			<point x="194" y="590" type="line"/>
			<point x="272" y="590" type="line" smooth="yes"/>
			<point x="290" y="590"/>
			<point x="305" y="605"/>
			<point x="305" y="623" type="curve" smooth="yes"/>
			<point x="305" y="641"/>
			<point x="290" y="656"/>
			<point x="272" y="656" type="curve" smooth="yes"/>
			<point x="194" y="656" type="line"/>
			<point x="194" y="691" type="line" smooth="yes"/>
			<point x="194" y="721"/>
			<point x="169" y="746"/>
			<point x="139" y="746" type="curve" smooth="yes"/>
			<point x="109" y="746"/>
			<point x="84" y="721"/>
			<point x="84" y="691" type="curve" smooth="yes"/>
			<point x="84" y="656" type="line"/>
			<point x="57" y="656" type="line" smooth="yes"/>
			<point x="39" y="656"/>
			<point x="24" y="641"/>
			<point x="24" y="623" type="curve" smooth="yes"/>
			<point x="24" y="605"/>
			<point x="39" y="590"/>
			<point x="57" y="590" type="curve" smooth="yes"/>
			<point x="84" y="590" type="line"/>
			<point x="84" y="50" type="line" smooth="yes"/>
			<point x="84" y="20"/>
			<point x="109" y="-6"/>
			<point x="139" y="-6" type="curve" smooth="yes"/>
			<point x="169" y="-6"/>
			<point x="194" y="20"/>
			<point x="194" y="50" type="curve" smooth="yes"/>
			<point x="194" y="238" type="line" smooth="yes"/>
			<point x="194" y="404"/>
			<point x="256" y="462"/>
			<point x="332" y="464" type="curve" smooth="yes"/>
			<point x="407" y="465"/>
			<point x="439" y="422"/>
			<point x="444" y="362" type="curve" smooth="yes"/>
			<point x="446" y="335"/>
			<point x="446" y="312"/>
			<point x="446" y="287" type="curve" smooth="yes"/>
			<point x="446" y="50" type="line" smooth="yes"/>
			<point x="446" y="20"/>
			<point x="471" y="-6"/>
			<point x="501" y="-6" type="curve" smooth="yes"/>
			<point x="531" y="-6"/>
			<point x="556" y="20"/>
			<point x="556" y="50" type="curve" smooth="yes"/>
			<point x="556" y="299" type="line" smooth="yes"/>
			<point x="556" y="342"/>
			<point x="555" y="366"/>
		</contour>
	</outline>
</glyph>
<glyph name="Imacron" format="2">
	<advance width="277"/>
	<unicode hex="012A"/>
	<note>
		Imacron
	</note>
	<outline>
		<contour>
			<point x="49" y="758" type="curve" smooth="yes"/>
			<point x="252" y="758" type="line" smooth="yes"/>
			<point x="269" y="758"/>
			<point x="284" y="772"/>
			<point x="284" y="790" type="curve" smooth="yes"/>
			<point x="284" y="807"/>
			<point x="269" y="821"/>
			<point x="252" y="821" type="curve" smooth="yes"/>
			<point x="49" y="821" type="line" smooth="yes"/>
			<point x="32" y="821"/>
			<point x="18" y="807"/>
			<point x="18" y="790" type="curve" smooth="yes"/>
			<point x="18" y="772"/>
			<point x="32" y="758"/>
		</contour>
		<contour>
			<point x="205" y="20"/>
			<point x="205" y="50" type="curve" smooth="yes"/>
			<point x="205" y="641" type="line" smooth="yes"/>
			<point x="205" y="671"/>
			<point x="180" y="696"/>
			<point x="150" y="696" type="curve" smooth="yes"/>
			<point x="120" y="696"/>
			<point x="95" y="671"/>
			<point x="95" y="641" type="curve" smooth="yes"/>
			<point x="95" y="50" type="line" smooth="yes"/>
			<point x="95" y="20"/>
			<point x="120" y="-6"/>
			<point x="150" y="-6" type="curve" smooth="yes"/>
			<point x="180" y="-6"/>
		</contour>
	</outline>
</glyph>
<glyph name="IJ" format="2">
	<advance width="844"/>
	<unicode hex="0132"/>
	<note>
		IJ
	</note>
	<outline>
		<contour>
			<point x="205" y="20"/>
			<point x="205" y="50" type="curve" smooth="yes"/>
			<point x="205" y="641" type="line" smooth="yes"/>
			<point x="205" y="671"/>
			<point x="180" y="696"/>
			<point x="150" y="696" type="curve" smooth="yes"/>
			<point x="120" y="696"/>
			<point x="95" y="671"/>
			<point x="95" y="641" type="curve" smooth="yes"/>
			<point x="95" y="50" type="line" smooth="yes"/>
			<point x="95" y="20"/>
			<point x="120" y="-6"/>
			<point x="150" y="-6" type="curve" smooth="yes"/>
			<point x="180" y="-6"/>
		</contour>
		<contour>
			<point x="790" y="273" type="curve" smooth="yes"/>
			<point x="790" y="641" type="line" smooth="yes"/>
			<point x="790" y="671"/>
			<point x="765" y="696"/>
			<point x="735" y="696" type="curve" smooth="yes"/>
			<point x="705" y="696"/>
			<point x="680" y="671"/>
			<point x="680" y="641" type="curve" smooth="yes"/>
			<point x="680" y="268" type="line" smooth="yes"/>
			<point x="680" y="236"/>
			<point x="680" y="212"/>
			<point x="679" y="191" type="curve" smooth="yes"/>
			<point x="673" y="116"/>
			<point x="637" y="70"/>
			<point x="564" y="70" type="curve" smooth="yes"/>
			<point x="490" y="70"/>
			<point x="447" y="110"/>
			<point x="442" y="204" type="curve"/>
			<point x="437" y="229"/>
			<point x="414" y="248"/>
			<point x="387" y="248" type="curve" smooth="yes"/>
			<point x="373" y="248"/>
			<point x="359" y="243"/>
			<point x="349" y="234" type="curve" smooth="yes"/>
			<point x="329" y="216"/>
			<point x="330" y="194"/>
			<point x="334" y="168" type="curve" smooth="yes"/>
			<point x="350" y="55"/>
			<point x="424" y="-14"/>
			<point x="554" y="-14" type="curve" smooth="yes"/>
			<point x="708" y="-14"/>
			<point x="780" y="67"/>
			<point x="787" y="184" type="curve" smooth="yes"/>
			<point x="790" y="223"/>
			<point x="790" y="245"/>
		</contour>
	</outline>
</glyph>
<glyph name="ldot" format="2">
	<advance width="383"/>
	<unicode hex="0140"/>
	<note>
		ldot
	</note>
	<outline>
		<contour>
			<point x="175" y="162" type="curve" smooth="yes"/>
			<point x="175" y="686" type="line" smooth="yes"/>
			<point x="175" y="716"/>
			<point x="150" y="741"/>
			<point x="120" y="741" type="curve" smooth="yes"/>
			<point x="90" y="741"/>
			<point x="65" y="716"/>
			<point x="65" y="686" type="curve" smooth="yes"/>
			<point x="65" y="159" type="line" smooth="yes"/>
			<point x="65" y="127"/>
			<point x="65" y="103"/>
			<point x="66" y="83" type="curve" smooth="yes"/>
			<point x="70" y="15"/>
			<point x="109" y="-6"/>
			<point x="167" y="-6" type="curve" smooth="yes"/>
			<point x="180" y="-6"/>
			<point x="193" y="-5"/>
			<point x="207" y="-4" type="curve" smooth="yes"/>
			<point x="228" y="-2"/>
			<point x="245" y="14"/>
			<point x="245" y="36" type="curve" smooth="yes"/>
			<point x="245" y="56"/>
			<point x="229" y="73"/>
			<point x="209" y="76" type="curve" smooth="yes"/>
			<point x="185" y="79"/>
			<point x="177" y="90"/>
			<point x="176" y="112" type="curve" smooth="yes"/>
			<point x="175" y="128"/>
			<point x="175" y="144"/>
		</contour>
		<contour>
			<point x="306" y="463" type="curve" smooth="yes"/>
			<point x="269" y="463"/>
			<point x="241" y="436"/>
			<point x="241" y="400" type="curve" smooth="yes"/>
			<point x="241" y="364"/>
			<point x="269" y="337"/>
			<point x="306" y="337" type="curve" smooth="yes"/>
			<point x="343" y="337"/>
			<point x="370" y="364"/>
			<point x="370" y="400" type="curve" smooth="yes"/>
			<point x="370" y="436"/>
			<point x="343" y="463"/>
		</contour>
	</outline>
</glyph>
<glyph name="lslash" format="2">
	<advance width="297"/>
	<unicode hex="0142"/>
	<note>
		lslash
	</note>
	<outline>
		<contour>
			<point x="202" y="112" type="curve" smooth="yes"/>
			<point x="200" y="128"/>
			<point x="200" y="144"/>
			<point x="200" y="162" type="curve" smooth="yes"/>
			<point x="200" y="315" type="line"/>
			<point x="253" y="347" type="line" smooth="yes"/>
			<point x="262" y="353"/>
			<point x="269" y="364"/>
			<point x="269" y="377" type="curve" smooth="yes"/>
			<point x="269" y="395"/>
			<point x="254" y="411"/>
			<point x="235" y="411" type="curve" smooth="yes"/>
			<point x="229" y="411"/>
			<point x="223" y="409"/>
			<point x="218" y="406" type="curve" smooth="yes"/>
			<point x="200" y="395" type="line"/>
			<point x="200" y="686" type="line" smooth="yes"/>
			<point x="200" y="716"/>
			<point x="176" y="741"/>
			<point x="146" y="741" type="curve" smooth="yes"/>
			<point x="115" y="741"/>
			<point x="91" y="716"/>
			<point x="91" y="686" type="curve" smooth="yes"/>
			<point x="91" y="330" type="line"/>
			<point x="38" y="298" type="line" smooth="yes"/>
			<point x="29" y="292"/>
			<point x="22" y="281"/>
			<point x="22" y="268" type="curve" smooth="yes"/>
			<point x="22" y="250"/>
			<point x="37" y="234"/>
			<point x="56" y="234" type="curve" smooth="yes"/>
			<point x="62" y="234"/>
			<point x="68" y="236"/>
			<point x="73" y="239" type="curve" smooth="yes"/>
			<point x="91" y="250" type="line"/>
			<point x="91" y="159" type="line" smooth="yes"/>
			<point x="91" y="127"/>
			<point x="91" y="103"/>
			<point x="92" y="83" type="curve" smooth="yes"/>
			<point x="95" y="15"/>
			<point x="135" y="-6"/>
			<point x="193" y="-6" type="curve" smooth="yes"/>
			<point x="206" y="-6"/>
			<point x="219" y="-5"/>
			<point x="233" y="-4" type="curve" smooth="yes"/>
			<point x="254" y="-2"/>
			<point x="271" y="14"/>
			<point x="271" y="36" type="curve" smooth="yes"/>
			<point x="271" y="56"/>
			<point x="255" y="73"/>
			<point x="235" y="76" type="curve" smooth="yes"/>
			<point x="211" y="79"/>
			<point x="203" y="90"/>
		</contour>
	</outline>
</glyph>
<glyph name="nacute" format="2">
	<advance width="606"/>
	<unicode hex="0144"/>
	<note>
		nacute
	</note>
	<outline>
		<contour>
			<point x="375" y="638"/>
			<point x="375" y="639" type="curve" smooth="yes"/>
			<point x="372" y="680"/>
			<point x="325" y="669"/>
			<point x="304" y="634" type="curve" smooth="yes"/>
			<point x="292" y="614" type="line" smooth="yes"/>
			<point x="290" y="610"/>
			<point x="288" y="605"/>
			<point x="288" y="600" type="curve" smooth="yes"/>
			<point x="288" y="582"/>
			<point x="304" y="569"/>
			<point x="321" y="573" type="curve" smooth="yes"/>
			<point x="351" y="580"/>
			<point x="375" y="605"/>
			<point x="375" y="635" type="curve" smooth="yes"/>
			<point x="375" y="636"/>
		</contour>
		<contour>
			<point x="538" y="393" type="curve" smooth="yes"/>
			<point x="528" y="486"/>
			<point x="463" y="545"/>
			<point x="349" y="545" type="curve" smooth="yes"/>
			<point x="309" y="545"/>
			<point x="278" y="540"/>
			<point x="246" y="524" type="curve" smooth="yes"/>
			<point x="222" y="511"/>
			<point x="210" y="496"/>
			<point x="196" y="472" type="curve" smooth="yes"/>
			<point x="179" y="443" type="line"/>
			<point x="179" y="482" type="line" smooth="yes"/>
			<point x="179" y="512"/>
			<point x="154" y="537"/>
			<point x="124" y="537" type="curve" smooth="yes"/>
			<point x="94" y="537"/>
			<point x="69" y="512"/>
			<point x="69" y="482" type="curve" smooth="yes"/>
			<point x="69" y="50" type="line" smooth="yes"/>
			<point x="69" y="20"/>
			<point x="94" y="-6"/>
			<point x="124" y="-6" type="curve" smooth="yes"/>
			<point x="154" y="-6"/>
			<point x="179" y="20"/>
			<point x="179" y="50" type="curve" smooth="yes"/>
			<point x="179" y="238" type="line" smooth="yes"/>
			<point x="179" y="404"/>
			<point x="241" y="464"/>
			<point x="317" y="464" type="curve" smooth="yes"/>
			<point x="392" y="464"/>
			<point x="424" y="422"/>
			<point x="429" y="362" type="curve" smooth="yes"/>
			<point x="431" y="335"/>
			<point x="431" y="312"/>
			<point x="431" y="287" type="curve" smooth="yes"/>
			<point x="431" y="50" type="line" smooth="yes"/>
			<point x="431" y="20"/>
			<point x="456" y="-6"/>
			<point x="486" y="-6" type="curve" smooth="yes"/>
			<point x="516" y="-6"/>
			<point x="541" y="20"/>
			<point x="541" y="50" type="curve" smooth="yes"/>
			<point x="541" y="299" type="line" smooth="yes"/>
			<point x="541" y="342"/>
			<point x="540" y="366"/>
		</contour>
	</outline>
</glyph>
<glyph name="uni0145" format="2">
	<advance width="737"/>
	<unicode hex="0145"/>
	<note>
		Ncommaaccent
	</note>
	<outline>
		<contour>
			<point x="554" y="0" type="curve" smooth="yes"/>
			<point x="607" y="0" type="line" smooth="yes"/>
			<point x="644" y="0"/>
			<point x="665" y="21"/>
			<point x="665" y="58" type="curve" smooth="yes"/>
			<point x="664" y="642" type="line" smooth="yes"/>
			<point x="664" y="671"/>
			<point x="640" y="695"/>
			<point x="610" y="695" type="curve" smooth="yes"/>
			<point x="580" y="695"/>
			<point x="556" y="670"/>
			<point x="556" y="641" type="curve" smooth="yes"/>
			<point x="556" y="358" type="line" smooth="yes"/>
			<point x="556" y="287"/>
			<point x="557" y="195"/>
			<point x="559" y="117" type="curve"/>
			<point x="272" y="649" type="line" smooth="yes"/>
			<point x="257" y="678"/>
			<point x="235" y="690"/>
			<point x="203" y="690" type="curve" smooth="yes"/>
			<point x="153" y="690" type="line" smooth="yes"/>
			<point x="116" y="690"/>
			<point x="95" y="669"/>
			<point x="95" y="632" type="curve" smooth="yes"/>
			<point x="95" y="50" type="line" smooth="yes"/>
			<point x="95" y="20"/>
			<point x="120" y="-6"/>
			<point x="150" y="-6" type="curve" smooth="yes"/>
			<point x="180" y="-6"/>
			<point x="205" y="20"/>
			<point x="205" y="50" type="curve" smooth="yes"/>
			<point x="205" y="330" type="line" smooth="yes"/>
			<point x="205" y="401"/>
			<point x="204" y="490"/>
			<point x="201" y="569" type="curve"/>
			<point x="485" y="41" type="line" smooth="yes"/>
			<point x="500" y="12"/>
			<point x="522" y="0"/>
		</contour>
		<contour>
			<point x="366" y="-187" type="curve" smooth="yes"/>
			<point x="408" y="-105" type="line" smooth="yes"/>
			<point x="424" y="-74"/>
			<point x="423" y="-36"/>
			<point x="388" y="-34" type="curve" smooth="yes"/>
			<point x="387" y="-34"/>
			<point x="385" y="-34"/>
			<point x="384" y="-34" type="curve" smooth="yes"/>
			<point x="360" y="-34"/>
			<point x="348" y="-52"/>
			<point x="340" y="-72" type="curve" smooth="yes"/>
			<point x="306" y="-160" type="line" smooth="yes"/>
			<point x="305" y="-164"/>
			<point x="303" y="-168"/>
			<point x="303" y="-172" type="curve" smooth="yes"/>
			<point x="303" y="-191"/>
			<point x="318" y="-206"/>
			<point x="337" y="-206" type="curve" smooth="yes"/>
			<point x="350" y="-206"/>
			<point x="361" y="-198"/>
		</contour>
	</outline>
</glyph>
<glyph name="Eng" format="2">
	<advance width="737"/>
	<unicode hex="014A"/>
	<note>
		Eng
	</note>
	<outline>
		<contour>
			<point x="665" y="-65" type="curve" smooth="yes"/>
			<point x="665" y="641" type="line" smooth="yes"/>
			<point x="665" y="671"/>
			<point x="641" y="696"/>
			<point x="611" y="696" type="curve" smooth="yes"/>
			<point x="580" y="696"/>
			<point x="556" y="671"/>
			<point x="556" y="641" type="curve" smooth="yes"/>
			<point x="556" y="383" type="line" smooth="yes"/>
			<point x="556" y="312"/>
			<point x="557" y="235"/>
			<point x="559" y="157" type="curve"/>
			<point x="273" y="650" type="line" smooth="yes"/>
			<point x="257" y="677"/>
			<point x="236" y="690"/>
			<point x="204" y="690" type="curve" smooth="yes"/>
			<point x="153" y="690" type="line" smooth="yes"/>
			<point x="116" y="690"/>
			<point x="95" y="669"/>
			<point x="95" y="632" type="curve" smooth="yes"/>
			<point x="95" y="50" type="line" smooth="yes"/>
			<point x="95" y="20"/>
			<point x="120" y="-6"/>
			<point x="150" y="-6" type="curve" smooth="yes"/>
			<point x="180" y="-6"/>
			<point x="205" y="20"/>
			<point x="205" y="50" type="curve" smooth="yes"/>
			<point x="205" y="330" type="line" smooth="yes"/>
			<point x="205" y="401"/>
			<point x="204" y="484"/>
			<point x="201" y="563" type="curve"/>
			<point x="555" y="-28" type="line"/>
			<point x="555" y="-71" type="line" smooth="yes"/>
			<point x="555" y="-104"/>
			<point x="545" y="-125"/>
			<point x="511" y="-134" type="curve" smooth="yes"/>
			<point x="492" y="-139"/>
			<point x="477" y="-156"/>
			<point x="477" y="-177" type="curve" smooth="yes"/>
			<point x="477" y="-203"/>
			<point x="501" y="-223"/>
			<point x="526" y="-221" type="curve" smooth="yes"/>
			<point x="610" y="-213"/>
			<point x="656" y="-181"/>
			<point x="664" y="-106" type="curve" smooth="yes"/>
			<point x="665" y="-92"/>
			<point x="665" y="-83"/>
		</contour>
	</outline>
</glyph>
<glyph name="Omacron" format="2">
	<advance width="750"/>
	<unicode hex="014C"/>
	<note>
		Omacron
	</note>
	<outline>
		<contour>
			<point x="281" y="758" type="curve" smooth="yes"/>
			<point x="484" y="758" type="line" smooth="yes"/>
			<point x="501" y="758"/>
			<point x="516" y="772"/>
			<point x="516" y="790" type="curve" smooth="yes"/>
			<point x="516" y="807"/>
			<point x="501" y="821"/>
			<point x="484" y="821" type="curve" smooth="yes"/>
			<point x="281" y="821" type="line" smooth="yes"/>
			<point x="264" y="821"/>
			<point x="250" y="807"/>
			<point x="250" y="790" type="curve" smooth="yes"/>
			<point x="250" y="772"/>
			<point x="264" y="758"/>
		</contour>
		<contour>
			<point x="382" y="704" type="curve" smooth="yes"/>
			<point x="170" y="704"/>
			<point x="49" y="559"/>
			<point x="49" y="345" type="curve" smooth="yes"/>
			<point x="49" y="132"/>
			<point x="170" y="-14"/>
			<point x="382" y="-14" type="curve" smooth="yes"/>
			<point x="593" y="-14"/>
			<point x="714" y="132"/>
			<point x="714" y="345" type="curve" smooth="yes"/>
			<point x="714" y="559"/>
			<point x="593" y="704"/>
		</contour>
		<contour>
			<point x="382" y="70" type="curve" smooth="yes"/>
			<point x="247" y="70"/>
			<point x="167" y="174"/>
			<point x="167" y="345" type="curve" smooth="yes"/>
			<point x="167" y="517"/>
			<point x="247" y="620"/>
			<point x="382" y="620" type="curve" smooth="yes"/>
			<point x="516" y="620"/>
			<point x="596" y="517"/>
			<point x="596" y="345" type="curve" smooth="yes"/>
			<point x="596" y="174"/>
			<point x="516" y="70"/>
		</contour>
	</outline>
</glyph>
<glyph name="oe" format="2">
	<advance width="984"/>
	<unicode hex="0153"/>
	<note>
		oe
	</note>
	<outline>
		<contour>
			<point x="948" y="279" type="curve" smooth="yes"/>
			<point x="948" y="429"/>
			<point x="864" y="545"/>
			<point x="713" y="545" type="curve" smooth="yes"/>
			<point x="627" y="545"/>
			<point x="555" y="509"/>
			<point x="509" y="424" type="curve"/>
			<point x="466" y="506"/>
			<point x="394" y="545"/>
			<point x="298" y="545" type="curve" smooth="yes"/>
			<point x="119" y="545"/>
			<point x="29" y="421"/>
			<point x="29" y="266" type="curve" smooth="yes"/>
			<point x="29" y="111"/>
			<point x="119" y="-14"/>
			<point x="298" y="-14" type="curve" smooth="yes"/>
			<point x="392" y="-14"/>
			<point x="462" y="23"/>
			<point x="505" y="103" type="curve"/>
			<point x="549" y="19"/>
			<point x="620" y="-14"/>
			<point x="701" y="-14" type="curve" smooth="yes"/>
			<point x="791" y="-14"/>
			<point x="871" y="23"/>
			<point x="914" y="101" type="curve" smooth="yes"/>
			<point x="918" y="109"/>
			<point x="920" y="117"/>
			<point x="920" y="126" type="curve" smooth="yes"/>
			<point x="920" y="155"/>
			<point x="897" y="178"/>
			<point x="868" y="178" type="curve" smooth="yes"/>
			<point x="846" y="178"/>
			<point x="826" y="164"/>
			<point x="819" y="144" type="curve" smooth="yes"/>
			<point x="800" y="93"/>
			<point x="757" y="66"/>
			<point x="703" y="66" type="curve" smooth="yes"/>
			<point x="632" y="66"/>
			<point x="574" y="114"/>
			<point x="566" y="235" type="curve"/>
			<point x="889" y="235" type="line" smooth="yes"/>
			<point x="925" y="235"/>
			<point x="948" y="279"/>
		</contour>
		<contour>
			<point x="298" y="66" type="curve" smooth="yes"/>
			<point x="201" y="66"/>
			<point x="145" y="146"/>
			<point x="145" y="266" type="curve" smooth="yes"/>
			<point x="145" y="386"/>
			<point x="201" y="465"/>
			<point x="298" y="465" type="curve" smooth="yes"/>
			<point x="394" y="465"/>
			<point x="450" y="386"/>
			<point x="450" y="266" type="curve" smooth="yes"/>
			<point x="450" y="146"/>
			<point x="394" y="66"/>
		</contour>
		<contour>
			<point x="835" y="312" type="curve"/>
			<point x="567" y="312" type="line"/>
			<point x="579" y="413"/>
			<point x="631" y="465"/>
			<point x="707" y="465" type="curve" smooth="yes"/>
			<point x="784" y="465"/>
			<point x="826" y="410"/>
		</contour>
	</outline>
</glyph>
<glyph name="scedilla" format="2">
	<advance width="476"/>
	<unicode hex="015F"/>
	<note>
		scedilla
	</note>
	<outline>
		<contour>
			<point x="450" y="140" type="curve" smooth="yes"/>
			<point x="450" y="234"/>
			<point x="389" y="280"/>
			<point x="273" y="310" type="curve" smooth="yes"/>
			<point x="194" y="331"/>
			<point x="155" y="351"/>
			<point x="155" y="399" type="curve" smooth="yes"/>
			<point x="155" y="439"/>
			<point x="180" y="468"/>
			<point x="232" y="468" type="curve" smooth="yes"/>
			<point x="275" y="468"/>
			<point x="305" y="447"/>
			<point x="321" y="407" type="curve" smooth="yes"/>
			<point x="329" y="388"/>
			<point x="348" y="373"/>
			<point x="370" y="373" type="curve" smooth="yes"/>
			<point x="400" y="373"/>
			<point x="424" y="397"/>
			<point x="424" y="427" type="curve" smooth="yes"/>
			<point x="424" y="436"/>
			<point x="422" y="446"/>
			<point x="418" y="453" type="curve" smooth="yes"/>
			<point x="387" y="510"/>
			<point x="327" y="545"/>
			<point x="240" y="545" type="curve" smooth="yes"/>
			<point x="122" y="545"/>
			<point x="44" y="485"/>
			<point x="44" y="386" type="curve" smooth="yes"/>
			<point x="44" y="293"/>
			<point x="116" y="252"/>
			<point x="213" y="227" type="curve" smooth="yes"/>
			<point x="303" y="203"/>
			<point x="339" y="178"/>
			<point x="339" y="132" type="curve" smooth="yes"/>
			<point x="339" y="86"/>
			<point x="298" y="64"/>
			<point x="247" y="64" type="curve" smooth="yes"/>
			<point x="201" y="64"/>
			<point x="162" y="83"/>
			<point x="143" y="131" type="curve" smooth="yes"/>
			<point x="135" y="150"/>
			<point x="116" y="165"/>
			<point x="94" y="165" type="curve" smooth="yes"/>
			<point x="64" y="165"/>
			<point x="40" y="141"/>
			<point x="40" y="111" type="curve" smooth="yes"/>
			<point x="40" y="103"/>
			<point x="41" y="95"/>
			<point x="45" y="87" type="curve" smooth="yes"/>
			<point x="77" y="25"/>
			<point x="137" y="-6"/>
			<point x="212" y="-13" type="curve"/>
			<point x="194" y="-47" type="line" smooth="yes"/>
			<point x="183" y="-69"/>
			<point x="203" y="-73"/>
			<point x="243" y="-85" type="curve" smooth="yes"/>
			<point x="263" y="-92"/>
			<point x="272" y="-104"/>
			<point x="272" y="-122" type="curve" smooth="yes"/>
			<point x="272" y="-146"/>
			<point x="252" y="-161"/>
			<point x="210" y="-161" type="curve" smooth="yes"/>
			<point x="200" y="-161"/>
			<point x="190" y="-160"/>
			<point x="179" y="-159" type="curve" smooth="yes"/>
			<point x="164" y="-156"/>
			<point x="150" y="-168"/>
			<point x="150" y="-183" type="curve" smooth="yes"/>
			<point x="150" y="-195"/>
			<point x="160" y="-205"/>
			<point x="171" y="-207" type="curve" smooth="yes"/>
			<point x="183" y="-209"/>
			<point x="195" y="-210"/>
			<point x="208" y="-210" type="curve" smooth="yes"/>
			<point x="286" y="-210"/>
			<point x="342" y="-181"/>
			<point x="342" y="-122" type="curve" smooth="yes"/>
			<point x="342" y="-76"/>
			<point x="313" y="-48"/>
			<point x="258" y="-41" type="curve"/>
			<point x="272" y="-13" type="line"/>
			<point x="374" y="-5"/>
			<point x="450" y="46"/>
		</contour>
	</outline>
</glyph>
<glyph name="Tbar" format="2">
	<advance width="617"/>
	<unicode hex="0166"/>
	<note>
		Tbar
	</note>
	<outline>
		<contour>
			<point x="379" y="368" type="line"/>
			<point x="379" y="603" type="line"/>
			<point x="582" y="603" type="line" smooth="yes"/>
			<point x="606" y="603"/>
			<point x="626" y="622"/>
			<point x="626" y="647" type="curve" smooth="yes"/>
			<point x="626" y="671"/>
			<point x="606" y="690"/>
			<point x="582" y="690" type="curve" smooth="yes"/>
			<point x="67" y="690" type="line" smooth="yes"/>
			<point x="43" y="690"/>
			<point x="24" y="671"/>
			<point x="24" y="647" type="curve" smooth="yes"/>
			<point x="24" y="622"/>
			<point x="43" y="603"/>
			<point x="67" y="603" type="curve" smooth="yes"/>
			<point x="270" y="603" type="line"/>
			<point x="270" y="368" type="line"/>
			<point x="191" y="368" type="line" smooth="yes"/>
			<point x="173" y="368"/>
			<point x="158" y="353"/>
			<point x="158" y="335" type="curve" smooth="yes"/>
			<point x="158" y="317"/>
			<point x="173" y="302"/>
			<point x="191" y="302" type="curve" smooth="yes"/>
			<point x="270" y="302" type="line"/>
			<point x="270" y="49" type="line" smooth="yes"/>
			<point x="270" y="19"/>
			<point x="294" y="-6"/>
			<point x="325" y="-6" type="curve" smooth="yes"/>
			<point x="355" y="-6"/>
			<point x="379" y="19"/>
			<point x="379" y="49" type="curve" smooth="yes"/>
			<point x="379" y="302" type="line"/>
			<point x="459" y="302" type="line" smooth="yes"/>
			<point x="477" y="302"/>
			<point x="492" y="317"/>
			<point x="492" y="335" type="curve" smooth="yes"/>
			<point x="492" y="353"/>
			<point x="477" y="368"/>
			<point x="459" y="368" type="curve" smooth="yes"/>
		</contour>
	</outline>
</glyph>
<glyph name="uhungarumlaut" format="2">
	<advance width="604"/>
	<unicode hex="0171"/>
	<note>
		uhungarumlaut
	</note>
	<outline>
		<contour>
			<point x="251" y="576"/>
			<point x="256" y="582" type="curve" smooth="yes"/>
			<point x="321" y="655" type="line" smooth="yes"/>
			<point x="325" y="659"/>
			<point x="327" y="665"/>
			<point x="327" y="672" type="curve" smooth="yes"/>
			<point x="327" y="687"/>
			<point x="313" y="699"/>
			<point x="298" y="697" type="curve" smooth="yes"/>
			<point x="251" y="691"/>
			<point x="210" y="654"/>
			<point x="206" y="608" type="curve"/>
			<point x="205" y="606"/>
			<point x="205" y="604"/>
			<point x="205" y="602" type="curve" smooth="yes"/>
			<point x="205" y="586"/>
			<point x="218" y="573"/>
			<point x="234" y="573" type="curve" smooth="yes"/>
			<point x="243" y="573"/>
		</contour>
		<contour>
			<point x="362" y="633"/>
			<point x="362" y="632" type="curve" smooth="yes"/>
			<point x="364" y="592"/>
			<point x="407" y="595"/>
			<point x="434" y="625" type="curve" smooth="yes"/>
			<point x="448" y="641" type="line" smooth="yes"/>
			<point x="453" y="647"/>
			<point x="456" y="655"/>
			<point x="456" y="664" type="curve" smooth="yes"/>
			<point x="456" y="686"/>
			<point x="435" y="702"/>
			<point x="414" y="697" type="curve" smooth="yes"/>
			<point x="385" y="689"/>
			<point x="362" y="664"/>
			<point x="362" y="635" type="curve" smooth="yes"/>
			<point x="362" y="634"/>
		</contour>
		<contour>
			<point x="532" y="49" type="curve" smooth="yes"/>
			<point x="532" y="482" type="line" smooth="yes"/>
			<point x="532" y="512"/>
			<point x="508" y="537"/>
			<point x="478" y="537" type="curve" smooth="yes"/>
			<point x="447" y="537"/>
			<point x="423" y="512"/>
			<point x="423" y="482" type="curve" smooth="yes"/>
			<point x="423" y="281" type="line" smooth="yes"/>
			<point x="423" y="127"/>
			<point x="365" y="68"/>
			<point x="288" y="68" type="curve" smooth="yes"/>
			<point x="220" y="68"/>
			<point x="182" y="106"/>
			<point x="174" y="164" type="curve" smooth="yes"/>
			<point x="171" y="191"/>
			<point x="170" y="220"/>
			<point x="170" y="237" type="curve" smooth="yes"/>
			<point x="170" y="482" type="line" smooth="yes"/>
			<point x="170" y="512"/>
			<point x="146" y="537"/>
			<point x="116" y="537" type="curve" smooth="yes"/>
			<point x="85" y="537"/>
			<point x="61" y="512"/>
			<point x="61" y="482" type="curve" smooth="yes"/>
			<point x="61" y="215" type="line" smooth="yes"/>
			<point x="61" y="172"/>
			<point x="62" y="148"/>
			<point x="66" y="121" type="curve" smooth="yes"/>
			<point x="78" y="48"/>
			<point x="142" y="-14"/>
			<point x="252" y="-14" type="curve" smooth="yes"/>
			<point x="291" y="-14"/>
			<point x="323" y="-9"/>
			<point x="354" y="6" type="curve" smooth="yes"/>
			<point x="378" y="18"/>
			<point x="391" y="34"/>
			<point x="404" y="58" type="curve" smooth="yes"/>
			<point x="423" y="91" type="line"/>
			<point x="423" y="49" type="line" smooth="yes"/>
			<point x="423" y="19"/>
			<point x="447" y="-6"/>
			<point x="478" y="-6" type="curve" smooth="yes"/>
			<point x="508" y="-6"/>
			<point x="532" y="19"/>
		</contour>
	</outline>
</glyph>
<glyph name="wcircumflex" format="2">
	<advance width="806"/>
	<unicode hex="0175"/>
	<note>
		wcircumflex
	</note>
	<outline>
		<contour>
			<point x="372" y="579"/>
			<point x="377" y="590" type="curve" smooth="yes"/>
			<point x="404" y="643" type="line"/>
			<point x="431" y="590" type="line" smooth="yes"/>
			<point x="436" y="579"/>
			<point x="447" y="573"/>
			<point x="459" y="573" type="curve" smooth="yes"/>
			<point x="477" y="573"/>
			<point x="491" y="587"/>
			<point x="491" y="604" type="curve" smooth="yes"/>
			<point x="491" y="610"/>
			<point x="490" y="616"/>
			<point x="487" y="620" type="curve" smooth="yes"/>
			<point x="468" y="652" type="line" smooth="yes"/>
			<point x="452" y="679"/>
			<point x="433" y="692"/>
			<point x="408" y="692" type="curve" smooth="yes"/>
			<point x="362" y="692"/>
			<point x="322" y="657"/>
			<point x="319" y="611" type="curve"/>
			<point x="318" y="609"/>
			<point x="318" y="606"/>
			<point x="318" y="604" type="curve" smooth="yes"/>
			<point x="318" y="586"/>
			<point x="332" y="573"/>
			<point x="349" y="573" type="curve" smooth="yes"/>
			<point x="361" y="573"/>
		</contour>
		<contour>
			<point x="650" y="51" type="curve" smooth="yes"/>
			<point x="782" y="465" type="line" smooth="yes"/>
			<point x="784" y="471"/>
			<point x="785" y="476"/>
			<point x="785" y="482" type="curve" smooth="yes"/>
			<point x="785" y="512"/>
			<point x="760" y="537"/>
			<point x="730" y="537" type="curve" smooth="yes"/>
			<point x="704" y="537"/>
			<point x="683" y="518"/>
			<point x="677" y="495" type="curve" smooth="yes"/>
			<point x="577" y="97" type="line"/>
			<point x="485" y="472" type="line" smooth="yes"/>
			<point x="476" y="509"/>
			<point x="443" y="535"/>
			<point x="404" y="535" type="curve" smooth="yes"/>
			<point x="365" y="535"/>
			<point x="332" y="507"/>
			<point x="323" y="471" type="curve" smooth="yes"/>
			<point x="234" y="98" type="line"/>
			<point x="135" y="493" type="line" smooth="yes"/>
			<point x="129" y="519"/>
			<point x="106" y="536"/>
			<point x="78" y="536" type="curve" smooth="yes"/>
			<point x="47" y="536"/>
			<point x="21" y="511"/>
			<point x="21" y="479" type="curve" smooth="yes"/>
			<point x="21" y="472"/>
			<point x="21" y="466"/>
			<point x="23" y="461" type="curve" smooth="yes"/>
			<point x="154" y="52" type="line" smooth="yes"/>
			<point x="164" y="19"/>
			<point x="195" y="-5"/>
			<point x="232" y="-5" type="curve" smooth="yes"/>
			<point x="270" y="-5"/>
			<point x="302" y="22"/>
			<point x="311" y="57" type="curve" smooth="yes"/>
			<point x="403" y="429" type="line"/>
			<point x="494" y="56" type="line" smooth="yes"/>
			<point x="503" y="20"/>
			<point x="535" y="-6"/>
			<point x="573" y="-6" type="curve" smooth="yes"/>
			<point x="609" y="-6"/>
			<point x="640" y="18"/>
		</contour>
	</outline>
</glyph>
<glyph name="ycircumflex" format="2">
	<advance width="537"/>
	<unicode hex="0177"/>
	<note>
		ycircumflex
	</note>
	<outline>
		<contour>
			<point x="236" y="579"/>
			<point x="241" y="590" type="curve" smooth="yes"/>
			<point x="268" y="643" type="line"/>
			<point x="295" y="590" type="line" smooth="yes"/>
			<point x="300" y="579"/>
			<point x="311" y="573"/>
			<point x="323" y="573" type="curve" smooth="yes"/>
			<point x="341" y="573"/>
			<point x="355" y="587"/>
			<point x="355" y="604" type="curve" smooth="yes"/>
			<point x="355" y="610"/>
			<point x="354" y="616"/>
			<point x="351" y="620" type="curve" smooth="yes"/>
			<point x="332" y="652" type="line" smooth="yes"/>
			<point x="316" y="679"/>
			<point x="297" y="692"/>
			<point x="272" y="692" type="curve" smooth="yes"/>
			<point x="226" y="692"/>
			<point x="186" y="657"/>
			<point x="183" y="611" type="curve"/>
			<point x="182" y="609"/>
			<point x="182" y="606"/>
			<point x="182" y="604" type="curve" smooth="yes"/>
			<point x="182" y="586"/>
			<point x="196" y="573"/>
			<point x="213" y="573" type="curve" smooth="yes"/>
			<point x="225" y="573"/>
		</contour>
		<contour>
			<point x="318" y="-34" type="curve" smooth="yes"/>
			<point x="508" y="462" type="line" smooth="yes"/>
			<point x="510" y="468"/>
			<point x="511" y="475"/>
			<point x="511" y="482" type="curve" smooth="yes"/>
			<point x="511" y="512"/>
			<point x="487" y="537"/>
			<point x="457" y="537" type="curve" smooth="yes"/>
			<point x="432" y="537"/>
			<point x="412" y="521"/>
			<point x="405" y="499" type="curve" smooth="yes"/>
			<point x="270" y="82" type="line"/>
			<point x="135" y="497" type="line" smooth="yes"/>
			<point x="128" y="519"/>
			<point x="106" y="537"/>
			<point x="81" y="537" type="curve" smooth="yes"/>
			<point x="50" y="537"/>
			<point x="25" y="511"/>
			<point x="25" y="480" type="curve" smooth="yes"/>
			<point x="25" y="473"/>
			<point x="26" y="466"/>
			<point x="28" y="460" type="curve" smooth="yes"/>
			<point x="215" y="-25" type="line"/>
			<point x="207" y="-44" type="line" smooth="yes"/>
			<point x="183" y="-106"/>
			<point x="149" y="-127"/>
			<point x="99" y="-127" type="curve" smooth="yes"/>
			<point x="77" y="-127"/>
			<point x="58" y="-146"/>
			<point x="58" y="-168" type="curve" smooth="yes"/>
			<point x="58" y="-191"/>
			<point x="77" y="-210"/>
			<point x="99" y="-210" type="curve" smooth="yes"/>
			<point x="116" y="-210" type="line" smooth="yes"/>
			<point x="212" y="-210"/>
			<point x="269" y="-160"/>
		</contour>
	</outline>
</glyph>
<glyph name="Zacute" format="2">
	<advance width="605"/>
	<unicode hex="0179"/>
	<note>
		Zacute
	</note>
	<outline>
		<contour>
			<point x="341" y="733"/>
			<point x="346" y="739" type="curve" smooth="yes"/>
			<point x="401" y="797" type="line" smooth="yes"/>
			<point x="405" y="802"/>
			<point x="409" y="808"/>
			<point x="409" y="816" type="curve" smooth="yes"/>
			<point x="409" y="833"/>
			<point x="393" y="845"/>
			<point x="377" y="843" type="curve" smooth="yes"/>
			<point x="334" y="837"/>
			<point x="299" y="802"/>
			<point x="297" y="759" type="curve" smooth="yes"/>
			<point x="297" y="743"/>
			<point x="309" y="731"/>
			<point x="325" y="731" type="curve" smooth="yes"/>
			<point x="334" y="731"/>
		</contour>
		<contour>
			<point x="567" y="88"/>
			<point x="543" y="88" type="curve" smooth="yes"/>
			<point x="179" y="88" type="line"/>
			<point x="569" y="595" type="line" smooth="yes"/>
			<point x="576" y="605"/>
			<point x="581" y="618"/>
			<point x="581" y="631" type="curve" smooth="yes"/>
			<point x="581" y="664"/>
			<point x="555" y="690"/>
			<point x="523" y="690" type="curve" smooth="yes"/>
			<point x="114" y="690" type="line" smooth="yes"/>
			<point x="90" y="690"/>
			<point x="71" y="671"/>
			<point x="71" y="647" type="curve" smooth="yes"/>
			<point x="71" y="622"/>
			<point x="90" y="603"/>
			<point x="114" y="603" type="curve" smooth="yes"/>
			<point x="448" y="603" type="line"/>
			<point x="54" y="92" type="line" smooth="yes"/>
			<point x="47" y="82"/>
			<point x="42" y="71"/>
			<point x="42" y="57" type="curve" smooth="yes"/>
			<point x="42" y="26"/>
			<point x="69" y="0"/>
			<point x="100" y="0" type="curve" smooth="yes"/>
			<point x="543" y="0" type="line" smooth="yes"/>
			<point x="567" y="0"/>
			<point x="587" y="20"/>
			<point x="587" y="44" type="curve" smooth="yes"/>
			<point x="587" y="68"/>
		</contour>
	</outline>
</glyph>
<glyph name="circumflex" format="2">
	<advance width="300"/>
	<unicode hex="02C6"/>
	<note>
		circumflex
	</note>
	<outline>
		<contour>
			<point x="150" y="643" type="line"/>
			<point x="177" y="590" type="line" smooth="yes"/>
			<point x="182" y="579"/>
			<point x="193" y="573"/>
			<point x="205" y="573" type="curve" smooth="yes"/>
			<point x="223" y="573"/>
			<point x="237" y="587"/>
			<point x="237" y="604" type="curve" smooth="yes"/>
			<point x="237" y="610"/>
			<point x="236" y="616"/>
			<point x="233" y="620" type="curve" smooth="yes"/>
			<point x="214" y="652" type="line" smooth="yes"/>
			<point x="198" y="679"/>
			<point x="179" y="692"/>
			<point x="154" y="692" type="curve" smooth="yes"/>
			<point x="108" y="692"/>
			<point x="68" y="657"/>
			<point x="65" y="611" type="curve"/>
			<point x="64" y="609"/>
			<point x="64" y="606"/>
			<point x="64" y="604" type="curve" smooth="yes"/>
			<point x="64" y="586"/>
			<point x="78" y="573"/>
			<point x="95" y="573" type="curve" smooth="yes"/>
			<point x="107" y="573"/>
			<point x="118" y="579"/>
			<point x="123" y="590" type="curve" smooth="yes"/>
		</contour>
	</outline>
</glyph>
<glyph name="caron" format="2">
	<advance width="300"/>
	<unicode hex="02C7"/>
	<note>
		caron
	</note>
	<outline>
		<contour>
			<point x="221" y="635"/>
			<point x="221" y="636" type="curve" smooth="yes"/>
			<point x="221" y="679"/>
			<point x="171" y="666"/>
			<point x="152" y="628" type="curve" smooth="yes"/>
			<point x="151" y="626" type="line"/>
			<point x="124" y="680" type="line" smooth="yes"/>
			<point x="119" y="691"/>
			<point x="108" y="698"/>
			<point x="96" y="698" type="curve" smooth="yes"/>
			<point x="78" y="698"/>
			<point x="64" y="683"/>
			<point x="64" y="666" type="curve" smooth="yes"/>
			<point x="64" y="660"/>
			<point x="65" y="654"/>
			<point x="68" y="650" type="curve" smooth="yes"/>
			<point x="87" y="618" type="line" smooth="yes"/>
			<point x="103" y="591"/>
			<point x="125" y="578"/>
			<point x="156" y="578" type="curve" smooth="yes"/>
			<point x="164" y="578" type="line" smooth="yes"/>
			<point x="195" y="578"/>
			<point x="221" y="604"/>
			<point x="221" y="635" type="curve" smooth="yes"/>
			<point x="221" y="635"/>
		</contour>
	</outline>
</glyph>
<glyph name="breve" format="2">
	<advance width="300"/>
	<unicode hex="02D8"/>
	<note>
		breve
	</note>
	<outline>
		<contour>
			<point x="199" y="686"/>
			<point x="196" y="672" type="curve" smooth="yes"/>
			<point x="190" y="640"/>
			<point x="174" y="629"/>
			<point x="150" y="629" type="curve" smooth="yes"/>
			<point x="126" y="629"/>
			<point x="110" y="640"/>
			<point x="104" y="672" type="curve" smooth="yes"/>
			<point x="101" y="686"/>
			<point x="89" y="698"/>
			<point x="73" y="698" type="curve" smooth="yes"/>
			<point x="53" y="698"/>
			<point x="40" y="680"/>
			<point x="42" y="662" type="curve" smooth="yes"/>
			<point x="51" y="595"/>
			<point x="88" y="567"/>
			<point x="150" y="567" type="curve" smooth="yes"/>
			<point x="211" y="567"/>
			<point x="248" y="595"/>
			<point x="258" y="662" type="curve" smooth="yes"/>
			<point x="260" y="680"/>
			<point x="246" y="698"/>
			<point x="227" y="698" type="curve" smooth="yes"/>
			<point x="211" y="698"/>
		</contour>
	</outline>
</glyph>
<glyph name="hungarumlaut" format="2">
	<advance width="300"/>
	<unicode hex="02DD"/>
	<note>
		hungarumlaut
	</note>
	<outline>
		<contour>
			<point x="105" y="576"/>
			<point x="110" y="582" type="curve" smooth="yes"/>
			<point x="175" y="655" type="line" smooth="yes"/>
			<point x="179" y="659"/>
			<point x="181" y="665"/>
			<point x="181" y="672" type="curve" smooth="yes"/>
			<point x="181" y="687"/>
			<point x="167" y="699"/>
			<point x="152" y="697" type="curve" smooth="yes"/>
			<point x="105" y="691"/>
			<point x="64" y="654"/>
			<point x="60" y="608" type="curve"/>
			<point x="59" y="606"/>
			<point x="59" y="604"/>
			<point x="59" y="602" type="curve" smooth="yes"/>
			<point x="59" y="586"/>
			<point x="72" y="573"/>
			<point x="88" y="573" type="curve" smooth="yes"/>
			<point x="97" y="573"/>
		</contour>
		<contour>
			<point x="244" y="576"/>
			<point x="249" y="582" type="curve" smooth="yes"/>
			<point x="314" y="655" type="line" smooth="yes"/>
			<point x="318" y="659"/>
			<point x="320" y="665"/>
			<point x="320" y="672" type="curve" smooth="yes"/>
			<point x="320" y="687"/>
			<point x="306" y="699"/>
			<point x="291" y="697" type="curve" smooth="yes"/>
			<point x="244" y="691"/>
			<point x="203" y="654"/>
			<point x="199" y="608" type="curve"/>
			<point x="198" y="606"/>
			<point x="198" y="604"/>
			<point x="198" y="602" type="curve" smooth="yes"/>
			<point x="198" y="586"/>
			<point x="211" y="573"/>
			<point x="227" y="573" type="curve" smooth="yes"/>
			<point x="236" y="573"/>
		</contour>
	</outline>
</glyph>
<glyph name="uni0326" format="2">
	<advance width="0"/>
	<unicode hex="0326"/>
	<note>
		uni0326
	</note>
	<outline>
		<contour>
			<point x="137" y="-187" type="curve" smooth="yes"/>
			<point x="179" y="-105" type="line" smooth="yes"/>
			<point x="195" y="-74"/>
			<point x="194" y="-36"/>
			<point x="159" y="-34" type="curve" smooth="yes"/>
			<point x="158" y="-34"/>
			<point x="156" y="-34"/>
			<point x="155" y="-34" type="curve" smooth="yes"/>
			<point x="131" y="-34"/>
			<point x="119" y="-52"/>
			<point x="111" y="-72" type="curve" smooth="yes"/>
			<point x="77" y="-160" type="line" smooth="yes"/>
			<point x="76" y="-164"/>
			<point x="74" y="-168"/>
			<point x="74" y="-172" type="curve" smooth="yes"/>
			<point x="74" y="-191"/>
			<point x="89" y="-206"/>
			<point x="108" y="-206" type="curve" smooth="yes"/>
			<point x="121" y="-206"/>
			<point x="132" y="-198"/>
		</contour>
	</outline>
</glyph>
<glyph name="endash" format="2">
	<advance width="500"/>
	<unicode hex="2013"/>
	<note>
		endash
	</note>
	<outline>
		<contour>
			<point x="103" y="259" type="curve" smooth="yes"/>
			<point x="398" y="259" type="line" smooth="yes"/>
			<point x="416" y="259"/>
			<point x="431" y="274"/>
			<point x="431" y="292" type="curve" smooth="yes"/>
			<point x="431" y="310"/>
			<point x="416" y="325"/>
			<point x="398" y="325" type="curve" smooth="yes"/>
			<point x="103" y="325" type="line" smooth="yes"/>
			<point x="85" y="325"/>
			<point x="70" y="310"/>
			<point x="70" y="292" type="curve" smooth="yes"/>
			<point x="70" y="274"/>
			<point x="85" y="259"/>
		</contour>
	</outline>
</glyph>
<glyph name="dagger" format="2">
	<advance width="555"/>
	<unicode hex="2020"/>
	<note>
		dagger
	</note>
	<outline>
		<contour>
			<point x="324" y="372" type="line"/>
			<point x="461" y="367" type="line" smooth="yes"/>
			<point x="487" y="366"/>
			<point x="509" y="387"/>
			<point x="509" y="413" type="curve" smooth="yes"/>
			<point x="509" y="440"/>
			<point x="486" y="461"/>
			<point x="461" y="460" type="curve" smooth="yes"/>
			<point x="325" y="455" type="line"/>
			<point x="334" y="637" type="line" smooth="yes"/>
			<point x="335" y="668"/>
			<point x="309" y="696"/>
			<point x="278" y="696" type="curve" smooth="yes"/>
			<point x="246" y="696"/>
			<point x="220" y="668"/>
			<point x="221" y="637" type="curve" smooth="yes"/>
			<point x="230" y="455" type="line"/>
			<point x="94" y="460" type="line" smooth="yes"/>
			<point x="70" y="461"/>
			<point x="45" y="441"/>
			<point x="45" y="413" type="curve" smooth="yes"/>
			<point x="45" y="385"/>
			<point x="70" y="365"/>
			<point x="94" y="366" type="curve" smooth="yes"/>
			<point x="231" y="371" type="line"/>
			<point x="220" y="-107" type="line" smooth="yes"/>
			<point x="219" y="-139"/>
			<point x="245" y="-165"/>
			<point x="278" y="-165" type="curve" smooth="yes"/>
			<point x="310" y="-165"/>
			<point x="336" y="-139"/>
			<point x="335" y="-107" type="curve" smooth="yes"/>
		</contour>
	</outline>
</glyph>
<glyph name="daggerdbl" format="2">
	<advance width="555"/>
	<unicode hex="2021"/>
	<note>
		daggerdbl
	</note>
	<outline>
		<contour>
			<point x="324" y="158" type="line"/>
			<point x="324" y="372" type="line"/>
			<point x="461" y="367" type="line" smooth="yes"/>
			<point x="487" y="366"/>
			<point x="509" y="387"/>
			<point x="509" y="413" type="curve" smooth="yes"/>
			<point x="509" y="440"/>
			<point x="486" y="461"/>
			<point x="461" y="460" type="curve" smooth="yes"/>
			<point x="325" y="455" type="line"/>
			<point x="334" y="637" type="line" smooth="yes"/>
			<point x="335" y="668"/>
			<point x="309" y="696"/>
			<point x="278" y="696" type="curve" smooth="yes"/>
			<point x="246" y="696"/>
			<point x="220" y="668"/>
			<point x="221" y="637" type="curve" smooth="yes"/>
			<point x="230" y="455" type="line"/>
			<point x="94" y="460" type="line" smooth="yes"/>
			<point x="70" y="461"/>
			<point x="45" y="441"/>
			<point x="45" y="413" type="curve" smooth="yes"/>
			<point x="45" y="385"/>
			<point x="70" y="365"/>
			<point x="94" y="366" type="curve" smooth="yes"/>
			<point x="231" y="371" type="line"/>
			<point x="231" y="159" type="line"/>
			<point x="94" y="164" type="line" smooth="yes"/>
			<point x="70" y="165"/>
			<point x="45" y="145"/>
			<point x="45" y="117" type="curve" smooth="yes"/>
			<point x="45" y="89"/>
			<point x="70" y="69"/>
			<point x="94" y="70" type="curve" smooth="yes"/>
			<point x="230" y="75" type="line"/>
			<point x="221" y="-107" type="line" smooth="yes"/>
			<point x="220" y="-138"/>
			<point x="246" y="-166"/>
			<point x="277" y="-166" type="curve" smooth="yes"/>
			<point x="309" y="-166"/>
			<point x="335" y="-138"/>
			<point x="334" y="-107" type="curve" smooth="yes"/>
			<point x="325" y="75" type="line"/>
			<point x="461" y="70" type="line" smooth="yes"/>
			<point x="486" y="69"/>
			<point x="510" y="90"/>
			<point x="510" y="117" type="curve" smooth="yes"/>
			<point x="510" y="143"/>
			<point x="487" y="164"/>
			<point x="461" y="163" type="curve" smooth="yes"/>
		</contour>
	</outline>
</glyph>
<glyph name="trademark" format="2">
	<advance width="539"/>
	<unicode hex="2122"/>
	<note>
		trademark
	</note>
	<outline>
		<contour>
			<point x="220" y="639" type="curve" smooth="yes"/>
			<point x="220" y="653"/>
			<point x="199" y="660"/>
			<point x="162" y="660" type="curve" smooth="yes"/>
			<point x="79" y="660" type="line" smooth="yes"/>
			<point x="42" y="660"/>
			<point x="21" y="652"/>
			<point x="21" y="639" type="curve" smooth="yes"/>
			<point x="21" y="626"/>
			<point x="42" y="618"/>
			<point x="79" y="618" type="curve" smooth="yes"/>
			<point x="94" y="618" type="line"/>
			<point x="94" y="477" type="line" smooth="yes"/>
			<point x="94" y="463"/>
			<point x="106" y="451"/>
			<point x="121" y="451" type="curve" smooth="yes"/>
			<point x="135" y="451"/>
			<point x="147" y="463"/>
			<point x="147" y="477" type="curve" smooth="yes"/>
			<point x="147" y="618" type="line"/>
			<point x="184" y="618" type="line" smooth="yes"/>
			<point x="207" y="618"/>
			<point x="220" y="626"/>
		</contour>
		<contour>
			<point x="481" y="477" type="curve" smooth="yes"/>
			<point x="481" y="622" type="line" smooth="yes"/>
			<point x="481" y="645"/>
			<point x="462" y="664"/>
			<point x="438" y="664" type="curve" smooth="yes"/>
			<point x="419" y="664"/>
			<point x="402" y="652"/>
			<point x="397" y="633" type="curve" smooth="yes"/>
			<point x="364" y="508" type="line"/>
			<point x="330" y="632" type="line" smooth="yes"/>
			<point x="325" y="650"/>
			<point x="308" y="664"/>
			<point x="288" y="664" type="curve" smooth="yes"/>
			<point x="264" y="664"/>
			<point x="244" y="645"/>
			<point x="244" y="621" type="curve" smooth="yes"/>
			<point x="244" y="477" type="line" smooth="yes"/>
			<point x="244" y="463"/>
			<point x="256" y="450"/>
			<point x="270" y="450" type="curve" smooth="yes"/>
			<point x="285" y="450"/>
			<point x="297" y="463"/>
			<point x="297" y="477" type="curve" smooth="yes"/>
			<point x="296" y="597" type="line"/>
			<point x="329" y="479" type="line" smooth="yes"/>
			<point x="333" y="464"/>
			<point x="347" y="454"/>
			<point x="363" y="454" type="curve" smooth="yes"/>
			<point x="378" y="454"/>
			<point x="392" y="464"/>
			<point x="396" y="479" type="curve" smooth="yes"/>
			<point x="430" y="598" type="line"/>
			<point x="428" y="477" type="line" smooth="yes"/>
			<point x="428" y="463"/>
			<point x="440" y="450"/>
			<point x="455" y="450" type="curve" smooth="yes"/>
			<point x="469" y="450"/>
			<point x="481" y="463"/>
		</contour>
	</outline>
</glyph>
<glyph name="radical" format="2">
	<advance width="601"/>
	<unicode hex="221A"/>
	<note>
		radical
	</note>
	<outline>
		<contour>
			<point x="358" y="-122" type="curve" smooth="yes"/>
			<point x="557" y="742" type="line" smooth="yes"/>
			<point x="562" y="764"/>
			<point x="546" y="786"/>
			<point x="523" y="786" type="curve" smooth="yes"/>
			<point x="506" y="786"/>
			<point x="491" y="774"/>
			<point x="488" y="758" type="curve" smooth="yes"/>
			<point x="304" y="-74" type="line"/>
			<point x="204" y="259" type="line" smooth="yes"/>
			<point x="194" y="292"/>
			<point x="164" y="315"/>
			<point x="128" y="315" type="curve" smooth="yes"/>
			<point x="114" y="315"/>
			<point x="100" y="311"/>
			<point x="89" y="305" type="curve" smooth="yes"/>
			<point x="63" y="291"/>
			<point x="54" y="256"/>
			<point x="82" y="247" type="curve" smooth="yes"/>
			<point x="85" y="246"/>
			<point x="88" y="246"/>
			<point x="91" y="246" type="curve" smooth="yes"/>
			<point x="134" y="246" type="line"/>
			<point x="251" y="-127" type="line" smooth="yes"/>
			<point x="258" y="-149"/>
			<point x="279" y="-165"/>
			<point x="304" y="-165" type="curve" smooth="yes"/>
			<point x="330" y="-165"/>
			<point x="352" y="-146"/>
		</contour>
	</outline>
</glyph>
<glyph name="approxequal" format="2">
	<advance width="601"/>
	<unicode hex="2248"/>
	<note>
		approxequal
	</note>
	<outline>
		<contour>
			<point x="195" y="453" type="curve" smooth="yes"/>
			<point x="150" y="453"/>
			<point x="117" y="437"/>
			<point x="84" y="397" type="curve" smooth="yes"/>
			<point x="80" y="392"/>
			<point x="77" y="384"/>
			<point x="77" y="376" type="curve" smooth="yes"/>
			<point x="77" y="358"/>
			<point x="91" y="343"/>
			<point x="110" y="343" type="curve" smooth="yes"/>
			<point x="119" y="343"/>
			<point x="127" y="347"/>
			<point x="133" y="354" type="curve" smooth="yes"/>
			<point x="151" y="373"/>
			<point x="169" y="381"/>
			<point x="192" y="381" type="curve" smooth="yes"/>
			<point x="220" y="381"/>
			<point x="244" y="368"/>
			<point x="286" y="346" type="curve" smooth="yes"/>
			<point x="339" y="317"/>
			<point x="364" y="305"/>
			<point x="404" y="305" type="curve" smooth="yes"/>
			<point x="450" y="305"/>
			<point x="483" y="322"/>
			<point x="516" y="363" type="curve" smooth="yes"/>
			<point x="520" y="368"/>
			<point x="523" y="376"/>
			<point x="523" y="383" type="curve" smooth="yes"/>
			<point x="523" y="401"/>
			<point x="509" y="415"/>
			<point x="491" y="415" type="curve" smooth="yes"/>
			<point x="482" y="415"/>
			<point x="474" y="412"/>
			<point x="468" y="405" type="curve" smooth="yes"/>
			<point x="449" y="385"/>
			<point x="431" y="377"/>
			<point x="408" y="377" type="curve" smooth="yes"/>
			<point x="380" y="377"/>
			<point x="356" y="389"/>
			<point x="313" y="412" type="curve" smooth="yes"/>
			<point x="261" y="440"/>
			<point x="235" y="453"/>
		</contour>
		<contour>
			<point x="195" y="283" type="curve" smooth="yes"/>
			<point x="150" y="283"/>
			<point x="117" y="267"/>
			<point x="84" y="227" type="curve" smooth="yes"/>
			<point x="80" y="222"/>
			<point x="77" y="214"/>
			<point x="77" y="206" type="curve" smooth="yes"/>
			<point x="77" y="188"/>
			<point x="91" y="173"/>
			<point x="110" y="173" type="curve" smooth="yes"/>
			<point x="119" y="173"/>
			<point x="127" y="177"/>
			<point x="133" y="184" type="curve" smooth="yes"/>
			<point x="151" y="203"/>
			<point x="169" y="211"/>
			<point x="192" y="211" type="curve" smooth="yes"/>
			<point x="220" y="211"/>
			<point x="244" y="198"/>
			<point x="286" y="176" type="curve" smooth="yes"/>
			<point x="339" y="147"/>
			<point x="364" y="135"/>
			<point x="404" y="135" type="curve" smooth="yes"/>
			<point x="450" y="135"/>
			<point x="483" y="152"/>
			<point x="516" y="193" type="curve" smooth="yes"/>
			<point x="520" y="198"/>
			<point x="523" y="206"/>
			<point x="523" y="213" type="curve" smooth="yes"/>
			<point x="523" y="231"/>
			<point x="509" y="245"/>
			<point x="491" y="245" type="curve" smooth="yes"/>
			<point x="482" y="245"/>
			<point x="474" y="242"/>
			<point x="468" y="235" type="curve" smooth="yes"/>
			<point x="449" y="215"/>
			<point x="431" y="207"/>
			<point x="408" y="207" type="curve" smooth="yes"/>
			<point x="380" y="207"/>
			<point x="356" y="219"/>
			<point x="313" y="242" type="curve" smooth="yes"/>
			<point x="261" y="270"/>
			<point x="235" y="283"/>
		</contour>
	</outline>
</glyph>
<glyph name="greaterequal" format="2">
	<advance width="601"/>
	<unicode hex="2265"/>
	<note>
		greaterequal
	</note>
	<outline>
		<contour>
			<point x="491" y="357"/>
			<point x="469" y="366" type="curve" smooth="yes"/>
			<point x="122" y="498" type="line" smooth="yes"/>
			<point x="118" y="499"/>
			<point x="114" y="501"/>
			<point x="109" y="501" type="curve" smooth="yes"/>
			<point x="89" y="501"/>
			<point x="73" y="484"/>
			<point x="73" y="464" type="curve" smooth="yes"/>
			<point x="73" y="448"/>
			<point x="83" y="434"/>
			<point x="97" y="429" type="curve" smooth="yes"/>
			<point x="429" y="312" type="line"/>
			<point x="97" y="193" type="line" smooth="yes"/>
			<point x="83" y="188"/>
			<point x="73" y="174"/>
			<point x="73" y="158" type="curve" smooth="yes"/>
			<point x="73" y="138"/>
			<point x="89" y="122"/>
			<point x="109" y="122" type="curve" smooth="yes"/>
			<point x="114" y="122"/>
			<point x="118" y="123"/>
			<point x="122" y="124" type="curve" smooth="yes"/>
			<point x="469" y="257" type="line" smooth="yes"/>
			<point x="491" y="266"/>
			<point x="506" y="286"/>
			<point x="506" y="311" type="curve" smooth="yes"/>
			<point x="506" y="337"/>
		</contour>
		<contour>
			<point x="474" y="66" type="curve" smooth="yes"/>
			<point x="106" y="66" type="line" smooth="yes"/>
			<point x="88" y="66"/>
			<point x="73" y="51"/>
			<point x="73" y="33" type="curve" smooth="yes"/>
			<point x="73" y="15"/>
			<point x="88" y="0"/>
			<point x="106" y="0" type="curve" smooth="yes"/>
			<point x="474" y="0" type="line" smooth="yes"/>
			<point x="492" y="0"/>
			<point x="507" y="15"/>
			<point x="507" y="33" type="curve" smooth="yes"/>
			<point x="507" y="51"/>
			<point x="492" y="66"/>
		</contour>
	</outline>
</glyph>
<glyph name="lozenge" format="2">
	<advance width="523"/>
	<unicode hex="25CA"/>
	<note>
		lozenge
	</note>
	<outline>
		<contour>
			<point x="320" y="31" type="curve" smooth="yes"/>
			<point x="451" y="306" type="line" smooth="yes"/>
			<point x="464" y="333"/>
			<point x="464" y="357"/>
			<point x="451" y="384" type="curve" smooth="yes"/>
			<point x="320" y="659" type="line" smooth="yes"/>
			<point x="310" y="681"/>
			<point x="287" y="696"/>
			<point x="261" y="696" type="curve" smooth="yes"/>
			<point x="236" y="696"/>
			<point x="213" y="681"/>
			<point x="203" y="659" type="curve" smooth="yes"/>
			<point x="72" y="384" type="line" smooth="yes"/>
			<point x="59" y="357"/>
			<point x="59" y="333"/>
			<point x="72" y="306" type="curve" smooth="yes"/>
			<point x="203" y="31" type="line" smooth="yes"/>
			<point x="213" y="9"/>
			<point x="236" y="-6"/>
			<point x="262" y="-6" type="curve" smooth="yes"/>
			<point x="287" y="-6"/>
			<point x="310" y="9"/>
		</contour>
		<contour>
			<point x="262" y="618" type="line"/>
			<point x="387" y="345" type="line"/>
			<point x="262" y="72" type="line"/>
			<point x="136" y="345" type="line"/>
		</contour>
	</outline>
</glyph>
<glyph name="uF1810" format="2">
	<advance width="974"/>
	<unicode hex="F1810"/>
	<outline>
		<contour>
			<point x="558" y="88"/>
			<point x="534" y="88" type="curve" smooth="yes"/>
			<point x="205" y="88" type="line"/>
			<point x="205" y="302" type="line"/>
			<point x="778" y="302" type="line"/>
			<point x="842" y="107" type="line" smooth="yes"/>
			<point x="849" y="84"/>
			<point x="870" y="68"/>
			<point x="895" y="68" type="curve" smooth="yes"/>
			<point x="926" y="68"/>
			<point x="951" y="94"/>
			<point x="951" y="124" type="curve" smooth="yes"/>
			<point x="951" y="131"/>
			<point x="950" y="138"/>
			<point x="948" y="143" type="curve" smooth="yes"/>
			<point x="747" y="717" type="line" smooth="yes"/>
			<point x="736" y="748"/>
			<point x="714" y="764"/>
			<point x="681" y="764" type="curve" smooth="yes"/>
			<point x="638" y="764" type="line" smooth="yes"/>
			<point x="605" y="764"/>
			<point x="584" y="750"/>
			<point x="572" y="718" type="curve" smooth="yes"/>
			<point x="561" y="690" type="line"/>
			<point x="153" y="690" type="line" smooth="yes"/>
			<point x="116" y="690"/>
			<point x="95" y="669"/>
			<point x="95" y="632" type="curve" smooth="yes"/>
			<point x="95" y="58" type="line" smooth="yes"/>
			<point x="95" y="21"/>
			<point x="116" y="0"/>
			<point x="153" y="0" type="curve" smooth="yes"/>
			<point x="534" y="0" type="line" smooth="yes"/>
			<point x="558" y="0"/>
			<point x="578" y="20"/>
			<point x="578" y="44" type="curve" smooth="yes"/>
			<point x="578" y="68"/>
		</contour>
		<contour>
			<point x="205" y="389" type="line"/>
			<point x="205" y="603" type="line"/>
			<point x="529" y="603" type="line"/>
			<point x="449" y="389" type="line"/>
		</contour>
		<contour>
			<point x="562" y="389" type="line"/>
			<point x="658" y="673" type="line"/>
			<point x="749" y="389" type="line"/>
		</contour>
	</outline>
</glyph>
<glyph name="uF18A0" format="2">
	<advance width="1029"/>
	<unicode hex="F18A0"/>
	<outline>
		<contour>
			<point x="967" y="267" type="curve" smooth="yes"/>
			<point x="967" y="641" type="line" smooth="yes"/>
			<point x="967" y="671"/>
			<point x="943" y="696"/>
			<point x="913" y="696" type="curve" smooth="yes"/>
			<point x="882" y="696"/>
			<point x="858" y="671"/>
			<point x="858" y="641" type="curve" smooth="yes"/>
			<point x="858" y="265" type="line" smooth="yes"/>
			<point x="858" y="244"/>
			<point x="858" y="225"/>
			<point x="856" y="209" type="curve" smooth="yes"/>
			<point x="849" y="126"/>
			<point x="796" y="70"/>
			<point x="696" y="70" type="curve" smooth="yes"/>
			<point x="597" y="70"/>
			<point x="544" y="126"/>
			<point x="537" y="209" type="curve" smooth="yes"/>
			<point x="535" y="225"/>
			<point x="535" y="244"/>
			<point x="535" y="265" type="curve" smooth="yes"/>
			<point x="535" y="331" type="line" smooth="yes"/>
			<point x="535" y="368"/>
			<point x="514" y="389"/>
			<point x="477" y="389" type="curve" smooth="yes"/>
			<point x="205" y="389" type="line"/>
			<point x="205" y="603" type="line"/>
			<point x="524" y="603" type="line" smooth="yes"/>
			<point x="548" y="603"/>
			<point x="568" y="622"/>
			<point x="568" y="647" type="curve" smooth="yes"/>
			<point x="568" y="671"/>
			<point x="548" y="690"/>
			<point x="524" y="690" type="curve" smooth="yes"/>
			<point x="153" y="690" type="line" smooth="yes"/>
			<point x="116" y="690"/>
			<point x="95" y="669"/>
			<point x="95" y="632" type="curve" smooth="yes"/>
			<point x="95" y="58" type="line" smooth="yes"/>
			<point x="95" y="21"/>
			<point x="116" y="0"/>
			<point x="153" y="0" type="curve" smooth="yes"/>
			<point x="588" y="0" type="line"/>
			<point x="619" y="-9"/>
			<point x="655" y="-14"/>
			<point x="696" y="-14" type="curve" smooth="yes"/>
			<point x="876" y="-14"/>
			<point x="955" y="81"/>
			<point x="965" y="196" type="curve" smooth="yes"/>
			<point x="967" y="222"/>
			<point x="967" y="242"/>
		</contour>
		<contour>
			<point x="205" y="88" type="line"/>
			<point x="205" y="302" type="line"/>
			<point x="426" y="302" type="line"/>
			<point x="426" y="267" type="line" smooth="yes"/>
			<point x="426" y="242"/>
			<point x="426" y="222"/>
			<point x="428" y="196" type="curve" smooth="yes"/>
			<point x="431" y="157"/>
			<point x="442" y="120"/>
			<point x="463" y="88" type="curve"/>
		</contour>
	</outline>
</glyph>
<glyph name="uF1A00" format="2">
	<advance width="1376"/>
	<unicode hex="F1A00"/>
	<outline>
		<contour>
			<point x="558" y="88"/>
			<point x="534" y="88" type="curve" smooth="yes"/>
			<point x="205" y="88" type="line"/>
			<point x="205" y="302" type="line"/>
			<point x="496" y="302" type="line" smooth="yes"/>
			<point x="520" y="302"/>
			<point x="540" y="321"/>
			<point x="540" y="346" type="curve" smooth="yes"/>
			<point x="540" y="370"/>
			<point x="520" y="389"/>
			<point x="496" y="389" type="curve" smooth="yes"/>
			<point x="205" y="389" type="line"/>
			<point x="205" y="603" type="line"/>
			<point x="524" y="603" type="line" smooth="yes"/>
			<point x="548" y="603"/>
			<point x="568" y="622"/>
			<point x="568" y="647" type="curve" smooth="yes"/>
			<point x="568" y="671"/>
			<point x="548" y="690"/>
			<point x="524" y="690" type="curve" smooth="yes"/>
			<point x="153" y="690" type="line" smooth="yes"/>
			<point x="116" y="690"/>
			<point x="95" y="669"/>
			<point x="95" y="632" type="curve" smooth="yes"/>
			<point x="95" y="58" type="line" smooth="yes"/>
			<point x="95" y="21"/>
			<point x="116" y="0"/>
			<point x="153" y="0" type="curve" smooth="yes"/>
			<point x="534" y="0" type="line" smooth="yes"/>
			<point x="558" y="0"/>
			<point x="578" y="20"/>
			<point x="578" y="44" type="curve" smooth="yes"/>
			<point x="578" y="68"/>
		</contour>
		<contour>
			<point x="236" y="758" type="curve" smooth="yes"/>
			<point x="439" y="758" type="line" smooth="yes"/>
			<point x="456" y="758"/>
			<point x="471" y="772"/>
			<point x="471" y="790" type="curve" smooth="yes"/>
			<point x="471" y="807"/>
			<point x="456" y="821"/>
			<point x="439" y="821" type="curve" smooth="yes"/>
			<point x="236" y="821" type="line" smooth="yes"/>
			<point x="219" y="821"/>
			<point x="205" y="807"/>
			<point x="205" y="790" type="curve" smooth="yes"/>
			<point x="205" y="772"/>
			<point x="219" y="758"/>
		</contour>
		<contour>
			<point x="667" y="603" type="curve" smooth="yes"/>
			<point x="870" y="603" type="line"/>
			<point x="870" y="0" type="line"/>
			<point x="871" y="-244" type="line" smooth="yes"/>
			<point x="871" y="-281"/>
			<point x="892" y="-302"/>
			<point x="929" y="-302" type="curve" smooth="yes"/>
			<point x="1310" y="-302" type="line" smooth="yes"/>
			<point x="1334" y="-302"/>
			<point x="1354" y="-282"/>
			<point x="1354" y="-258" type="curve" smooth="yes"/>
			<point x="1354" y="-234"/>
			<point x="1334" y="-214"/>
			<point x="1310" y="-214" type="curve" smooth="yes"/>
			<point x="981" y="-214" type="line"/>
			<point x="981" y="0" type="line"/>
			<point x="1272" y="0" type="line" smooth="yes"/>
			<point x="1296" y="0"/>
			<point x="1316" y="19"/>
			<point x="1316" y="44" type="curve" smooth="yes"/>
			<point x="1316" y="68"/>
			<point x="1296" y="87"/>
			<point x="1272" y="87" type="curve" smooth="yes"/>
			<point x="981" y="87" type="line"/>
			<point x="981" y="301" type="line"/>
			<point x="1300" y="301" type="line" smooth="yes"/>
			<point x="1324" y="301"/>
			<point x="1344" y="320"/>
			<point x="1344" y="345" type="curve" smooth="yes"/>
			<point x="1344" y="369"/>
			<point x="1324" y="388"/>
			<point x="1300" y="388" type="curve" smooth="yes"/>
			<point x="979" y="388" type="line"/>
			<point x="979" y="603" type="line"/>
			<point x="1182" y="603" type="line" smooth="yes"/>
			<point x="1206" y="603"/>
			<point x="1226" y="622"/>
			<point x="1226" y="647" type="curve" smooth="yes"/>
			<point x="1226" y="671"/>
			<point x="1206" y="690"/>
			<point x="1182" y="690" type="curve" smooth="yes"/>
			<point x="667" y="690" type="line" smooth="yes"/>
			<point x="643" y="690"/>
			<point x="624" y="671"/>
			<point x="624" y="647" type="curve" smooth="yes"/>
			<point x="624" y="622"/>
			<point x="643" y="603"/>
		</contour>
	</outline>
</glyph>
<glyph name="uF2710" format="2">
	<advance width="597"/>
	<unicode hex="F2710"/>
	<outline>
		<contour>
			<point x="119" y="-6" type="curve" smooth="yes"/>
			<point x="149" y="-6"/>
			<point x="174" y="20"/>
			<point x="174" y="50" type="curve" smooth="yes"/>
			<point x="174" y="236" type="line"/>
			<point x="176" y="236" type="line" smooth="yes"/>
			<point x="177" y="236"/>
			<point x="187" y="235"/>
			<point x="213" y="235" type="curve" smooth="yes"/>
			<point x="502" y="235" type="line" smooth="yes"/>
			<point x="539" y="235"/>
			<point x="561" y="279"/>
			<point x="561" y="279" type="curve" smooth="yes"/>
			<point x="561" y="429"/>
			<point x="478" y="545"/>
			<point x="324" y="545" type="curve" smooth="yes"/>
			<point x="266" y="545"/>
			<point x="215" y="529"/>
			<point x="174" y="500" type="curve"/>
			<point x="158" y="500"/>
			<point x="149" y="502"/>
			<point x="121" y="500" type="curve" smooth="yes"/>
			<point x="84" y="499"/>
			<point x="64" y="461"/>
			<point x="64" y="424" type="curve" smooth="yes"/>
			<point x="64" y="50" type="line" smooth="yes"/>
			<point x="64" y="20"/>
			<point x="89" y="-6"/>
		</contour>
		<contour>
			<point x="120" y="584" type="curve" smooth="yes"/>
			<point x="150" y="584"/>
			<point x="175" y="609"/>
			<point x="175" y="639" type="curve" smooth="yes"/>
			<point x="175" y="666" type="line" smooth="yes"/>
			<point x="175" y="696"/>
			<point x="150" y="722"/>
			<point x="120" y="722" type="curve" smooth="yes"/>
			<point x="89" y="722"/>
			<point x="64" y="696"/>
			<point x="64" y="666" type="curve" smooth="yes"/>
			<point x="64" y="639" type="line" smooth="yes"/>
			<point x="64" y="609"/>
			<point x="89" y="584"/>
		</contour>
		<contour>
			<point x="179" y="312" type="line"/>
			<point x="191" y="414"/>
			<point x="245" y="465"/>
			<point x="320" y="465" type="curve" smooth="yes"/>
			<point x="397" y="465"/>
			<point x="440" y="410"/>
			<point x="448" y="312" type="curve"/>
		</contour>
	</outline>
</glyph>
<glyph name="uF3210" format="2">
	<advance width="837"/>
	<unicode hex="F3210"/>
	<outline>
		<contour>
			<point x="153" y="0" type="curve" smooth="yes"/>
			<point x="769" y="0" type="line" smooth="yes"/>
			<point x="794" y="0"/>
			<point x="815" y="21"/>
			<point x="815" y="46" type="curve" smooth="yes"/>
			<point x="815" y="71"/>
			<point x="794" y="92"/>
			<point x="769" y="92" type="curve" smooth="yes"/>
			<point x="443" y="92" type="line"/>
			<point x="443" y="302" type="line"/>
			<point x="734" y="302" type="line" smooth="yes"/>
			<point x="758" y="302"/>
			<point x="778" y="321"/>
			<point x="778" y="346" type="curve" smooth="yes"/>
			<point x="778" y="370"/>
			<point x="758" y="389"/>
			<point x="734" y="389" type="curve" smooth="yes"/>
			<point x="443" y="389" type="line"/>
			<point x="443" y="603" type="line"/>
			<point x="762" y="603" type="line" smooth="yes"/>
			<point x="786" y="603"/>
			<point x="806" y="622"/>
			<point x="806" y="647" type="curve" smooth="yes"/>
			<point x="806" y="671"/>
			<point x="786" y="690"/>
			<point x="762" y="690" type="curve" smooth="yes"/>
			<point x="391" y="690" type="line" smooth="yes"/>
			<point x="354" y="690"/>
			<point x="333" y="669"/>
			<point x="333" y="632" type="curve" smooth="yes"/>
			<point x="333" y="91" type="line"/>
			<point x="205" y="91" type="line"/>
			<point x="205" y="641" type="line" smooth="yes"/>
			<point x="205" y="671"/>
			<point x="180" y="696"/>
			<point x="150" y="696" type="curve" smooth="yes"/>
			<point x="120" y="696"/>
			<point x="95" y="671"/>
			<point x="95" y="641" type="curve" smooth="yes"/>
			<point x="95" y="58" type="line" smooth="yes"/>
			<point x="95" y="21"/>
			<point x="116" y="0"/>
		</contour>
	</outline>
</glyph>
<glyph name="uF3310" format="2">
	<advance width="598"/>
	<unicode hex="F3310"/>
	<outline>
		<contour>
			<point x="175" y="162" type="curve" smooth="yes"/>
			<point x="175" y="233" type="line"/>
			<point x="504" y="235" type="line" smooth="yes"/>
			<point x="541" y="235"/>
			<point x="562" y="279"/>
			<point x="562" y="279" type="curve" smooth="yes"/>
			<point x="562" y="429"/>
			<point x="479" y="545"/>
			<point x="325" y="545" type="curve" smooth="yes"/>
			<point x="267" y="545"/>
			<point x="216" y="529"/>
			<point x="175" y="500" type="curve"/>
			<point x="175" y="686" type="line" smooth="yes"/>
			<point x="175" y="716"/>
			<point x="150" y="741"/>
			<point x="120" y="741" type="curve" smooth="yes"/>
			<point x="90" y="741"/>
			<point x="65" y="716"/>
			<point x="65" y="686" type="curve" smooth="yes"/>
			<point x="65" y="159" type="line" smooth="yes"/>
			<point x="65" y="127"/>
			<point x="65" y="103"/>
			<point x="66" y="83" type="curve" smooth="yes"/>
			<point x="70" y="15"/>
			<point x="109" y="-6"/>
			<point x="167" y="-6" type="curve" smooth="yes"/>
			<point x="180" y="-6"/>
			<point x="193" y="-5"/>
			<point x="207" y="-4" type="curve" smooth="yes"/>
			<point x="228" y="-2"/>
			<point x="245" y="14"/>
			<point x="245" y="36" type="curve" smooth="yes"/>
			<point x="245" y="56"/>
			<point x="229" y="73"/>
			<point x="209" y="76" type="curve" smooth="yes"/>
			<point x="185" y="79"/>
			<point x="177" y="90"/>
			<point x="176" y="112" type="curve" smooth="yes"/>
			<point x="175" y="128"/>
			<point x="175" y="144"/>
		</contour>
		<contour>
			<point x="180" y="312" type="line"/>
			<point x="192" y="414"/>
			<point x="246" y="465"/>
			<point x="321" y="465" type="curve" smooth="yes"/>
			<point x="398" y="465"/>
			<point x="441" y="410"/>
			<point x="449" y="312" type="curve"/>
		</contour>
	</outline>
</glyph>
<glyph name="uF3330" format="2">
	<advance width="860"/>
	<unicode hex="F3330"/>
	<outline>
		<contour>
			<point x="175" y="162" type="curve" smooth="yes"/>
			<point x="175" y="686" type="line" smooth="yes"/>
			<point x="175" y="716"/>
			<point x="150" y="741"/>
			<point x="120" y="741" type="curve" smooth="yes"/>
			<point x="90" y="741"/>
			<point x="65" y="716"/>
			<point x="65" y="686" type="curve" smooth="yes"/>
			<point x="65" y="159" type="line" smooth="yes"/>
			<point x="65" y="127"/>
			<point x="65" y="103"/>
			<point x="66" y="83" type="curve" smooth="yes"/>
			<point x="70" y="15"/>
			<point x="109" y="-6"/>
			<point x="167" y="-6" type="curve" smooth="yes"/>
			<point x="180" y="-6"/>
			<point x="193" y="-5"/>
			<point x="207" y="-4" type="curve" smooth="yes"/>
			<point x="228" y="-2"/>
			<point x="245" y="14"/>
			<point x="245" y="36" type="curve" smooth="yes"/>
			<point x="245" y="56"/>
			<point x="229" y="73"/>
			<point x="209" y="76" type="curve" smooth="yes"/>
			<point x="185" y="79"/>
			<point x="177" y="90"/>
			<point x="176" y="112" type="curve" smooth="yes"/>
			<point x="175" y="128"/>
			<point x="175" y="144"/>
		</contour>
		<contour>
			<point x="437" y="162" type="curve" smooth="yes"/>
			<point x="437" y="233" type="line"/>
			<point x="766" y="235" type="line" smooth="yes"/>
			<point x="803" y="235"/>
			<point x="824" y="279"/>
			<point x="824" y="279" type="curve" smooth="yes"/>
			<point x="824" y="429"/>
			<point x="741" y="545"/>
			<point x="587" y="545" type="curve" smooth="yes"/>
			<point x="529" y="545"/>
			<point x="478" y="529"/>
			<point x="437" y="500" type="curve"/>
			<point x="437" y="686" type="line" smooth="yes"/>
			<point x="437" y="716"/>
			<point x="412" y="741"/>
			<point x="382" y="741" type="curve" smooth="yes"/>
			<point x="352" y="741"/>
			<point x="327" y="716"/>
			<point x="327" y="686" type="curve" smooth="yes"/>
			<point x="327" y="159" type="line" smooth="yes"/>
			<point x="327" y="127"/>
			<point x="327" y="103"/>
			<point x="328" y="83" type="curve" smooth="yes"/>
			<point x="332" y="15"/>
			<point x="371" y="-6"/>
			<point x="429" y="-6" type="curve" smooth="yes"/>
			<point x="442" y="-6"/>
			<point x="455" y="-5"/>
			<point x="469" y="-4" type="curve" smooth="yes"/>
			<point x="490" y="-2"/>
			<point x="507" y="14"/>
			<point x="507" y="36" type="curve" smooth="yes"/>
			<point x="507" y="56"/>
			<point x="491" y="73"/>
			<point x="471" y="76" type="curve" smooth="yes"/>
			<point x="447" y="79"/>
			<point x="439" y="90"/>
			<point x="438" y="112" type="curve" smooth="yes"/>
			<point x="437" y="128"/>
			<point x="437" y="144"/>
		</contour>
		<contour>
			<point x="442" y="312" type="line"/>
			<point x="454" y="414"/>
			<point x="508" y="465"/>
			<point x="583" y="465" type="curve" smooth="yes"/>
			<point x="660" y="465"/>
			<point x="703" y="410"/>
			<point x="711" y="312" type="curve"/>
		</contour>
	</outline>
</glyph>
<glyph name="uF3510" format="2">
	<advance width="1266"/>
	<unicode hex="F3510"/>
	<outline>
		<contour>
			<point x="998" y="545" type="curve" smooth="yes"/>
			<point x="944" y="545"/>
			<point x="889" y="530"/>
			<point x="859" y="505" type="curve" smooth="yes"/>
			<point x="802" y="452" type="line"/>
			<point x="780" y="507"/>
			<point x="727" y="545"/>
			<point x="647" y="545" type="curve" smooth="yes"/>
			<point x="616" y="545"/>
			<point x="589" y="541"/>
			<point x="566" y="532" type="curve" smooth="yes"/>
			<point x="541" y="522"/>
			<point x="528" y="506"/>
			<point x="513" y="484" type="curve" smooth="yes"/>
			<point x="485" y="444" type="line"/>
			<point x="465" y="503"/>
			<point x="412" y="545"/>
			<point x="328" y="545" type="curve" smooth="yes"/>
			<point x="297" y="545"/>
			<point x="270" y="541"/>
			<point x="247" y="532" type="curve" smooth="yes"/>
			<point x="222" y="522"/>
			<point x="209" y="505"/>
			<point x="196" y="482" type="curve" smooth="yes"/>
			<point x="179" y="452" type="line"/>
			<point x="179" y="482" type="line" smooth="yes"/>
			<point x="179" y="512"/>
			<point x="154" y="537"/>
			<point x="124" y="537" type="curve" smooth="yes"/>
			<point x="94" y="537"/>
			<point x="69" y="512"/>
			<point x="69" y="482" type="curve" smooth="yes"/>
			<point x="69" y="50" type="line" smooth="yes"/>
			<point x="69" y="20"/>
			<point x="94" y="-6"/>
			<point x="124" y="-6" type="curve" smooth="yes"/>
			<point x="154" y="-6"/>
			<point x="179" y="20"/>
			<point x="179" y="50" type="curve" smooth="yes"/>
			<point x="179" y="267" type="line" smooth="yes"/>
			<point x="179" y="411"/>
			<point x="221" y="464"/>
			<point x="286" y="464" type="curve" smooth="yes"/>
			<point x="343" y="464"/>
			<point x="377" y="434"/>
			<point x="385" y="377" type="curve" smooth="yes"/>
			<point x="388" y="350"/>
			<point x="389" y="321"/>
			<point x="389" y="281" type="curve" smooth="yes"/>
			<point x="389" y="49" type="line" smooth="yes"/>
			<point x="389" y="19"/>
			<point x="413" y="-6"/>
			<point x="444" y="-6" type="curve" smooth="yes"/>
			<point x="474" y="-6"/>
			<point x="498" y="19"/>
			<point x="498" y="49" type="curve" smooth="yes"/>
			<point x="498" y="267" type="line" smooth="yes"/>
			<point x="498" y="411"/>
			<point x="541" y="464"/>
			<point x="605" y="464" type="curve" smooth="yes"/>
			<point x="662" y="464"/>
			<point x="697" y="434"/>
			<point x="704" y="377" type="curve" smooth="yes"/>
			<point x="707" y="350"/>
			<point x="708" y="321"/>
			<point x="708" y="281" type="curve" smooth="yes"/>
			<point x="708" y="0" type="line"/>
			<point x="709" y="0" type="line"/>
			<point x="709" y="-146" type="line" smooth="yes"/>
			<point x="709" y="-176"/>
			<point x="734" y="-202"/>
			<point x="764" y="-202" type="curve" smooth="yes"/>
			<point x="794" y="-202"/>
			<point x="819" y="-176"/>
			<point x="819" y="-146" type="curve" smooth="yes"/>
			<point x="819" y="72" type="line"/>
			<point x="837" y="46" type="line" smooth="yes"/>
			<point x="850" y="26"/>
			<point x="861" y="12"/>
			<point x="886" y="2" type="curve" smooth="yes"/>
			<point x="914" y="-8"/>
			<point x="950" y="-14"/>
			<point x="980" y="-14" type="curve" smooth="yes"/>
			<point x="1117" y="-14"/>
			<point x="1237" y="80"/>
			<point x="1237" y="275" type="curve" smooth="yes"/>
			<point x="1237" y="430"/>
			<point x="1150" y="545"/>
		</contour>
		<contour>
			<point x="819" y="244" type="curve" smooth="yes"/>
			<point x="819" y="271" type="line" smooth="yes"/>
			<point x="819" y="413"/>
			<point x="890" y="465"/>
			<point x="972" y="465" type="curve" smooth="yes"/>
			<point x="1068" y="465"/>
			<point x="1121" y="380"/>
			<point x="1121" y="265" type="curve" smooth="yes"/>
			<point x="1121" y="133"/>
			<point x="1055" y="66"/>
			<point x="967" y="66" type="curve" smooth="yes"/>
			<point x="897" y="66"/>
			<point x="819" y="114"/>
		</contour>
	</outline>
</glyph>
<glyph name="uF3650" format="2">
	<advance width="1526"/>
	<unicode hex="F3650"/>
	<outline>
		<contour>
			<point x="554" y="0" type="curve" smooth="yes"/>
			<point x="607" y="0" type="line" smooth="yes"/>
			<point x="644" y="0"/>
			<point x="665" y="21"/>
			<point x="665" y="58" type="curve" smooth="yes"/>
			<point x="664" y="726" type="line"/>
			<point x="946" y="225" type="line" smooth="yes"/>
			<point x="962" y="197"/>
			<point x="983" y="185"/>
			<point x="1015" y="185" type="curve" smooth="yes"/>
			<point x="1460" y="185" type="line" smooth="yes"/>
			<point x="1484" y="185"/>
			<point x="1504" y="205"/>
			<point x="1504" y="229" type="curve" smooth="yes"/>
			<point x="1504" y="253"/>
			<point x="1484" y="273"/>
			<point x="1460" y="273" type="curve" smooth="yes"/>
			<point x="1131" y="273" type="line"/>
			<point x="1131" y="487" type="line"/>
			<point x="1422" y="487" type="line" smooth="yes"/>
			<point x="1446" y="487"/>
			<point x="1466" y="506"/>
			<point x="1466" y="531" type="curve" smooth="yes"/>
			<point x="1466" y="555"/>
			<point x="1446" y="574"/>
			<point x="1422" y="574" type="curve" smooth="yes"/>
			<point x="1131" y="574" type="line"/>
			<point x="1131" y="788" type="line"/>
			<point x="1450" y="788" type="line" smooth="yes"/>
			<point x="1474" y="788"/>
			<point x="1494" y="807"/>
			<point x="1494" y="832" type="curve" smooth="yes"/>
			<point x="1494" y="856"/>
			<point x="1474" y="875"/>
			<point x="1450" y="875" type="curve" smooth="yes"/>
			<point x="1076" y="875" type="line" smooth="yes"/>
			<point x="1039" y="875"/>
			<point x="1018" y="854"/>
			<point x="1018" y="817" type="curve" smooth="yes"/>
			<point x="1018" y="543" type="line" smooth="yes"/>
			<point x="1018" y="472"/>
			<point x="1019" y="380"/>
			<point x="1021" y="302" type="curve"/>
			<point x="734" y="834" type="line" smooth="yes"/>
			<point x="719" y="863"/>
			<point x="697" y="875"/>
			<point x="665" y="875" type="curve" smooth="yes"/>
			<point x="615" y="875" type="line" smooth="yes"/>
			<point x="578" y="875"/>
			<point x="557" y="854"/>
			<point x="557" y="817" type="curve" smooth="yes"/>
			<point x="556" y="690" type="line"/>
			<point x="556" y="358" type="line" smooth="yes"/>
			<point x="556" y="287"/>
			<point x="557" y="195"/>
			<point x="559" y="117" type="curve"/>
			<point x="272" y="649" type="line" smooth="yes"/>
			<point x="257" y="678"/>
			<point x="235" y="690"/>
			<point x="203" y="690" type="curve" smooth="yes"/>
			<point x="153" y="690" type="line" smooth="yes"/>
			<point x="116" y="690"/>
			<point x="95" y="669"/>
			<point x="95" y="632" type="curve" smooth="yes"/>
			<point x="95" y="50" type="line" smooth="yes"/>
			<point x="95" y="20"/>
			<point x="120" y="-6"/>
			<point x="150" y="-6" type="curve" smooth="yes"/>
			<point x="180" y="-6"/>
			<point x="205" y="20"/>
			<point x="205" y="50" type="curve" smooth="yes"/>
			<point x="205" y="330" type="line" smooth="yes"/>
			<point x="205" y="401"/>
			<point x="204" y="490"/>
			<point x="201" y="569" type="curve"/>
			<point x="485" y="41" type="line" smooth="yes"/>
			<point x="500" y="12"/>
			<point x="522" y="0"/>
		</contour>
	</outline>
</glyph>
<glyph name="uF3750" format="2">
	<advance width="1326"/>
	<unicode hex="F3750"/>
	<outline>
		<contour>
			<point x="1290" y="514" type="curve" smooth="yes"/>
			<point x="1290" y="664"/>
			<point x="1207" y="780"/>
			<point x="1053" y="780" type="curve" smooth="yes"/>
			<point x="981" y="780"/>
			<point x="918" y="755"/>
			<point x="873" y="710" type="curve"/>
			<point x="843" y="756"/>
			<point x="788" y="783"/>
			<point x="711" y="783" type="curve" smooth="yes"/>
			<point x="671" y="783"/>
			<point x="640" y="778"/>
			<point x="608" y="762" type="curve" smooth="yes"/>
			<point x="584" y="749"/>
			<point x="572" y="734"/>
			<point x="558" y="710" type="curve" smooth="yes"/>
			<point x="541" y="681" type="line"/>
			<point x="541" y="720" type="line" smooth="yes"/>
			<point x="541" y="750"/>
			<point x="516" y="775"/>
			<point x="486" y="775" type="curve" smooth="yes"/>
			<point x="456" y="775"/>
			<point x="431" y="750"/>
			<point x="431" y="720" type="curve" smooth="yes"/>
			<point x="431" y="532" type="line"/>
			<point x="407" y="541"/>
			<point x="380" y="545"/>
			<point x="349" y="545" type="curve" smooth="yes"/>
			<point x="309" y="545"/>
			<point x="278" y="540"/>
			<point x="246" y="524" type="curve" smooth="yes"/>
			<point x="222" y="511"/>
			<point x="210" y="496"/>
			<point x="196" y="472" type="curve" smooth="yes"/>
			<point x="179" y="443" type="line"/>
			<point x="179" y="482" type="line" smooth="yes"/>
			<point x="179" y="512"/>
			<point x="154" y="537"/>
			<point x="124" y="537" type="curve" smooth="yes"/>
			<point x="94" y="537"/>
			<point x="69" y="512"/>
			<point x="69" y="482" type="curve" smooth="yes"/>
			<point x="69" y="50" type="line" smooth="yes"/>
			<point x="69" y="20"/>
			<point x="94" y="-6"/>
			<point x="124" y="-6" type="curve" smooth="yes"/>
			<point x="154" y="-6"/>
			<point x="179" y="20"/>
			<point x="179" y="50" type="curve" smooth="yes"/>
			<point x="179" y="238" type="line" smooth="yes"/>
			<point x="179" y="404"/>
			<point x="241" y="464"/>
			<point x="317" y="464" type="curve" smooth="yes"/>
			<point x="392" y="464"/>
			<point x="424" y="422"/>
			<point x="429" y="362" type="curve" smooth="yes"/>
			<point x="431" y="335"/>
			<point x="431" y="312"/>
			<point x="431" y="287" type="curve" smooth="yes"/>
			<point x="431" y="50" type="line" smooth="yes"/>
			<point x="431" y="20"/>
			<point x="456" y="-6"/>
			<point x="486" y="-6" type="curve" smooth="yes"/>
			<point x="516" y="-6"/>
			<point x="541" y="20"/>
			<point x="541" y="50" type="curve" smooth="yes"/>
			<point x="541" y="476" type="line" smooth="yes"/>
			<point x="541" y="642"/>
			<point x="603" y="702"/>
			<point x="679" y="702" type="curve" smooth="yes"/>
			<point x="754" y="702"/>
			<point x="786" y="660"/>
			<point x="791" y="600" type="curve" smooth="yes"/>
			<point x="793" y="573"/>
			<point x="793" y="525"/>
			<point x="793" y="525" type="curve"/>
			<point x="793" y="499" type="line" smooth="yes"/>
			<point x="793" y="331"/>
			<point x="878" y="241"/>
			<point x="1002" y="224" type="curve" smooth="yes"/>
			<point x="1025" y="221"/>
			<point x="1048" y="239"/>
			<point x="1048" y="264" type="curve" smooth="yes"/>
			<point x="1048" y="284"/>
			<point x="1033" y="301"/>
			<point x="1015" y="304" type="curve" smooth="yes"/>
			<point x="955" y="315"/>
			<point x="915" y="362"/>
			<point x="907" y="470" type="curve"/>
			<point x="1231" y="470" type="line" smooth="yes"/>
			<point x="1268" y="470"/>
			<point x="1290" y="514"/>
		</contour>
		<contour>
			<point x="908" y="547" type="line"/>
			<point x="920" y="649"/>
			<point x="974" y="700"/>
			<point x="1049" y="700" type="curve" smooth="yes"/>
			<point x="1126" y="700"/>
			<point x="1169" y="645"/>
			<point x="1177" y="547" type="curve"/>
		</contour>
	</outline>
</glyph>
<glyph name="uF3910" format="2">
	<advance width="692"/>
	<unicode hex="F3910"/>
	<outline>
		<contour>
			<point x="298" y="545" type="curve" smooth="yes"/>
			<point x="119" y="545"/>
			<point x="29" y="421"/>
			<point x="29" y="266" type="curve" smooth="yes"/>
			<point x="29" y="111"/>
			<point x="119" y="-14"/>
			<point x="298" y="-14" type="curve" smooth="yes"/>
			<point x="476" y="-14"/>
			<point x="567" y="111"/>
			<point x="567" y="266" type="curve" smooth="yes"/>
			<point x="567" y="450" type="line"/>
			<point x="643" y="450" type="line" smooth="yes"/>
			<point x="664" y="450"/>
			<point x="682" y="467"/>
			<point x="682" y="489" type="curve" smooth="yes"/>
			<point x="682" y="510"/>
			<point x="664" y="527"/>
			<point x="643" y="527" type="curve" smooth="yes"/>
			<point x="567" y="527" type="line"/>
			<point x="567" y="567" type="line" smooth="yes"/>
			<point x="567" y="582"/>
			<point x="568" y="604"/>
			<point x="570" y="618" type="curve" smooth="yes"/>
			<point x="575" y="653"/>
			<point x="603" y="670"/>
			<point x="649" y="670" type="curve" smooth="yes"/>
			<point x="672" y="670"/>
			<point x="691" y="688"/>
			<point x="691" y="711" type="curve" smooth="yes"/>
			<point x="691" y="733"/>
			<point x="673" y="751"/>
			<point x="652" y="753" type="curve" smooth="yes"/>
			<point x="643" y="754"/>
			<point x="634" y="754"/>
			<point x="624" y="754" type="curve" smooth="yes"/>
			<point x="524" y="754"/>
			<point x="469" y="706"/>
			<point x="460" y="624" type="curve" smooth="yes"/>
			<point x="458" y="606"/>
			<point x="458" y="580"/>
			<point x="458" y="561" type="curve" smooth="yes"/>
			<point x="458" y="527" type="line"/>
			<point x="406" y="527" type="line"/>
			<point x="374" y="539"/>
			<point x="338" y="545"/>
		</contour>
		<contour>
			<point x="145" y="266" type="curve" smooth="yes"/>
			<point x="145" y="386"/>
			<point x="201" y="465"/>
			<point x="298" y="465" type="curve" smooth="yes"/>
			<point x="394" y="465"/>
			<point x="450" y="386"/>
			<point x="450" y="266" type="curve" smooth="yes"/>
			<point x="450" y="146"/>
			<point x="394" y="66"/>
			<point x="298" y="66" type="curve" smooth="yes"/>
			<point x="201" y="66"/>
			<point x="145" y="146"/>
		</contour>
	</outline>
</glyph>
<glyph name="uF3950" format="2">
	<advance width="1201"/>
	<unicode hex="F3950"/>
	<outline>
		<contour>
			<point x="298" y="545" type="curve" smooth="yes"/>
			<point x="119" y="545"/>
			<point x="29" y="421"/>
			<point x="29" y="266" type="curve" smooth="yes"/>
			<point x="29" y="111"/>
			<point x="119" y="-14"/>
			<point x="298" y="-14" type="curve" smooth="yes"/>
			<point x="370" y="-14"/>
			<point x="428" y="6"/>
			<point x="471" y="41" type="curve"/>
			<point x="488" y="6"/>
			<point x="523" y="-10"/>
			<point x="583" y="-10" type="curve" smooth="yes"/>
			<point x="600" y="-10"/>
			<point x="616" y="-9"/>
			<point x="634" y="-8" type="curve" smooth="yes"/>
			<point x="654" y="-6"/>
			<point x="670" y="11"/>
			<point x="670" y="31" type="curve" smooth="yes"/>
			<point x="670" y="53"/>
			<point x="652" y="70"/>
			<point x="631" y="70" type="curve" smooth="yes"/>
			<point x="585" y="71"/>
			<point x="571" y="86"/>
			<point x="568" y="128" type="curve" smooth="yes"/>
			<point x="567" y="142"/>
			<point x="567" y="154"/>
			<point x="567" y="172" type="curve" smooth="yes"/>
			<point x="567" y="450" type="line"/>
			<point x="1107" y="450" type="line" smooth="yes"/>
			<point x="1144" y="450"/>
			<point x="1165" y="465"/>
			<point x="1165" y="492" type="curve" smooth="yes"/>
			<point x="1165" y="642"/>
			<point x="1082" y="758"/>
			<point x="928" y="758" type="curve" smooth="yes"/>
			<point x="790" y="758"/>
			<point x="689" y="666"/>
			<point x="671" y="525" type="curve" smooth="yes"/>
			<point x="671" y="526" type="line" smooth="yes"/>
			<point x="671" y="526"/>
			<point x="650" y="527"/>
			<point x="613" y="527" type="curve" smooth="yes"/>
			<point x="567" y="527" type="line"/>
			<point x="567" y="605" type="line" smooth="yes"/>
			<point x="567" y="635"/>
			<point x="543" y="660"/>
			<point x="513" y="660" type="curve" smooth="yes"/>
			<point x="482" y="660"/>
			<point x="458" y="635"/>
			<point x="458" y="605" type="curve" smooth="yes"/>
			<point x="458" y="527" type="line"/>
			<point x="406" y="527" type="line"/>
			<point x="374" y="539"/>
			<point x="338" y="545"/>
		</contour>
		<contour>
			<point x="145" y="266" type="curve" smooth="yes"/>
			<point x="145" y="386"/>
			<point x="201" y="465"/>
			<point x="298" y="465" type="curve" smooth="yes"/>
			<point x="394" y="465"/>
			<point x="450" y="386"/>
			<point x="450" y="266" type="curve" smooth="yes"/>
			<point x="450" y="146"/>
			<point x="394" y="66"/>
			<point x="298" y="66" type="curve" smooth="yes"/>
			<point x="201" y="66"/>
			<point x="145" y="146"/>
		</contour>
		<contour>
			<point x="783" y="525" type="line"/>
			<point x="795" y="627"/>
			<point x="849" y="678"/>
			<point x="924" y="678" type="curve" smooth="yes"/>
			<point x="1001" y="678"/>
			<point x="1044" y="623"/>
			<point x="1052" y="525" type="curve"/>
		</contour>
	</outline>
</glyph>
<glyph name="uF3970" format="2">
	<advance width="639"/>
	<unicode hex="F3970"/>
	<outline>
		<contour>
			<point x="298" y="545" type="curve" smooth="yes"/>
			<point x="119" y="545"/>
			<point x="29" y="421"/>
			<point x="29" y="266" type="curve" smooth="yes"/>
			<point x="29" y="111"/>
			<point x="119" y="-14"/>
			<point x="298" y="-14" type="curve" smooth="yes"/>
			<point x="476" y="-14"/>
			<point x="567" y="111"/>
			<point x="567" y="266" type="curve" smooth="yes"/>
			<point x="568" y="481" type="line" smooth="yes"/>
			<point x="568" y="511"/>
			<point x="543" y="536"/>
			<point x="513" y="536" type="curve" smooth="yes"/>
			<point x="489" y="536"/>
			<point x="465" y="521"/>
			<point x="458" y="500" type="curve"/>
			<point x="416" y="528"/>
			<point x="363" y="545"/>
		</contour>
		<contour>
			<point x="145" y="266" type="curve" smooth="yes"/>
			<point x="145" y="386"/>
			<point x="201" y="465"/>
			<point x="298" y="465" type="curve" smooth="yes"/>
			<point x="394" y="465"/>
			<point x="450" y="386"/>
			<point x="450" y="266" type="curve" smooth="yes"/>
			<point x="450" y="146"/>
			<point x="394" y="66"/>
			<point x="298" y="66" type="curve" smooth="yes"/>
			<point x="201" y="66"/>
			<point x="145" y="146"/>
		</contour>
		<contour>
			<point x="483" y="595"/>
			<point x="492" y="617" type="curve" smooth="yes"/>
			<point x="494" y="623"/>
			<point x="496" y="630"/>
			<point x="496" y="637" type="curve" smooth="yes"/>
			<point x="496" y="665"/>
			<point x="473" y="688"/>
			<point x="445" y="688" type="curve" smooth="yes"/>
			<point x="417" y="688"/>
			<point x="394" y="665"/>
			<point x="394" y="637" type="curve" smooth="yes"/>
			<point x="394" y="609"/>
			<point x="417" y="586"/>
			<point x="445" y="586" type="curve" smooth="yes"/>
			<point x="457" y="586"/>
			<point x="454" y="610"/>
			<point x="450" y="635" type="curve" smooth="yes"/>
			<point x="444" y="670"/>
			<point x="439" y="688"/>
			<point x="429" y="688" type="curve" smooth="yes"/>
			<point x="401" y="688"/>
			<point x="377" y="665"/>
			<point x="377" y="637" type="curve" smooth="yes"/>
			<point x="377" y="630"/>
			<point x="380" y="623"/>
			<point x="382" y="617" type="curve" smooth="yes"/>
			<point x="391" y="595"/>
			<point x="412" y="577"/>
			<point x="437" y="577" type="curve" smooth="yes"/>
			<point x="462" y="577"/>
		</contour>
		<contour>
			<point x="638" y="595"/>
			<point x="647" y="617" type="curve" smooth="yes"/>
			<point x="649" y="623"/>
			<point x="651" y="630"/>
			<point x="651" y="637" type="curve" smooth="yes"/>
			<point x="651" y="665"/>
			<point x="628" y="688"/>
			<point x="600" y="688" type="curve" smooth="yes"/>
			<point x="572" y="688"/>
			<point x="549" y="665"/>
			<point x="549" y="637" type="curve" smooth="yes"/>
			<point x="549" y="609"/>
			<point x="572" y="586"/>
			<point x="600" y="586" type="curve" smooth="yes"/>
			<point x="612" y="586"/>
			<point x="609" y="610"/>
			<point x="605" y="635" type="curve" smooth="yes"/>
			<point x="599" y="670"/>
			<point x="594" y="688"/>
			<point x="584" y="688" type="curve" smooth="yes"/>
			<point x="556" y="688"/>
			<point x="532" y="665"/>
			<point x="532" y="637" type="curve" smooth="yes"/>
			<point x="532" y="630"/>
			<point x="535" y="623"/>
			<point x="537" y="617" type="curve" smooth="yes"/>
			<point x="546" y="595"/>
			<point x="567" y="577"/>
			<point x="592" y="577" type="curve" smooth="yes"/>
			<point x="617" y="577"/>
		</contour>
	</outline>
</glyph>
<glyph name="uF4490" format="2">
	<advance width="1779"/>
	<unicode hex="F4490"/>
	<outline>
		<contour>
			<point x="570" y="178" type="curve" smooth="yes"/>
			<point x="563" y="250"/>
			<point x="537" y="310"/>
			<point x="475" y="337" type="curve"/>
			<point x="548" y="359"/>
			<point x="603" y="412"/>
			<point x="603" y="502" type="curve" smooth="yes"/>
			<point x="603" y="620"/>
			<point x="528" y="673"/>
			<point x="428" y="686" type="curve" smooth="yes"/>
			<point x="395" y="690"/>
			<point x="370" y="690"/>
			<point x="333" y="690" type="curve" smooth="yes"/>
			<point x="153" y="690" type="line" smooth="yes"/>
			<point x="116" y="690"/>
			<point x="95" y="669"/>
			<point x="95" y="632" type="curve" smooth="yes"/>
			<point x="95" y="50" type="line" smooth="yes"/>
			<point x="95" y="20"/>
			<point x="120" y="-6"/>
			<point x="150" y="-6" type="curve" smooth="yes"/>
			<point x="180" y="-6"/>
			<point x="205" y="20"/>
			<point x="205" y="50" type="curve" smooth="yes"/>
			<point x="205" y="288" type="line"/>
			<point x="312" y="288" type="line" smooth="yes"/>
			<point x="329" y="288"/>
			<point x="346" y="288"/>
			<point x="363" y="287" type="curve" smooth="yes"/>
			<point x="426" y="283"/>
			<point x="453" y="237"/>
			<point x="462" y="164" type="curve" smooth="yes"/>
			<point x="468" y="108"/>
			<point x="474" y="70"/>
			<point x="484" y="34" type="curve" smooth="yes"/>
			<point x="490" y="12"/>
			<point x="512" y="-6"/>
			<point x="536" y="-6" type="curve" smooth="yes"/>
			<point x="566" y="-6"/>
			<point x="590" y="19"/>
			<point x="590" y="48" type="curve" smooth="yes"/>
			<point x="590" y="53"/>
			<point x="589" y="59"/>
			<point x="588" y="63" type="curve" smooth="yes"/>
			<point x="580" y="94"/>
			<point x="574" y="131"/>
		</contour>
		<contour>
			<point x="205" y="373" type="line"/>
			<point x="205" y="603" type="line"/>
			<point x="327" y="603" type="line" smooth="yes"/>
			<point x="355" y="603"/>
			<point x="373" y="602"/>
			<point x="391" y="599" type="curve" smooth="yes"/>
			<point x="450" y="591"/>
			<point x="487" y="561"/>
			<point x="487" y="488" type="curve" smooth="yes"/>
			<point x="487" y="415"/>
			<point x="442" y="381"/>
			<point x="382" y="375" type="curve" smooth="yes"/>
			<point x="365" y="373"/>
			<point x="348" y="373"/>
			<point x="320" y="373" type="curve" smooth="yes"/>
		</contour>
		<contour>
			<point x="770" y="681"/>
			<point x="770" y="711" type="curve" smooth="yes"/>
			<point x="770" y="719" type="line" smooth="yes"/>
			<point x="770" y="750"/>
			<point x="745" y="775"/>
			<point x="714" y="775" type="curve" smooth="yes"/>
			<point x="704" y="775"/>
			<point x="695" y="772"/>
			<point x="687" y="768" type="curve" smooth="yes"/>
			<point x="668" y="757"/>
			<point x="654" y="738"/>
			<point x="654" y="717" type="curve" smooth="yes"/>
			<point x="654" y="709"/>
			<point x="656" y="701"/>
			<point x="659" y="695" type="curve" smooth="yes"/>
			<point x="669" y="673"/>
			<point x="691" y="656"/>
			<point x="715" y="656" type="curve" smooth="yes"/>
			<point x="745" y="656"/>
		</contour>
		<contour>
			<point x="774" y="342" type="curve" smooth="yes"/>
			<point x="774" y="132"/>
			<point x="895" y="-14"/>
			<point x="1092" y="-14" type="curve" smooth="yes"/>
			<point x="1235" y="-14"/>
			<point x="1328" y="51"/>
			<point x="1367" y="145" type="curve"/>
			<point x="1705" y="145" type="line" smooth="yes"/>
			<point x="1729" y="145"/>
			<point x="1750" y="165"/>
			<point x="1750" y="190" type="curve" smooth="yes"/>
			<point x="1750" y="214"/>
			<point x="1729" y="234"/>
			<point x="1705" y="234" type="curve" smooth="yes"/>
			<point x="1332" y="234" type="line" smooth="yes"/>
			<point x="1297" y="234"/>
			<point x="1278" y="230"/>
			<point x="1277" y="224" type="curve" smooth="yes"/>
			<point x="1258" y="131"/>
			<point x="1201" y="70"/>
			<point x="1097" y="70" type="curve" smooth="yes"/>
			<point x="975" y="70"/>
			<point x="893" y="176"/>
			<point x="893" y="347" type="curve" smooth="yes"/>
			<point x="893" y="510"/>
			<point x="974" y="620"/>
			<point x="1102" y="620" type="curve" smooth="yes"/>
			<point x="1206" y="620"/>
			<point x="1263" y="561"/>
			<point x="1282" y="468" type="curve" smooth="yes"/>
			<point x="1283" y="463" type="line" smooth="yes"/>
			<point x="1284" y="459"/>
			<point x="1302" y="458"/>
			<point x="1337" y="458" type="curve" smooth="yes"/>
			<point x="1685" y="458" type="line" smooth="yes"/>
			<point x="1709" y="458"/>
			<point x="1729" y="477"/>
			<point x="1729" y="502" type="curve" smooth="yes"/>
			<point x="1729" y="526"/>
			<point x="1709" y="545"/>
			<point x="1685" y="545" type="curve" smooth="yes"/>
			<point x="1394" y="545" type="line"/>
			<point x="1394" y="759" type="line"/>
			<point x="1713" y="759" type="line" smooth="yes"/>
			<point x="1737" y="759"/>
			<point x="1757" y="778"/>
			<point x="1757" y="803" type="curve" smooth="yes"/>
			<point x="1757" y="827"/>
			<point x="1737" y="846"/>
			<point x="1713" y="846" type="curve" smooth="yes"/>
			<point x="1342" y="846" type="line" smooth="yes"/>
			<point x="1305" y="846"/>
			<point x="1284" y="825"/>
			<point x="1284" y="788" type="curve" smooth="yes"/>
			<point x="1284" y="657" type="line"/>
			<point x="1239" y="687"/>
			<point x="1179" y="704"/>
			<point x="1104" y="704" type="curve" smooth="yes"/>
			<point x="910" y="704"/>
			<point x="774" y="559"/>
		</contour>
	</outline>
</glyph>
<glyph name="uF4880" format="2">
	<advance width="1129"/>
	<unicode hex="F4880"/>
	<outline>
		<contour>
			<point x="379" y="603" type="line"/>
			<point x="623" y="603" type="line"/>
			<point x="623" y="0" type="line"/>
			<point x="624" y="-240" type="line" smooth="yes"/>
			<point x="624" y="-277"/>
			<point x="645" y="-298"/>
			<point x="682" y="-298" type="curve" smooth="yes"/>
			<point x="1063" y="-298" type="line" smooth="yes"/>
			<point x="1087" y="-298"/>
			<point x="1107" y="-278"/>
			<point x="1107" y="-254" type="curve" smooth="yes"/>
			<point x="1107" y="-230"/>
			<point x="1087" y="-210"/>
			<point x="1063" y="-210" type="curve" smooth="yes"/>
			<point x="734" y="-210" type="line"/>
			<point x="734" y="4" type="line"/>
			<point x="1025" y="4" type="line" smooth="yes"/>
			<point x="1049" y="4"/>
			<point x="1069" y="23"/>
			<point x="1069" y="48" type="curve" smooth="yes"/>
			<point x="1069" y="72"/>
			<point x="1049" y="91"/>
			<point x="1025" y="91" type="curve" smooth="yes"/>
			<point x="734" y="91" type="line"/>
			<point x="734" y="305" type="line"/>
			<point x="1053" y="305" type="line" smooth="yes"/>
			<point x="1077" y="305"/>
			<point x="1097" y="324"/>
			<point x="1097" y="349" type="curve" smooth="yes"/>
			<point x="1097" y="373"/>
			<point x="1077" y="392"/>
			<point x="1053" y="392" type="curve" smooth="yes"/>
			<point x="732" y="392" type="line"/>
			<point x="732" y="603" type="line"/>
			<point x="935" y="603" type="line" smooth="yes"/>
			<point x="959" y="603"/>
			<point x="979" y="622"/>
			<point x="979" y="647" type="curve" smooth="yes"/>
			<point x="979" y="671"/>
			<point x="959" y="690"/>
			<point x="935" y="690" type="curve" smooth="yes"/>
			<point x="67" y="690" type="line" smooth="yes"/>
			<point x="43" y="690"/>
			<point x="24" y="671"/>
			<point x="24" y="647" type="curve" smooth="yes"/>
			<point x="24" y="622"/>
			<point x="43" y="603"/>
			<point x="67" y="603" type="curve" smooth="yes"/>
			<point x="270" y="603" type="line"/>
			<point x="270" y="49" type="line" smooth="yes"/>
			<point x="270" y="19"/>
			<point x="294" y="-6"/>
			<point x="325" y="-6" type="curve" smooth="yes"/>
			<point x="355" y="-6"/>
			<point x="379" y="19"/>
			<point x="379" y="49" type="curve" smooth="yes"/>
		</contour>
	</outline>
</glyph>
<glyph name="uF5010" format="2">
	<advance width="1024"/>
	<unicode hex="F5010"/>
	<outline>
		<contour>
			<point x="982" y="297"/>
			<point x="958" y="297" type="curve" smooth="yes"/>
			<point x="629" y="297" type="line"/>
			<point x="629" y="511" type="line"/>
			<point x="920" y="511" type="line" smooth="yes"/>
			<point x="944" y="511"/>
			<point x="964" y="530"/>
			<point x="964" y="555" type="curve" smooth="yes"/>
			<point x="964" y="579"/>
			<point x="944" y="598"/>
			<point x="920" y="598" type="curve" smooth="yes"/>
			<point x="629" y="598" type="line"/>
			<point x="629" y="812" type="line"/>
			<point x="948" y="812" type="line" smooth="yes"/>
			<point x="972" y="812"/>
			<point x="992" y="831"/>
			<point x="992" y="856" type="curve" smooth="yes"/>
			<point x="992" y="880"/>
			<point x="972" y="899"/>
			<point x="948" y="899" type="curve" smooth="yes"/>
			<point x="577" y="899" type="line" smooth="yes"/>
			<point x="540" y="899"/>
			<point x="519" y="878"/>
			<point x="519" y="841" type="curve" smooth="yes"/>
			<point x="519" y="219" type="line"/>
			<point x="518" y="209" type="line" smooth="yes"/>
			<point x="511" y="126"/>
			<point x="458" y="70"/>
			<point x="358" y="70" type="curve" smooth="yes"/>
			<point x="259" y="70"/>
			<point x="206" y="126"/>
			<point x="199" y="209" type="curve" smooth="yes"/>
			<point x="197" y="225"/>
			<point x="197" y="244"/>
			<point x="197" y="265" type="curve" smooth="yes"/>
			<point x="197" y="641" type="line" smooth="yes"/>
			<point x="197" y="671"/>
			<point x="173" y="696"/>
			<point x="143" y="696" type="curve" smooth="yes"/>
			<point x="112" y="696"/>
			<point x="88" y="671"/>
			<point x="88" y="641" type="curve" smooth="yes"/>
			<point x="88" y="267" type="line" smooth="yes"/>
			<point x="88" y="242"/>
			<point x="88" y="222"/>
			<point x="90" y="196" type="curve" smooth="yes"/>
			<point x="99" y="81"/>
			<point x="178" y="-14"/>
			<point x="358" y="-14" type="curve" smooth="yes"/>
			<point x="538" y="-14"/>
			<point x="617" y="81"/>
			<point x="627" y="196" type="curve" smooth="yes"/>
			<point x="627" y="200"/>
			<point x="628" y="205"/>
			<point x="628" y="209" type="curve"/>
			<point x="958" y="209" type="line" smooth="yes"/>
			<point x="982" y="209"/>
			<point x="1002" y="229"/>
			<point x="1002" y="253" type="curve" smooth="yes"/>
			<point x="1002" y="277"/>
		</contour>
	</outline>
</glyph>
<glyph name="uF5070" format="2">
	<advance width="1638"/>
	<unicode hex="F5070"/>
	<outline>
		<contour>
			<point x="629" y="265" type="curve" smooth="yes"/>
			<point x="629" y="292" type="line"/>
			<point x="896" y="292" type="line"/>
			<point x="896" y="58" type="line" smooth="yes"/>
			<point x="896" y="21"/>
			<point x="917" y="0"/>
			<point x="954" y="0" type="curve" smooth="yes"/>
			<point x="1570" y="0" type="line" smooth="yes"/>
			<point x="1595" y="0"/>
			<point x="1616" y="21"/>
			<point x="1616" y="46" type="curve" smooth="yes"/>
			<point x="1616" y="71"/>
			<point x="1595" y="92"/>
			<point x="1570" y="92" type="curve" smooth="yes"/>
			<point x="1244" y="92" type="line"/>
			<point x="1244" y="302" type="line"/>
			<point x="1535" y="302" type="line" smooth="yes"/>
			<point x="1559" y="302"/>
			<point x="1579" y="321"/>
			<point x="1579" y="346" type="curve" smooth="yes"/>
			<point x="1579" y="370"/>
			<point x="1559" y="389"/>
			<point x="1535" y="389" type="curve" smooth="yes"/>
			<point x="1244" y="389" type="line"/>
			<point x="1244" y="603" type="line"/>
			<point x="1563" y="603" type="line" smooth="yes"/>
			<point x="1587" y="603"/>
			<point x="1607" y="622"/>
			<point x="1607" y="647" type="curve" smooth="yes"/>
			<point x="1607" y="671"/>
			<point x="1587" y="690"/>
			<point x="1563" y="690" type="curve" smooth="yes"/>
			<point x="1192" y="690" type="line" smooth="yes"/>
			<point x="1155" y="690"/>
			<point x="1134" y="669"/>
			<point x="1134" y="632" type="curve" smooth="yes"/>
			<point x="1134" y="91" type="line"/>
			<point x="1006" y="91" type="line"/>
			<point x="1006" y="641" type="line" smooth="yes"/>
			<point x="1006" y="671"/>
			<point x="981" y="696"/>
			<point x="951" y="696" type="curve" smooth="yes"/>
			<point x="921" y="696"/>
			<point x="896" y="671"/>
			<point x="896" y="641" type="curve" smooth="yes"/>
			<point x="896" y="383" type="line"/>
			<point x="629" y="383" type="line"/>
			<point x="629" y="933" type="line" smooth="yes"/>
			<point x="629" y="962"/>
			<point x="605" y="987"/>
			<point x="575" y="987" type="curve" smooth="yes"/>
			<point x="545" y="987"/>
			<point x="521" y="963"/>
			<point x="521" y="934" type="curve" smooth="yes"/>
			<point x="520" y="292" type="line"/>
			<point x="520" y="263" type="line" smooth="yes"/>
			<point x="520" y="242"/>
			<point x="520" y="223"/>
			<point x="518" y="207" type="curve" smooth="yes"/>
			<point x="511" y="124"/>
			<point x="458" y="68"/>
			<point x="358" y="68" type="curve" smooth="yes"/>
			<point x="259" y="68"/>
			<point x="206" y="124"/>
			<point x="199" y="207" type="curve" smooth="yes"/>
			<point x="197" y="223"/>
			<point x="197" y="242"/>
			<point x="197" y="263" type="curve" smooth="yes"/>
			<point x="197" y="639" type="line" smooth="yes"/>
			<point x="197" y="669"/>
			<point x="173" y="694"/>
			<point x="143" y="694" type="curve" smooth="yes"/>
			<point x="112" y="694"/>
			<point x="88" y="669"/>
			<point x="88" y="639" type="curve" smooth="yes"/>
			<point x="88" y="265" type="line" smooth="yes"/>
			<point x="88" y="240"/>
			<point x="88" y="220"/>
			<point x="90" y="194" type="curve" smooth="yes"/>
			<point x="99" y="79"/>
			<point x="178" y="-16"/>
			<point x="358" y="-16" type="curve" smooth="yes"/>
			<point x="538" y="-16"/>
			<point x="617" y="79"/>
			<point x="627" y="194" type="curve" smooth="yes"/>
			<point x="629" y="220"/>
			<point x="629" y="240"/>
		</contour>
	</outline>
</glyph>
